<svg xmlns="http://www.w3.org/2000/svg" xmlns:xlink="http://www.w3.org/1999/xlink" zoomAndPan="magnify" viewBox="0 0 1500 1499.999933" preserveAspectRatio="xMidYMid meet" version="1.0"><defs><g/><clipPath id="7b2cd7efa1"><path d="M 277 247.089844 L 1284 247.089844 L 1284 1252.839844 L 277 1252.839844 Z M 277 247.089844 " clip-rule="nonzero"/></clipPath><clipPath id="64a3882b57"><path d="M 465.214844 585.175781 L 773.21875 585.175781 L 773.21875 789.359375 L 465.214844 789.359375 Z M 465.214844 585.175781 " clip-rule="nonzero"/></clipPath><clipPath id="8451b20e38"><path d="M 773.21875 739.597656 C 773.21875 722.640625 770.484375 706.328125 765.4375 691.066406 C 763.234375 691.015625 760.660156 690.902344 757.570312 690.710938 C 737.265625 689.460938 740.773438 691.460938 713.949219 691.460938 C 687.125 691.460938 679.605469 691.460938 646.265625 691.460938 C 612.921875 691.460938 621.449219 686.699219 637.996094 685.695312 C 654.539062 684.695312 658.800781 685.695312 671.589844 684.445312 C 684.375 683.191406 693.644531 683.695312 718.714844 681.1875 C 738.617188 679.195312 743.195312 680.371094 761.675781 680.933594 C 752.644531 658.957031 738.691406 639.519531 721.183594 623.996094 C 709.296875 622.988281 715.566406 624.050781 696.902344 622.777344 C 674.847656 621.273438 671.332031 621.777344 640.503906 621.777344 C 609.667969 621.777344 586.859375 618.269531 586.859375 618.269531 C 586.859375 618.269531 631.730469 619.015625 655.792969 617.011719 C 679.855469 615.011719 671.332031 617.011719 690.640625 617.011719 C 699.285156 617.011719 706.023438 617.0625 712.847656 617.121094 C 686.808594 597.089844 654.203125 585.179688 618.800781 585.179688 C 565.914062 585.179688 519.238281 611.777344 491.410156 652.320312 C 501.410156 653.585938 502.039062 653.414062 517.191406 654.214844 C 533.714844 655.09375 520.988281 653.664062 546.285156 654.753906 C 571.582031 655.84375 569.601562 655.238281 578.863281 655.726562 C 588.125 656.222656 616.667969 657.734375 616.667969 657.734375 C 616.667969 657.734375 572.570312 660.917969 557.953125 661.898438 C 543.339844 662.882812 542.871094 662.355469 525.003906 663.164062 C 508.042969 663.933594 492.492188 663.644531 484.535156 663.273438 C 474.222656 681.378906 467.464844 701.777344 465.214844 723.507812 C 479.933594 723.835938 484.441406 723.085938 502.628906 724.300781 C 525.1875 725.808594 578.332031 728.0625 587.609375 728.5625 C 596.886719 729.066406 593.625 729.066406 615.433594 729.066406 C 615.433594 729.066406 564.882812 734.242188 540.574219 734.324219 C 603.476562 742.933594 665.179688 759.707031 727.433594 778.40625 C 739.949219 781.878906 752.464844 785.566406 765.019531 789.355469 C 769.511719 776.15625 772.265625 762.148438 773.015625 747.617188 L 751.546875 747.617188 C 734.753906 747.617188 731.242188 747.867188 718.457031 747.867188 C 705.671875 747.867188 682.363281 744.355469 682.363281 744.355469 C 682.363281 744.355469 710.6875 744.105469 728.738281 742.351562 C 746.785156 740.597656 741.523438 742.351562 762.832031 740.597656 C 767.753906 740.1875 770.988281 739.972656 773.214844 739.863281 L 773.214844 739.597656 Z M 773.21875 739.597656 " clip-rule="nonzero"/></clipPath><linearGradient x1="195.493" gradientTransform="matrix(2.399352, 0, 0, 2.399352, 150.160626, 247.090909)" y1="140.907951" x2="195.493" gradientUnits="userSpaceOnUse" y2="226.004973" id="41dc16332c"><stop stop-opacity="1" stop-color="rgb(96.078491%, 83.139038%, 25.878906%)" offset="0"/><stop stop-opacity="1" stop-color="rgb(96.078491%, 83.139038%, 25.878906%)" offset="0.25"/><stop stop-opacity="1" stop-color="rgb(96.078491%, 83.139038%, 25.878906%)" offset="0.28125"/><stop stop-opacity="1" stop-color="rgb(96.080017%, 83.061218%, 25.848389%)" offset="0.289062"/><stop stop-opacity="1" stop-color="rgb(96.086121%, 82.83844%, 25.761414%)" offset="0.296875"/><stop stop-opacity="1" stop-color="rgb(96.09375%, 82.548523%, 25.646973%)" offset="0.304688"/><stop stop-opacity="1" stop-color="rgb(96.102905%, 82.25708%, 25.534058%)" offset="0.3125"/><stop stop-opacity="1" stop-color="rgb(96.110535%, 81.967163%, 25.419617%)" offset="0.320312"/><stop stop-opacity="1" stop-color="rgb(96.118164%, 81.67572%, 25.305176%)" offset="0.328125"/><stop stop-opacity="1" stop-color="rgb(96.125793%, 81.385803%, 25.192261%)" offset="0.335938"/><stop stop-opacity="1" stop-color="rgb(96.133423%, 81.09436%, 25.07782%)" offset="0.34375"/><stop stop-opacity="1" stop-color="rgb(96.141052%, 80.804443%, 24.963379%)" offset="0.351563"/><stop stop-opacity="1" stop-color="rgb(96.148682%, 80.513%, 24.850464%)" offset="0.359375"/><stop stop-opacity="1" stop-color="rgb(96.156311%, 80.223083%, 24.736023%)" offset="0.367188"/><stop stop-opacity="1" stop-color="rgb(96.165466%, 79.931641%, 24.623108%)" offset="0.375"/><stop stop-opacity="1" stop-color="rgb(96.173096%, 79.641724%, 24.508667%)" offset="0.382813"/><stop stop-opacity="1" stop-color="rgb(96.180725%, 79.351807%, 24.394226%)" offset="0.390625"/><stop stop-opacity="1" stop-color="rgb(96.188354%, 79.060364%, 24.281311%)" offset="0.398438"/><stop stop-opacity="1" stop-color="rgb(96.195984%, 78.770447%, 24.16687%)" offset="0.40625"/><stop stop-opacity="1" stop-color="rgb(96.203613%, 78.479004%, 24.052429%)" offset="0.414063"/><stop stop-opacity="1" stop-color="rgb(96.211243%, 78.189087%, 23.939514%)" offset="0.421875"/><stop stop-opacity="1" stop-color="rgb(96.218872%, 77.897644%, 23.825073%)" offset="0.429688"/><stop stop-opacity="1" stop-color="rgb(96.226501%, 77.607727%, 23.712158%)" offset="0.4375"/><stop stop-opacity="1" stop-color="rgb(96.235657%, 77.316284%, 23.597717%)" offset="0.445313"/><stop stop-opacity="1" stop-color="rgb(96.243286%, 77.026367%, 23.483276%)" offset="0.453125"/><stop stop-opacity="1" stop-color="rgb(96.250916%, 76.734924%, 23.370361%)" offset="0.460938"/><stop stop-opacity="1" stop-color="rgb(96.258545%, 76.445007%, 23.25592%)" offset="0.46875"/><stop stop-opacity="1" stop-color="rgb(96.266174%, 76.153564%, 23.141479%)" offset="0.476563"/><stop stop-opacity="1" stop-color="rgb(96.273804%, 75.863647%, 23.028564%)" offset="0.484375"/><stop stop-opacity="1" stop-color="rgb(96.281433%, 75.572205%, 22.914124%)" offset="0.492188"/><stop stop-opacity="1" stop-color="rgb(96.289062%, 75.282288%, 22.801208%)" offset="0.5"/><stop stop-opacity="1" stop-color="rgb(96.298218%, 74.990845%, 22.686768%)" offset="0.507813"/><stop stop-opacity="1" stop-color="rgb(96.305847%, 74.700928%, 22.572327%)" offset="0.515625"/><stop stop-opacity="1" stop-color="rgb(96.313477%, 74.411011%, 22.459412%)" offset="0.523438"/><stop stop-opacity="1" stop-color="rgb(96.321106%, 74.119568%, 22.344971%)" offset="0.53125"/><stop stop-opacity="1" stop-color="rgb(96.328735%, 73.829651%, 22.23053%)" offset="0.539063"/><stop stop-opacity="1" stop-color="rgb(96.336365%, 73.538208%, 22.117615%)" offset="0.546875"/><stop stop-opacity="1" stop-color="rgb(96.343994%, 73.248291%, 22.003174%)" offset="0.554688"/><stop stop-opacity="1" stop-color="rgb(96.351624%, 72.956848%, 21.890259%)" offset="0.5625"/><stop stop-opacity="1" stop-color="rgb(96.360779%, 72.666931%, 21.775818%)" offset="0.570312"/><stop stop-opacity="1" stop-color="rgb(96.368408%, 72.375488%, 21.661377%)" offset="0.578125"/><stop stop-opacity="1" stop-color="rgb(96.376038%, 72.085571%, 21.548462%)" offset="0.585938"/><stop stop-opacity="1" stop-color="rgb(96.383667%, 71.794128%, 21.434021%)" offset="0.59375"/><stop stop-opacity="1" stop-color="rgb(96.391296%, 71.504211%, 21.31958%)" offset="0.601562"/><stop stop-opacity="1" stop-color="rgb(96.398926%, 71.212769%, 21.206665%)" offset="0.609375"/><stop stop-opacity="1" stop-color="rgb(96.406555%, 70.922852%, 21.092224%)" offset="0.617188"/><stop stop-opacity="1" stop-color="rgb(96.414185%, 70.631409%, 20.979309%)" offset="0.625"/><stop stop-opacity="1" stop-color="rgb(96.421814%, 70.341492%, 20.864868%)" offset="0.632812"/><stop stop-opacity="1" stop-color="rgb(96.430969%, 70.051575%, 20.750427%)" offset="0.640625"/><stop stop-opacity="1" stop-color="rgb(96.438599%, 69.760132%, 20.637512%)" offset="0.648438"/><stop stop-opacity="1" stop-color="rgb(96.446228%, 69.470215%, 20.523071%)" offset="0.65625"/><stop stop-opacity="1" stop-color="rgb(96.453857%, 69.178772%, 20.40863%)" offset="0.664062"/><stop stop-opacity="1" stop-color="rgb(96.461487%, 68.888855%, 20.295715%)" offset="0.671875"/><stop stop-opacity="1" stop-color="rgb(96.469116%, 68.597412%, 20.181274%)" offset="0.679688"/><stop stop-opacity="1" stop-color="rgb(96.476746%, 68.307495%, 20.068359%)" offset="0.6875"/><stop stop-opacity="1" stop-color="rgb(96.484375%, 68.016052%, 19.953918%)" offset="0.695312"/><stop stop-opacity="1" stop-color="rgb(96.49353%, 67.726135%, 19.839478%)" offset="0.703125"/><stop stop-opacity="1" stop-color="rgb(96.50116%, 67.434692%, 19.726562%)" offset="0.710938"/><stop stop-opacity="1" stop-color="rgb(96.508789%, 67.144775%, 19.612122%)" offset="0.71875"/><stop stop-opacity="1" stop-color="rgb(96.516418%, 66.853333%, 19.497681%)" offset="0.726562"/><stop stop-opacity="1" stop-color="rgb(96.524048%, 66.563416%, 19.384766%)" offset="0.734375"/><stop stop-opacity="1" stop-color="rgb(96.531677%, 66.271973%, 19.270325%)" offset="0.742188"/><stop stop-opacity="1" stop-color="rgb(96.539307%, 65.982056%, 19.15741%)" offset="0.75"/><stop stop-opacity="1" stop-color="rgb(96.546936%, 65.690613%, 19.042969%)" offset="0.757812"/><stop stop-opacity="1" stop-color="rgb(96.556091%, 65.400696%, 18.928528%)" offset="0.765625"/><stop stop-opacity="1" stop-color="rgb(96.563721%, 65.110779%, 18.815613%)" offset="0.773438"/><stop stop-opacity="1" stop-color="rgb(96.57135%, 64.819336%, 18.701172%)" offset="0.78125"/><stop stop-opacity="1" stop-color="rgb(96.578979%, 64.529419%, 18.586731%)" offset="0.789062"/><stop stop-opacity="1" stop-color="rgb(96.586609%, 64.237976%, 18.473816%)" offset="0.796875"/><stop stop-opacity="1" stop-color="rgb(96.594238%, 63.948059%, 18.359375%)" offset="0.804687"/><stop stop-opacity="1" stop-color="rgb(96.601868%, 63.656616%, 18.24646%)" offset="0.8125"/><stop stop-opacity="1" stop-color="rgb(96.609497%, 63.366699%, 18.132019%)" offset="0.820312"/><stop stop-opacity="1" stop-color="rgb(96.617126%, 63.075256%, 18.017578%)" offset="0.828125"/><stop stop-opacity="1" stop-color="rgb(96.626282%, 62.785339%, 17.904663%)" offset="0.835937"/><stop stop-opacity="1" stop-color="rgb(96.633911%, 62.493896%, 17.790222%)" offset="0.84375"/><stop stop-opacity="1" stop-color="rgb(96.641541%, 62.203979%, 17.675781%)" offset="0.851562"/><stop stop-opacity="1" stop-color="rgb(96.64917%, 61.912537%, 17.562866%)" offset="0.859375"/><stop stop-opacity="1" stop-color="rgb(96.656799%, 61.62262%, 17.448425%)" offset="0.867187"/><stop stop-opacity="1" stop-color="rgb(96.664429%, 61.331177%, 17.33551%)" offset="0.875"/><stop stop-opacity="1" stop-color="rgb(96.672058%, 61.04126%, 17.221069%)" offset="0.882813"/><stop stop-opacity="1" stop-color="rgb(96.679688%, 60.749817%, 17.106628%)" offset="0.890625"/><stop stop-opacity="1" stop-color="rgb(96.688843%, 60.4599%, 16.993713%)" offset="0.898438"/><stop stop-opacity="1" stop-color="rgb(96.696472%, 60.169983%, 16.879272%)" offset="0.90625"/><stop stop-opacity="1" stop-color="rgb(96.704102%, 59.87854%, 16.764832%)" offset="0.914062"/><stop stop-opacity="1" stop-color="rgb(96.711731%, 59.588623%, 16.651917%)" offset="0.921875"/><stop stop-opacity="1" stop-color="rgb(96.71936%, 59.29718%, 16.537476%)" offset="0.929688"/><stop stop-opacity="1" stop-color="rgb(96.72699%, 59.007263%, 16.424561%)" offset="0.9375"/><stop stop-opacity="1" stop-color="rgb(96.734619%, 58.71582%, 16.31012%)" offset="0.945312"/><stop stop-opacity="1" stop-color="rgb(96.742249%, 58.425903%, 16.195679%)" offset="0.953125"/><stop stop-opacity="1" stop-color="rgb(96.749878%, 58.13446%, 16.082764%)" offset="0.960938"/><stop stop-opacity="1" stop-color="rgb(96.759033%, 57.844543%, 15.968323%)" offset="0.96875"/><stop stop-opacity="1" stop-color="rgb(96.766663%, 57.553101%, 15.853882%)" offset="0.976562"/><stop stop-opacity="1" stop-color="rgb(96.774292%, 57.263184%, 15.740967%)" offset="0.984375"/><stop stop-opacity="1" stop-color="rgb(96.781921%, 56.971741%, 15.626526%)" offset="0.992188"/><stop stop-opacity="1" stop-color="rgb(96.789551%, 56.681824%, 15.513611%)" offset="1"/></linearGradient><clipPath id="336047778d"><path d="M 150 766 L 1349.871094 766 L 1349.871094 946 L 150 946 Z M 150 766 " clip-rule="nonzero"/></clipPath><clipPath id="3138183f01"><rect x="0" width="935" y="0" height="388"/></clipPath><clipPath id="e537f3abbd"><rect x="0" width="563" y="0" height="136"/></clipPath></defs><rect x="-150" width="1800" fill="#ffffff" y="-149.999993" height="1799.99992" fill-opacity="1"/><rect x="-150" width="1800" fill="#ffffff" y="-149.999993" height="1799.99992" fill-opacity="1"/><g clip-path="url(#7b2cd7efa1)"><path fill="#094e72" d="M 1218.828125 964.722656 C 1220.671875 960.960938 1225.210938 959.398438 1228.972656 961.242188 C 1232.738281 963.082031 1234.292969 967.621094 1232.449219 971.386719 C 1190.824219 1056.125 1126.070312 1127.433594 1046.445312 1177.050781 C 969.359375 1225.089844 878.339844 1252.847656 780.855469 1252.847656 C 667.839844 1252.847656 563.5 1215.527344 479.492188 1152.535156 C 393.46875 1088.035156 328.792969 996.601562 297.984375 890.742188 C 296.824219 886.722656 299.136719 882.515625 303.164062 881.347656 C 307.183594 880.179688 311.390625 882.5 312.5625 886.519531 C 342.441406 989.167969 405.160156 1077.839844 488.589844 1140.402344 C 570.015625 1201.445312 671.195312 1237.617188 780.859375 1237.617188 C 875.429688 1237.617188 963.691406 1210.714844 1038.421875 1164.148438 C 1115.671875 1115.996094 1178.480469 1046.855469 1218.828125 964.722656 M 293.210938 749.964844 C 293.210938 754.171875 289.800781 757.582031 285.597656 757.582031 C 281.394531 757.582031 277.984375 754.171875 277.984375 749.964844 C 277.984375 611.101562 334.269531 485.382812 425.273438 394.382812 C 516.269531 303.378906 641.988281 247.089844 780.855469 247.089844 C 919.722656 247.089844 1045.441406 303.378906 1136.441406 394.382812 C 1227.445312 485.382812 1283.730469 611.101562 1283.730469 749.964844 C 1283.730469 757.816406 1283.53125 765.921875 1283.132812 774.277344 C 1282.75 782.34375 1282.167969 790.414062 1281.394531 798.476562 C 1281 802.652344 1277.300781 805.714844 1273.125 805.320312 C 1268.953125 804.929688 1265.894531 801.222656 1266.28125 797.054688 C 1267.027344 789.332031 1267.585938 781.5 1267.960938 773.570312 C 1268.3125 766.050781 1268.5 758.183594 1268.5 749.96875 C 1268.5 615.308594 1213.921875 493.394531 1125.675781 405.152344 C 1037.425781 316.90625 915.515625 262.324219 780.855469 262.324219 C 646.191406 262.324219 524.285156 316.90625 436.035156 405.152344 C 347.792969 493.394531 293.210938 615.304688 293.210938 749.964844 Z M 293.210938 749.964844 " fill-opacity="1" fill-rule="nonzero"/></g><path fill="#094e72" d="M 1031.460938 969.433594 C 1034.195312 966.304688 1038.953125 965.988281 1042.082031 968.726562 C 1045.210938 971.46875 1045.53125 976.21875 1042.792969 979.347656 C 1010.261719 1016.46875 969.988281 1046.605469 924.496094 1067.234375 C 880.6875 1087.101562 832.054688 1098.164062 780.855469 1098.164062 C 715.871094 1098.164062 655.015625 1080.339844 602.910156 1049.296875 C 549.003906 1017.183594 504.511719 970.949219 474.566406 915.707031 C 472.574219 912.042969 473.9375 907.453125 477.601562 905.464844 C 481.269531 903.480469 485.851562 904.835938 487.84375 908.507812 C 516.53125 961.40625 559.09375 1005.660156 610.644531 1036.363281 C 660.421875 1066.019531 718.632812 1083.058594 780.855469 1083.058594 C 829.882812 1083.058594 876.414062 1072.480469 918.296875 1053.488281 C 961.832031 1033.738281 1000.363281 1004.917969 1031.460938 969.433594 M 449.066406 720.335938 C 448.707031 724.492188 445.046875 727.570312 440.890625 727.214844 C 436.738281 726.855469 433.65625 723.191406 434.015625 719.035156 C 441.875 629.765625 483.457031 550.152344 545.9375 493 C 607.886719 436.339844 690.351562 401.769531 780.855469 401.769531 C 846.742188 401.769531 908.363281 420.082031 960.902344 451.886719 C 1015.234375 484.777344 1059.859375 532.121094 1089.453125 588.613281 C 1091.378906 592.300781 1089.949219 596.847656 1086.269531 598.765625 C 1082.585938 600.6875 1078.035156 599.261719 1076.117188 595.578125 C 1047.828125 541.585938 1005.128906 496.292969 953.117188 464.8125 C 902.863281 434.390625 843.910156 416.875 780.855469 416.875 C 694.210938 416.875 615.3125 449.921875 556.09375 504.09375 C 496.347656 558.742188 456.589844 634.90625 449.066406 720.335938 Z M 449.066406 720.335938 " fill-opacity="1" fill-rule="nonzero"/><path fill="#16ade0" d="M 193.863281 860.296875 C 430.625 800.847656 606.503906 900.273438 712.3125 915.828125 C 546.609375 914.644531 408.910156 844.710938 193.863281 860.296875 " fill-opacity="1" fill-rule="evenodd"/><path fill="#094e72" d="M 1312.0625 821.242188 C 1312.0625 821.242188 1121.429688 921.394531 795.441406 800.238281 C 999.933594 851.921875 1182.320312 840.460938 1312.0625 821.242188 " fill-opacity="1" fill-rule="evenodd"/><path fill="#094e72" d="M 1092.683594 625.855469 L 1258.144531 746.558594 L 1244.585938 756.441406 L 1092.683594 645.628906 L 940.78125 756.441406 L 927.226562 746.558594 Z M 1092.683594 625.855469 " fill-opacity="1" fill-rule="evenodd"/><path fill="#094e72" d="M 960.742188 724.855469 L 977.121094 724.855469 L 977.121094 842.265625 L 960.742188 842.265625 Z M 960.742188 724.855469 " fill-opacity="1" fill-rule="evenodd"/><path fill="#094e72" d="M 1208.246094 724.855469 L 1224.621094 724.855469 L 1224.621094 842.265625 L 1208.246094 842.265625 Z M 1208.246094 724.855469 " fill-opacity="1" fill-rule="evenodd"/><path fill="#094e72" d="M 824.15625 604.898438 C 824.15625 604.898438 797.589844 720.613281 880.394531 824.570312 L 906.660156 828.980469 C 906.660156 828.980469 822.304688 732.265625 830.953125 605.761719 Z M 824.15625 604.898438 " fill-opacity="1" fill-rule="evenodd"/><path fill="#094e72" d="M 827.554688 605.328125 C 827.554688 605.328125 887.570312 559.785156 899.3125 640.429688 C 899.3125 640.429688 875.691406 596.726562 830.953125 605.753906 L 829.171875 607.449219 Z M 827.554688 605.328125 " fill-opacity="1" fill-rule="evenodd"/><path fill="#094e72" d="M 827.554688 605.328125 C 827.554688 605.328125 789.695312 554.074219 755.398438 613.703125 C 780.734375 598.277344 799.011719 596.542969 826.152344 608.453125 Z M 827.554688 605.328125 " fill-opacity="1" fill-rule="evenodd"/><path fill="#094e72" d="M 823.652344 607.386719 C 809.878906 602.703125 785.984375 606.753906 782.742188 642.441406 C 789.382812 635.804688 815.875 613.132812 823.964844 611.402344 L 826.125 608.621094 Z M 823.652344 607.386719 " fill-opacity="1" fill-rule="evenodd"/><path fill="#094e72" d="M 826.152344 608.453125 C 829.363281 597.492188 844.234375 540.941406 879.308594 579.101562 C 861.535156 580.96875 838.566406 589.253906 830.957031 605.753906 Z M 826.152344 608.453125 " fill-opacity="1" fill-rule="evenodd"/><path fill="#094e72" d="M 827.546875 611.085938 C 827.546875 611.085938 832.796875 530.277344 777.179688 561.792969 C 777.179688 561.792969 821.773438 567.078125 823.652344 607.386719 L 826.539062 614.636719 Z M 827.546875 611.085938 " fill-opacity="1" fill-rule="evenodd"/><path fill="#094e72" d="M 894.949219 685.542969 C 894.949219 685.542969 877.9375 759.613281 930.945312 826.15625 L 947.757812 828.980469 C 947.757812 828.980469 893.761719 767.070312 899.296875 686.09375 Z M 894.949219 685.542969 " fill-opacity="1" fill-rule="evenodd"/><path fill="#094e72" d="M 897.121094 685.816406 C 897.121094 685.816406 935.539062 656.664062 943.054688 708.285156 C 943.054688 708.285156 927.933594 680.316406 899.296875 686.09375 L 898.15625 687.171875 Z M 897.121094 685.816406 " fill-opacity="1" fill-rule="evenodd"/><path fill="#094e72" d="M 897.121094 685.816406 C 897.121094 685.816406 872.890625 653.007812 850.933594 691.179688 C 867.148438 681.304688 878.851562 680.195312 896.226562 687.820312 Z M 897.121094 685.816406 " fill-opacity="1" fill-rule="evenodd"/><path fill="#094e72" d="M 894.625 687.136719 C 885.808594 684.140625 870.511719 686.734375 868.433594 709.578125 C 872.6875 705.328125 889.644531 690.820312 894.820312 689.707031 L 896.203125 687.929688 Z M 894.625 687.136719 " fill-opacity="1" fill-rule="evenodd"/><path fill="#094e72" d="M 896.222656 687.820312 C 898.277344 680.800781 907.800781 644.597656 930.242188 669.027344 C 918.871094 670.230469 904.167969 675.53125 899.296875 686.09375 Z M 896.222656 687.820312 " fill-opacity="1" fill-rule="evenodd"/><path fill="#094e72" d="M 897.113281 689.5 C 897.113281 689.5 900.472656 637.78125 864.871094 657.953125 C 864.871094 657.953125 893.417969 661.335938 894.621094 687.136719 L 896.46875 691.777344 Z M 897.113281 689.5 " fill-opacity="1" fill-rule="evenodd"/><path fill="#094e72" d="M 974.875 736.730469 L 1210.496094 736.730469 L 1210.496094 744.570312 L 974.875 744.570312 Z M 974.875 736.730469 " fill-opacity="1" fill-rule="evenodd"/><path fill="#094e72" d="M 1055.050781 736.730469 L 1062.882812 736.730469 L 1062.882812 850.863281 L 1055.050781 850.863281 Z M 1055.050781 736.730469 " fill-opacity="1" fill-rule="evenodd"/><path fill="#094e72" d="M 1122.488281 736.730469 L 1130.324219 736.730469 L 1130.324219 850.863281 L 1122.488281 850.863281 Z M 1122.488281 736.730469 " fill-opacity="1" fill-rule="evenodd"/><path fill="#094e72" d="M 989.214844 736.730469 L 992.878906 736.730469 L 992.878906 842.210938 L 989.214844 842.210938 Z M 989.214844 736.730469 " fill-opacity="1" fill-rule="evenodd"/><path fill="#094e72" d="M 1004.976562 736.730469 L 1008.640625 736.730469 L 1008.640625 842.210938 L 1004.976562 842.210938 Z M 1004.976562 736.730469 " fill-opacity="1" fill-rule="evenodd"/><path fill="#094e72" d="M 1020.734375 736.730469 L 1024.402344 736.730469 L 1024.402344 842.210938 L 1020.734375 842.210938 Z M 1020.734375 736.730469 " fill-opacity="1" fill-rule="evenodd"/><path fill="#094e72" d="M 1036.492188 736.730469 L 1040.15625 736.730469 L 1040.15625 842.210938 L 1036.492188 842.210938 Z M 1036.492188 736.730469 " fill-opacity="1" fill-rule="evenodd"/><path fill="#094e72" d="M 1145.210938 736.730469 L 1148.875 736.730469 L 1148.875 842.210938 L 1145.210938 842.210938 Z M 1145.210938 736.730469 " fill-opacity="1" fill-rule="evenodd"/><path fill="#094e72" d="M 1160.96875 736.730469 L 1164.632812 736.730469 L 1164.632812 842.210938 L 1160.96875 842.210938 Z M 1160.96875 736.730469 " fill-opacity="1" fill-rule="evenodd"/><path fill="#094e72" d="M 1176.726562 736.730469 L 1180.394531 736.730469 L 1180.394531 842.210938 L 1176.726562 842.210938 Z M 1176.726562 736.730469 " fill-opacity="1" fill-rule="evenodd"/><path fill="#094e72" d="M 1192.484375 736.730469 L 1196.152344 736.730469 L 1196.152344 842.210938 L 1192.484375 842.210938 Z M 1192.484375 736.730469 " fill-opacity="1" fill-rule="evenodd"/><g clip-path="url(#64a3882b57)"><g clip-path="url(#8451b20e38)"><path fill="url(#41dc16332c)" d="M 465.214844 585.179688 L 465.214844 789.355469 L 773.21875 789.355469 L 773.21875 585.179688 Z M 465.214844 585.179688 " fill-rule="nonzero"/></g></g><path fill="#094e72" d="M 905.027344 983.0625 C 907.265625 983.46875 908.789062 985.324219 908.441406 987.210938 C 908.097656 989.089844 906.007812 990.289062 903.777344 989.878906 C 901.550781 989.46875 900.019531 987.613281 900.367188 985.730469 C 900.710938 983.847656 902.800781 982.652344 905.027344 983.0625 M 932.976562 991.96875 C 932.976562 991.96875 901.183594 965.128906 849.425781 952.738281 C 845.980469 944.65625 835.597656 923.625 817.707031 914.800781 C 817.707031 914.800781 819.765625 929.601562 817.054688 932.570312 C 814.34375 935.546875 810.792969 937.171875 806.949219 936.253906 C 803.109375 935.328125 789.125 942.421875 784.589844 944.082031 L 786.03125 946.929688 C 784.566406 947.007812 783.089844 947.105469 781.601562 947.214844 C 777.742188 942.097656 769.148438 931.613281 760.933594 927.609375 C 749.886719 922.226562 742.609375 917.53125 743.203125 920.242188 C 743.785156 922.949219 752.425781 927.894531 752.765625 931.96875 C 753.101562 936.042969 754.273438 946.230469 735.5 952.230469 C 724.085938 955.875 724.296875 957.558594 726.210938 958.320312 C 712.714844 962.761719 698.792969 968.621094 684.53125 976.171875 C 684.53125 976.171875 682.546875 976.144531 678.449219 973.65625 C 674.34375 971.167969 654.847656 958.058594 626.160156 951.285156 C 626.160156 951.285156 642.574219 962.320312 648.707031 969.078125 C 654.839844 975.839844 662.066406 982.582031 661.484375 990.503906 C 660.898438 998.417969 654.699219 1013.332031 648.109375 1019.710938 C 641.519531 1026.097656 641.421875 1027.8125 641.421875 1027.8125 C 641.421875 1027.8125 646.617188 1023.128906 653.3125 1020.886719 C 660.011719 1018.636719 669.914062 1007.226562 674.285156 1003.476562 C 678.664062 999.71875 680.074219 992.378906 686.085938 984.261719 C 686.085938 984.261719 709.3125 984.515625 737.324219 989.671875 C 737.558594 989.785156 745.460938 993.652344 742.632812 1002.113281 C 739.757812 1010.695312 732.75 1014.613281 724.164062 1014.125 C 715.578125 1013.640625 708.972656 1016.550781 708.972656 1016.550781 C 708.972656 1016.550781 719.753906 1015.703125 724.792969 1016.628906 C 729.828125 1017.550781 743.109375 1013.695312 748.144531 1012.230469 C 753.183594 1010.773438 765.671875 1004.167969 780.148438 1006.816406 C 786.226562 1007.929688 792.085938 1008.121094 796.847656 1007.976562 C 807.738281 1012 818.628906 1015.433594 830.277344 1017.738281 C 830.699219 1019.929688 830.828125 1022.8125 829.183594 1024.464844 C 826.253906 1027.402344 820.050781 1029.304688 820.050781 1029.304688 C 820.050781 1029.304688 828.523438 1030.425781 839.246094 1028.703125 C 845.726562 1027.65625 851.710938 1023.679688 855.4375 1020.695312 C 877.261719 1021.53125 902.667969 1018.152344 935.242188 1008 C 935.242188 1008 936.257812 1006.019531 934.574219 1005.167969 C 932.882812 1004.316406 922.199219 1002.25 919.5 1003.382812 C 916.796875 1004.511719 914.878906 1007.3125 911.917969 1006.871094 C 911.917969 1006.871094 914.28125 1006.117188 916.878906 1002.902344 C 919.46875 999.6875 921.003906 997.535156 925.449219 996.9375 C 929.90625 996.34375 935.609375 994.1875 932.976562 991.96875 Z M 932.976562 991.96875 " fill-opacity="1" fill-rule="evenodd"/><g clip-path="url(#336047778d)"><path fill="#16ade0" d="M 150.160156 855.605469 C 584.507812 578.835938 848.039062 1057.242188 1349.835938 826.382812 C 921.757812 1152.242188 627.535156 690.09375 150.160156 855.605469 " fill-opacity="1" fill-rule="evenodd"/></g><g transform="matrix(1, 0, 0, 1, 315, 273)"><g clip-path="url(#3138183f01)"><g fill="#094e72" fill-opacity="1"><g transform="translate(96.330282, 375.734545)"><g><path d="M -14.0625 -42.890625 L -17.890625 -32.390625 L -7.390625 -28.578125 C -6.140625 -28.128906 -5.253906 -27.648438 -4.734375 -27.140625 C -4.066406 -26.585938 -3.554688 -25.929688 -3.203125 -25.171875 C -2.859375 -24.421875 -2.898438 -23.457031 -3.328125 -22.28125 C -3.660156 -21.375 -4.203125 -20.75 -4.953125 -20.40625 C -6.523438 -19.71875 -8.332031 -19.703125 -10.375 -20.359375 L -55.390625 -36.734375 C -55.921875 -37.003906 -56.398438 -37.257812 -56.828125 -37.5 C -57.253906 -37.738281 -57.648438 -38 -58.015625 -38.28125 C -58.597656 -38.800781 -59.09375 -39.429688 -59.5 -40.171875 C -59.90625 -40.910156 -59.929688 -41.765625 -59.578125 -42.734375 C -59.148438 -43.910156 -58.554688 -44.675781 -57.796875 -45.03125 C -56.222656 -45.707031 -54.425781 -45.679688 -52.40625 -44.953125 L -41.90625 -41.125 L -38.078125 -51.625 L -48.578125 -55.453125 C -51.753906 -56.453125 -54.722656 -56.828125 -57.484375 -56.578125 C -58.703125 -56.460938 -59.945312 -56.222656 -61.21875 -55.859375 C -62.488281 -55.492188 -63.691406 -54.929688 -64.828125 -54.171875 C -65.960938 -53.421875 -67.03125 -52.421875 -68.03125 -51.171875 C -69.03125 -49.921875 -69.875 -48.359375 -70.5625 -46.484375 C -71.238281 -44.609375 -71.597656 -42.859375 -71.640625 -41.234375 C -71.691406 -39.609375 -71.523438 -38.132812 -71.140625 -36.8125 C -70.753906 -35.488281 -70.1875 -34.296875 -69.4375 -33.234375 C -68.6875 -32.179688 -67.878906 -31.222656 -67.015625 -30.359375 C -65.054688 -28.398438 -62.539062 -26.785156 -59.46875 -25.515625 L -14.453125 -9.140625 C -11.210938 -8.117188 -8.21875 -7.734375 -5.46875 -7.984375 C -4.25 -8.097656 -3.023438 -8.320312 -1.796875 -8.65625 C -0.566406 -9 0.613281 -9.550781 1.75 -10.3125 C 4.269531 -11.832031 6.195312 -14.429688 7.53125 -18.109375 C 8.84375 -21.710938 9.019531 -24.898438 8.0625 -27.671875 C 7.675781 -28.992188 7.128906 -30.195312 6.421875 -31.28125 C 5.710938 -32.363281 4.925781 -33.335938 4.0625 -34.203125 C 2.113281 -36.160156 -0.425781 -37.785156 -3.5625 -39.078125 Z M -14.0625 -42.890625 "/></g></g></g><g fill="#094e72" fill-opacity="1"><g transform="translate(125.451694, 306.15412)"><g><path d="M 4.109375 -39.03125 L -36.875 -63.84375 C -39.789062 -65.4375 -42.625 -66.382812 -45.375 -66.6875 C -46.59375 -66.8125 -47.859375 -66.816406 -49.171875 -66.703125 C -50.492188 -66.585938 -51.785156 -66.269531 -53.046875 -65.75 C -54.304688 -65.226562 -55.550781 -64.453125 -56.78125 -63.421875 C -58.007812 -62.398438 -59.140625 -61.035156 -60.171875 -59.328125 C -61.203125 -57.617188 -61.894531 -55.96875 -62.25 -54.375 C -62.613281 -52.789062 -62.738281 -51.316406 -62.625 -49.953125 C -62.5 -48.578125 -62.171875 -47.300781 -61.640625 -46.125 C -61.109375 -44.945312 -60.503906 -43.847656 -59.828125 -42.828125 C -58.296875 -40.515625 -56.144531 -38.4375 -53.375 -36.59375 L -12.390625 -11.78125 C -9.421875 -10.144531 -6.554688 -9.1875 -3.796875 -8.90625 C -2.585938 -8.78125 -1.347656 -8.757812 -0.078125 -8.84375 C 1.191406 -8.9375 2.457031 -9.25 3.71875 -9.78125 C 6.488281 -10.769531 8.882812 -12.9375 10.90625 -16.28125 C 12.894531 -19.5625 13.691406 -22.660156 13.296875 -25.578125 C 13.171875 -26.941406 12.863281 -28.222656 12.375 -29.421875 C 11.894531 -30.628906 11.320312 -31.742188 10.65625 -32.765625 C 9.113281 -35.054688 6.929688 -37.144531 4.109375 -39.03125 Z M -43.0625 -53.625 L -2.078125 -28.8125 C -0.953125 -28.125 -0.175781 -27.484375 0.25 -26.890625 C 0.832031 -26.273438 1.226562 -25.578125 1.4375 -24.796875 C 1.644531 -24.015625 1.484375 -23.1875 0.953125 -22.3125 C 0.453125 -21.488281 -0.195312 -20.976562 -1 -20.78125 C -2.644531 -20.488281 -4.378906 -20.894531 -6.203125 -22 L -47.1875 -46.8125 C -48.195312 -47.425781 -48.96875 -48.066406 -49.5 -48.734375 C -50.019531 -49.304688 -50.40625 -49.988281 -50.65625 -50.78125 C -50.914062 -51.582031 -50.78125 -52.425781 -50.25 -53.3125 C -49.71875 -54.1875 -49.039062 -54.726562 -48.21875 -54.9375 C -46.613281 -55.175781 -44.894531 -54.738281 -43.0625 -53.625 Z M -43.0625 -53.625 "/></g></g></g><g fill="#094e72" fill-opacity="1"><g transform="translate(167.937731, 242.907152)"><g><path d="M 0.75 -0.8125 L 8.609375 -9.359375 L -2.09375 -22.21875 L 5.703125 -30.6875 L 19.40625 -21.078125 L 27.265625 -29.625 L -40.890625 -75.671875 L -50.78125 -64.9375 Z M -25.90625 -52.875 L -4.703125 -38.015625 L -10.25 -31.984375 L -26.8125 -51.890625 L -28.140625 -53.578125 L -27.6875 -54.0625 Z M -25.90625 -52.875 "/></g></g></g><g fill="#094e72" fill-opacity="1"><g transform="translate(223.820787, 187.866264)"><g><path d="M -15.421875 -62.390625 L -6.578125 -70.171875 C -7.921875 -72.023438 -9.503906 -73.859375 -11.328125 -75.671875 C -13.148438 -77.492188 -15.195312 -78.957031 -17.46875 -80.0625 C -19.664062 -81.101562 -22.046875 -81.53125 -24.609375 -81.34375 C -27.171875 -81.164062 -29.894531 -79.988281 -32.78125 -77.8125 C -35 -76.09375 -36.578125 -74.1875 -37.515625 -72.09375 C -38.453125 -70.007812 -38.910156 -67.882812 -38.890625 -65.71875 C -38.816406 -63.476562 -38.34375 -61.285156 -37.46875 -59.140625 C -36.59375 -57.003906 -35.503906 -55.039062 -34.203125 -53.25 C -32.898438 -51.457031 -31.351562 -49.890625 -29.5625 -48.546875 C -26.132812 -45.847656 -22.078125 -43.597656 -17.390625 -41.796875 C -15.109375 -40.910156 -12.914062 -40.085938 -10.8125 -39.328125 C -8.71875 -38.578125 -6.695312 -37.863281 -4.75 -37.1875 C -3.789062 -36.875 -2.875 -36.53125 -2 -36.15625 C -1.132812 -35.78125 -0.257812 -35.410156 0.625 -35.046875 C 2.289062 -34.265625 3.804688 -33.4375 5.171875 -32.5625 C 6.546875 -31.6875 7.625 -30.710938 8.40625 -29.640625 C 9.914062 -27.546875 10.875 -25.597656 11.28125 -23.796875 C 11.6875 -21.992188 11.171875 -20.570312 9.734375 -19.53125 C 8.722656 -18.789062 7.675781 -18.53125 6.59375 -18.75 C 5.519531 -18.976562 4.445312 -19.523438 3.375 -20.390625 C 2.28125 -21.140625 1.195312 -22.148438 0.125 -23.421875 C -0.9375 -24.703125 -1.960938 -26.023438 -2.953125 -27.390625 L -11.796875 -19.609375 C -10.015625 -17.160156 -8.125 -14.90625 -6.125 -12.84375 C -4.125 -10.789062 -2 -9.21875 0.25 -8.125 C 2.570312 -7.0625 5.03125 -6.65625 7.625 -6.90625 C 10.226562 -7.15625 13.082031 -8.410156 16.1875 -10.671875 C 18.8125 -12.578125 20.648438 -14.617188 21.703125 -16.796875 C 22.753906 -18.984375 23.25 -21.195312 23.1875 -23.4375 C 23.070312 -25.71875 22.503906 -27.988281 21.484375 -30.25 C 20.472656 -32.519531 19.164062 -34.757812 17.5625 -36.96875 C 16.257812 -38.769531 14.722656 -40.328125 12.953125 -41.640625 C 11.179688 -42.953125 9.269531 -44.132812 7.21875 -45.1875 C 5.164062 -46.257812 2.992188 -47.238281 0.703125 -48.125 C -1.578125 -49.007812 -3.894531 -49.878906 -6.25 -50.734375 C -8.207031 -51.410156 -10.109375 -52.078125 -11.953125 -52.734375 C -13.796875 -53.390625 -15.535156 -54.085938 -17.171875 -54.828125 C -18.796875 -55.554688 -20.253906 -56.335938 -21.546875 -57.171875 C -22.835938 -58.015625 -23.894531 -59.003906 -24.71875 -60.140625 C -26.101562 -62.046875 -26.988281 -63.769531 -27.375 -65.3125 C -27.769531 -66.851562 -27.363281 -68.109375 -26.15625 -69.078125 C -25.382812 -69.640625 -24.535156 -69.820312 -23.609375 -69.625 C -22.691406 -69.4375 -21.757812 -69 -20.8125 -68.3125 C -19.820312 -67.570312 -18.867188 -66.664062 -17.953125 -65.59375 C -17.046875 -64.53125 -16.203125 -63.460938 -15.421875 -62.390625 Z M -15.421875 -62.390625 "/></g></g></g><g fill="#094e72" fill-opacity="1"><g transform="translate(286.798784, 146.635497)"><g><path d="M -29.09375 -62.609375 L -18.890625 -67.390625 L 10.40625 -4.875 L 21.234375 -9.953125 L -8.0625 -72.46875 L 2.15625 -77.25 L -3.0625 -88.375 L -34.3125 -73.734375 Z M -29.09375 -62.609375 "/></g></g></g><g fill="#094e72" fill-opacity="1"><g transform="translate(353.483041, 119.034287)"><g><path d="M 1.078125 -0.265625 L 12.34375 -3.0625 L 10.5 -19.71875 L 21.65625 -22.484375 L 27.8125 -6.921875 L 39.078125 -9.71875 L 7.53125 -85.671875 L -6.625 -82.15625 Z M 7.484375 -58.40625 L 17 -34.328125 L 9.0625 -32.34375 L 6.1875 -58.078125 L 6 -60.21875 L 6.640625 -60.375 Z M 7.484375 -58.40625 "/></g></g></g><g fill="#094e72" fill-opacity="1"><g transform="translate(430.666442, 103.949739)"><g><path d="M 0.1875 -81.453125 L 4.421875 -0.234375 L 32.15625 -1.671875 L 31.578125 -12.71875 L 15.78125 -11.890625 L 12.125 -82.0625 Z M 0.1875 -81.453125 "/></g></g></g><g fill="#094e72" fill-opacity="1"><g transform="translate(501.579261, 104.015432)"><g/></g></g><g fill="#094e72" fill-opacity="1"><g transform="translate(556.018238, 112.366681)"><g><path d="M 4.25 1.234375 L 18.375 5.34375 C 21.820312 6.195312 24.878906 6.316406 27.546875 5.703125 C 30.210938 5.097656 32.507812 4.003906 34.4375 2.421875 C 36.382812 0.753906 38.007812 -1.269531 39.3125 -3.65625 C 40.625 -6.050781 41.703125 -8.695312 42.546875 -11.59375 C 43.703125 -15.5625 44.207031 -18.867188 44.0625 -21.515625 C 43.832031 -26.816406 42.519531 -30.65625 40.125 -33.03125 C 41.832031 -33.84375 43.3125 -34.679688 44.5625 -35.546875 C 45.8125 -36.410156 46.90625 -37.398438 47.84375 -38.515625 C 48.769531 -39.628906 49.550781 -40.878906 50.1875 -42.265625 C 50.820312 -43.660156 51.410156 -45.28125 51.953125 -47.125 C 53.078125 -51.007812 53.582031 -54.390625 53.46875 -57.265625 C 53.351562 -60.148438 52.644531 -62.660156 51.34375 -64.796875 C 50.050781 -66.953125 48.191406 -68.765625 45.765625 -70.234375 C 43.347656 -71.703125 40.441406 -72.929688 37.046875 -73.921875 L 26.953125 -76.859375 Z M 29.0625 -41.3125 L 35.125 -62.140625 C 35.625 -61.992188 36.359375 -61.742188 37.328125 -61.390625 C 38.296875 -61.035156 39.148438 -60.398438 39.890625 -59.484375 C 40.691406 -58.566406 41.203125 -57.304688 41.421875 -55.703125 C 41.648438 -54.097656 41.375 -51.953125 40.59375 -49.265625 C 39.8125 -46.566406 38.894531 -44.601562 37.84375 -43.375 C 36.800781 -42.15625 35.691406 -41.363281 34.515625 -41 C 33.398438 -40.632812 32.335938 -40.554688 31.328125 -40.765625 C 30.316406 -40.984375 29.5625 -41.164062 29.0625 -41.3125 Z M 19.03125 -6.796875 L 26 -30.796875 C 26.5 -30.648438 27.238281 -30.414062 28.21875 -30.09375 C 29.195312 -29.769531 30.050781 -29.117188 30.78125 -28.140625 C 31.5625 -27.148438 32.023438 -25.726562 32.171875 -23.875 C 32.328125 -22.019531 31.941406 -19.503906 31.015625 -16.328125 C 30.085938 -13.140625 29.0625 -10.804688 27.9375 -9.328125 C 26.820312 -7.847656 25.664062 -6.898438 24.46875 -6.484375 C 23.34375 -6.046875 22.28125 -5.953125 21.28125 -6.203125 C 20.28125 -6.453125 19.53125 -6.648438 19.03125 -6.796875 Z M 19.03125 -6.796875 "/></g></g></g><g fill="#094e72" fill-opacity="1"><g transform="translate(629.125603, 137.493455)"><g><path d="M 22.84375 11.953125 L 33.4375 17.5 L 44.921875 -20.953125 C 47.671875 -21.265625 50.296875 -22.65625 52.796875 -25.125 C 55.296875 -27.601562 57.488281 -30.640625 59.375 -34.234375 C 62.925781 -41.035156 64.203125 -46.945312 63.203125 -51.96875 C 62.210938 -56.988281 58.550781 -61.15625 52.21875 -64.46875 L 41.625 -70.015625 L 3.921875 2.046875 L 14.515625 7.59375 L 30.421875 -22.796875 L 33.25 -21.3125 Z M 35.546875 -32.59375 L 46.734375 -53.96875 C 47.453125 -53.59375 48.234375 -53.097656 49.078125 -52.484375 C 49.921875 -51.878906 50.546875 -51.015625 50.953125 -49.890625 C 51.398438 -48.816406 51.515625 -47.398438 51.296875 -45.640625 C 51.078125 -43.890625 50.300781 -41.738281 48.96875 -39.1875 C 47.632812 -36.644531 46.320312 -34.8125 45.03125 -33.6875 C 43.738281 -32.5625 42.515625 -31.851562 41.359375 -31.5625 C 40.234375 -31.3125 39.160156 -31.328125 38.140625 -31.609375 C 37.128906 -31.890625 36.265625 -32.21875 35.546875 -32.59375 Z M 35.546875 -32.59375 "/></g></g></g><g fill="#094e72" fill-opacity="1"><g transform="translate(695.66555, 176.663839)"><g><path d="M 54.1875 -60.796875 L 3.453125 2.765625 L 24.8125 19.8125 L 32.46875 10.21875 L 20.453125 0.625 L 34.40625 -16.84375 L 43.046875 -9.9375 L 51.1875 -20.140625 L 42.546875 -27.046875 L 55.875 -43.734375 L 67.890625 -34.140625 L 75.546875 -43.75 Z M 54.1875 -60.796875 "/></g></g></g><g fill="#094e72" fill-opacity="1"><g transform="translate(749.318718, 223.932208)"><g><path d="M 64.4375 -49.828125 L 2.890625 3.34375 L 20.75 24.03125 L 30.046875 16 L 20 4.359375 L 36.90625 -10.25 L 44.140625 -1.875 L 54.03125 -10.40625 L 46.796875 -18.78125 L 62.953125 -32.75 L 73 -21.109375 L 82.296875 -29.140625 Z M 64.4375 -49.828125 "/></g></g></g><g fill="#094e72" fill-opacity="1"><g transform="translate(793.390846, 280.243687)"><g><path d="M 11.640625 -5.515625 L 0.5625 0.953125 L 16.5 28.296875 L 26.734375 22.328125 L 17.140625 5.875 L 76.515625 -6.71875 L 86.75 -12.671875 L 72.140625 -37.71875 L 61.90625 -31.765625 L 69.984375 -17.921875 Z M 11.640625 -5.515625 "/></g></g></g><g fill="#094e72" fill-opacity="1"><g transform="translate(826.333214, 343.59598)"><g><path d="M 78.0625 -23.234375 L 1.484375 4.15625 L 10.6875 29.890625 L 22.25 25.75 L 17.078125 11.28125 L 38.109375 3.765625 L 41.828125 14.171875 L 54.140625 9.765625 L 50.421875 -0.640625 L 70.53125 -7.828125 L 75.703125 6.640625 L 87.265625 2.5 Z M 78.0625 -23.234375 "/></g></g></g></g></g><g transform="matrix(1, 0, 0, 1, 502, 1064)"><g clip-path="url(#e537f3abbd)"><g fill="#094e72" fill-opacity="1"><g transform="translate(8.440433, 63.982406)"><g><path d="M 29.640625 -10.25 L 22.3125 -12.796875 L 19.78125 -5.453125 C 19.476562 -4.578125 19.15625 -3.957031 18.8125 -3.59375 C 18.4375 -3.113281 17.984375 -2.75 17.453125 -2.5 C 16.929688 -2.25 16.265625 -2.265625 15.453125 -2.546875 C 14.816406 -2.765625 14.367188 -3.132812 14.109375 -3.65625 C 13.617188 -4.75 13.597656 -6.003906 14.046875 -7.421875 L 24.921875 -38.875 C 25.085938 -39.25 25.25 -39.585938 25.40625 -39.890625 C 25.5625 -40.191406 25.742188 -40.46875 25.953125 -40.71875 C 26.316406 -41.132812 26.75 -41.484375 27.25 -41.765625 C 27.75 -42.054688 28.34375 -42.082031 29.03125 -41.84375 C 29.84375 -41.5625 30.375 -41.160156 30.625 -40.640625 C 31.125 -39.554688 31.132812 -38.3125 30.65625 -36.90625 L 28.109375 -29.578125 L 35.4375 -27.03125 L 37.984375 -34.359375 C 38.640625 -36.566406 38.859375 -38.628906 38.640625 -40.546875 C 38.554688 -41.390625 38.382812 -42.25 38.125 -43.125 C 37.863281 -44.007812 37.460938 -44.84375 36.921875 -45.625 C 36.367188 -46.40625 35.65625 -47.132812 34.78125 -47.8125 C 33.90625 -48.5 32.816406 -49.066406 31.515625 -49.515625 C 30.210938 -49.972656 28.988281 -50.207031 27.84375 -50.21875 C 26.707031 -50.238281 25.6875 -50.109375 24.78125 -49.828125 C 23.875 -49.546875 23.050781 -49.132812 22.3125 -48.59375 C 21.582031 -48.0625 20.925781 -47.488281 20.34375 -46.875 C 19.007812 -45.5 17.914062 -43.738281 17.0625 -41.59375 L 6.1875 -10.140625 C 5.519531 -7.878906 5.285156 -5.789062 5.484375 -3.875 C 5.566406 -3.03125 5.734375 -2.1875 5.984375 -1.34375 C 6.242188 -0.5 6.640625 0.3125 7.171875 1.09375 C 8.265625 2.820312 10.09375 4.132812 12.65625 5.03125 C 15.164062 5.894531 17.382812 5.984375 19.3125 5.296875 C 20.226562 5.015625 21.054688 4.625 21.796875 4.125 C 22.535156 3.625 23.195312 3.066406 23.78125 2.453125 C 25.132812 1.078125 26.242188 -0.707031 27.109375 -2.90625 Z M 29.640625 -10.25 "/></g></g></g><g fill="#094e72" fill-opacity="1"><g transform="translate(94.921581, 90.058779)"><g><path d="M 17.484375 3.875 L 25.578125 5.671875 L 26.328125 -22.171875 C 28.117188 -22.878906 29.628906 -24.289062 30.859375 -26.40625 C 32.085938 -28.519531 33.003906 -30.957031 33.609375 -33.71875 C 34.765625 -38.914062 34.550781 -43.101562 32.96875 -46.28125 C 31.394531 -49.46875 28.1875 -51.597656 23.34375 -52.671875 L 15.234375 -54.46875 L 3 0.671875 L 11.109375 2.46875 L 16.265625 -20.796875 L 18.4375 -20.3125 Z M 17.9375 -28.296875 L 21.5625 -44.65625 C 22.101562 -44.539062 22.710938 -44.351562 23.390625 -44.09375 C 24.078125 -43.832031 24.660156 -43.359375 25.140625 -42.671875 C 25.617188 -42.046875 25.945312 -41.125 26.125 -39.90625 C 26.3125 -38.6875 26.1875 -37.097656 25.75 -35.140625 C 25.3125 -33.191406 24.757812 -31.726562 24.09375 -30.75 C 23.4375 -29.769531 22.75 -29.066406 22.03125 -28.640625 C 21.3125 -28.273438 20.582031 -28.097656 19.84375 -28.109375 C 19.113281 -28.117188 18.476562 -28.179688 17.9375 -28.296875 Z M 17.9375 -28.296875 "/></g></g></g><g fill="#094e72" fill-opacity="1"><g transform="translate(184.97336, 106.279739)"><g><path d="M 30.796875 -53.609375 L 22.53125 -54.453125 L 17.921875 -9.8125 C 17.828125 -8.894531 17.660156 -8.21875 17.421875 -7.78125 C 17.203125 -7.238281 16.878906 -6.78125 16.453125 -6.40625 C 16.035156 -6.03125 15.46875 -5.882812 14.75 -5.96875 C 14.09375 -6.03125 13.582031 -6.285156 13.21875 -6.734375 C 12.539062 -7.691406 12.273438 -8.910156 12.421875 -10.390625 L 17.03125 -55.03125 L 8.78125 -55.875 L 4.171875 -11.234375 C 4.035156 -8.867188 4.285156 -6.78125 4.921875 -4.96875 C 5.191406 -4.175781 5.546875 -3.394531 5.984375 -2.625 C 6.421875 -1.863281 6.992188 -1.164062 7.703125 -0.53125 C 9.148438 0.914062 11.222656 1.773438 13.921875 2.046875 C 16.578125 2.328125 18.757812 1.90625 20.46875 0.78125 C 21.289062 0.3125 22.003906 -0.25 22.609375 -0.90625 C 23.222656 -1.5625 23.75 -2.253906 24.1875 -2.984375 C 25.1875 -4.628906 25.851562 -6.625 26.1875 -8.96875 Z M 30.796875 -53.609375 "/></g></g></g><g fill="#094e72" fill-opacity="1"><g transform="translate(276.504086, 111.948573)"><g><path d="M 2.859375 -56.5 L 3.078125 -0.015625 L 11.375 -0.046875 L 11.15625 -56.53125 Z M 2.859375 -56.5 "/></g></g></g><g fill="#094e72" fill-opacity="1"><g transform="translate(354.46018, 108.59861)"><g><path d="M 12.203125 -42.9375 L 20.21875 -44.609375 C 20.039062 -46.179688 19.71875 -47.832031 19.25 -49.5625 C 18.78125 -51.289062 18.050781 -52.867188 17.0625 -54.296875 C 16.082031 -55.691406 14.785156 -56.773438 13.171875 -57.546875 C 11.566406 -58.328125 9.523438 -58.554688 7.046875 -58.234375 C 5.109375 -57.960938 3.492188 -57.351562 2.203125 -56.40625 C 0.921875 -55.46875 -0.0820312 -54.34375 -0.8125 -53.03125 C -1.53125 -51.65625 -2 -50.171875 -2.21875 -48.578125 C -2.4375 -46.984375 -2.457031 -45.425781 -2.28125 -43.90625 C -2.113281 -42.375 -1.71875 -40.898438 -1.09375 -39.484375 C 0.03125 -36.660156 1.695312 -33.898438 3.90625 -31.203125 C 4.988281 -29.878906 6.03125 -28.628906 7.03125 -27.453125 C 8.039062 -26.273438 9.015625 -25.144531 9.953125 -24.0625 C 10.421875 -23.550781 10.851562 -23.03125 11.25 -22.5 C 11.644531 -21.976562 12.050781 -21.460938 12.46875 -20.953125 C 13.207031 -19.878906 13.835938 -18.84375 14.359375 -17.84375 C 14.878906 -16.851562 15.1875 -15.898438 15.28125 -14.984375 C 15.476562 -13.203125 15.382812 -11.695312 15 -10.46875 C 14.625 -9.238281 13.828125 -8.554688 12.609375 -8.421875 C 11.734375 -8.328125 11.007812 -8.53125 10.4375 -9.03125 C 9.875 -9.539062 9.414062 -10.238281 9.0625 -11.125 C 8.65625 -11.957031 8.347656 -12.941406 8.140625 -14.078125 C 7.941406 -15.210938 7.78125 -16.375 7.65625 -17.5625 L -0.359375 -15.890625 C -0.128906 -13.804688 0.234375 -11.796875 0.734375 -9.859375 C 1.234375 -7.929688 1.972656 -6.242188 2.953125 -4.796875 C 3.984375 -3.367188 5.320312 -2.28125 6.96875 -1.53125 C 8.625 -0.789062 10.78125 -0.566406 13.4375 -0.859375 C 15.675781 -1.109375 17.492188 -1.707031 18.890625 -2.65625 C 20.285156 -3.601562 21.335938 -4.765625 22.046875 -6.140625 C 22.773438 -7.554688 23.222656 -9.125 23.390625 -10.84375 C 23.566406 -12.570312 23.550781 -14.378906 23.34375 -16.265625 C 23.175781 -17.785156 22.78125 -19.242188 22.15625 -20.640625 C 21.539062 -22.046875 20.796875 -23.421875 19.921875 -24.765625 C 19.054688 -26.117188 18.082031 -27.457031 17 -28.78125 C 15.925781 -30.113281 14.828125 -31.4375 13.703125 -32.75 C 12.765625 -33.820312 11.851562 -34.878906 10.96875 -35.921875 C 10.082031 -36.960938 9.273438 -37.976562 8.546875 -38.96875 C 7.816406 -39.976562 7.207031 -40.957031 6.71875 -41.90625 C 6.226562 -42.863281 5.929688 -43.828125 5.828125 -44.796875 C 5.640625 -46.421875 5.691406 -47.765625 5.984375 -48.828125 C 6.273438 -49.890625 6.957031 -50.507812 8.03125 -50.6875 C 8.6875 -50.757812 9.253906 -50.578125 9.734375 -50.140625 C 10.222656 -49.703125 10.640625 -49.117188 10.984375 -48.390625 C 11.335938 -47.585938 11.601562 -46.707031 11.78125 -45.75 C 11.96875 -44.800781 12.109375 -43.863281 12.203125 -42.9375 Z M 12.203125 -42.9375 "/></g></g></g><g fill="#094e72" fill-opacity="1"><g transform="translate(443.491241, 95.139419)"><g><path d="M -9.40625 -55.78125 L 3 -0.671875 L 21.53125 -4.84375 L 19.65625 -13.171875 L 9.21875 -10.828125 L 5.8125 -25.96875 L 13.3125 -27.65625 L 11.328125 -36.5 L 3.828125 -34.8125 L 0.5625 -49.28125 L 11 -51.625 L 9.125 -59.953125 Z M -9.40625 -55.78125 "/></g></g></g><g fill="#094e72" fill-opacity="1"><g transform="translate(527.812568, 72.612243)"><g><path d="M 2.390625 -44.578125 L 9.84375 -47.984375 C 9.320312 -49.484375 8.640625 -51.019531 7.796875 -52.59375 C 6.953125 -54.175781 5.890625 -55.554688 4.609375 -56.734375 C 3.347656 -57.867188 1.847656 -58.640625 0.109375 -59.046875 C -1.617188 -59.453125 -3.664062 -59.21875 -6.03125 -58.34375 C -7.851562 -57.664062 -9.285156 -56.722656 -10.328125 -55.515625 C -11.378906 -54.304688 -12.113281 -52.976562 -12.53125 -51.53125 C -12.9375 -50.03125 -13.066406 -48.476562 -12.921875 -46.875 C -12.773438 -45.28125 -12.453125 -43.757812 -11.953125 -42.3125 C -11.453125 -40.851562 -10.734375 -39.503906 -9.796875 -38.265625 C -8.078125 -35.753906 -5.847656 -33.429688 -3.109375 -31.296875 C -1.765625 -30.242188 -0.472656 -29.253906 0.765625 -28.328125 C 2.015625 -27.398438 3.222656 -26.515625 4.390625 -25.671875 C 4.953125 -25.273438 5.476562 -24.863281 5.96875 -24.4375 C 6.46875 -24.019531 6.984375 -23.601562 7.515625 -23.1875 C 8.472656 -22.3125 9.3125 -21.445312 10.03125 -20.59375 C 10.757812 -19.738281 11.28125 -18.875 11.59375 -18 C 12.175781 -16.300781 12.414062 -14.8125 12.3125 -13.53125 C 12.21875 -12.25 11.59375 -11.40625 10.4375 -11 C 9.601562 -10.71875 8.851562 -10.757812 8.1875 -11.125 C 7.519531 -11.488281 6.914062 -12.066406 6.375 -12.859375 C 5.800781 -13.578125 5.289062 -14.46875 4.84375 -15.53125 C 4.394531 -16.59375 3.976562 -17.6875 3.59375 -18.8125 L -3.859375 -15.40625 C -3.171875 -13.425781 -2.375 -11.550781 -1.46875 -9.78125 C -0.5625 -8.007812 0.53125 -6.523438 1.8125 -5.328125 C 3.132812 -4.171875 4.6875 -3.410156 6.46875 -3.046875 C 8.25 -2.691406 10.398438 -2.945312 12.921875 -3.8125 C 15.046875 -4.550781 16.679688 -5.535156 17.828125 -6.765625 C 18.972656 -8.003906 19.75 -9.375 20.15625 -10.875 C 20.539062 -12.414062 20.625 -14.046875 20.40625 -15.765625 C 20.195312 -17.484375 19.78125 -19.238281 19.15625 -21.03125 C 18.65625 -22.476562 17.945312 -23.816406 17.03125 -25.046875 C 16.113281 -26.273438 15.085938 -27.445312 13.953125 -28.5625 C 12.804688 -29.6875 11.554688 -30.773438 10.203125 -31.828125 C 8.859375 -32.890625 7.5 -33.9375 6.125 -34.96875 C 4.96875 -35.8125 3.84375 -36.640625 2.75 -37.453125 C 1.65625 -38.273438 0.640625 -39.09375 -0.296875 -39.90625 C -1.234375 -40.71875 -2.046875 -41.535156 -2.734375 -42.359375 C -3.421875 -43.179688 -3.925781 -44.054688 -4.25 -44.984375 C -4.78125 -46.523438 -5.019531 -47.84375 -4.96875 -48.9375 C -4.925781 -50.039062 -4.398438 -50.796875 -3.390625 -51.203125 C -2.753906 -51.421875 -2.15625 -51.367188 -1.59375 -51.046875 C -1.03125 -50.722656 -0.5 -50.242188 0 -49.609375 C 0.519531 -48.921875 0.972656 -48.128906 1.359375 -47.234375 C 1.742188 -46.335938 2.085938 -45.453125 2.390625 -44.578125 Z M 2.390625 -44.578125 "/></g></g></g></g></g></svg>