<svg xmlns="http://www.w3.org/2000/svg" xmlns:xlink="http://www.w3.org/1999/xlink" zoomAndPan="magnify" viewBox="0 0 1500 1499.999933"  preserveAspectRatio="xMidYMid meet" version="1.0"><defs><g/><clipPath id="5852b733b5"><path d="M 415.832031 440.382812 L 1084 440.382812 L 1084 751.617188 L 415.832031 751.617188 Z M 415.832031 440.382812 " clip-rule="nonzero"/></clipPath><clipPath id="52128ae022"><path d="M 786.496094 444.917969 L 991.53125 491.042969 C 1014.652344 496.246094 1034.15625 511.667969 1044.546875 532.96875 L 1079.867188 605.375 C 1089.136719 624.378906 1082.1875 647.316406 1063.929688 657.980469 L 936 732.707031 C 914.796875 745.089844 890.6875 751.617188 866.136719 751.617188 L 633.699219 751.617188 C 609.148438 751.617188 585.035156 745.089844 563.835938 732.707031 L 435.90625 657.980469 C 417.648438 647.316406 410.699219 624.378906 419.96875 605.375 L 455.289062 532.96875 C 465.679688 511.667969 485.183594 496.246094 508.304688 491.042969 L 713.339844 444.917969 C 737.425781 439.503906 762.410156 439.503906 786.496094 444.917969 Z M 786.496094 444.917969 " clip-rule="nonzero"/></clipPath><clipPath id="19b465f22a"><path d="M 0.832031 0.382812 L 669 0.382812 L 669 311.617188 L 0.832031 311.617188 Z M 0.832031 0.382812 " clip-rule="nonzero"/></clipPath><clipPath id="157df695fc"><path d="M 371.496094 4.917969 L 576.53125 51.042969 C 599.652344 56.246094 619.15625 71.667969 629.546875 92.96875 L 664.867188 165.375 C 674.136719 184.378906 667.1875 207.316406 648.929688 217.980469 L 521 292.707031 C 499.796875 305.089844 475.6875 311.617188 451.136719 311.617188 L 218.699219 311.617188 C 194.148438 311.617188 170.035156 305.089844 148.835938 292.707031 L 20.90625 217.980469 C 2.648438 207.316406 -4.300781 184.378906 4.96875 165.375 L 40.289062 92.96875 C 50.679688 71.667969 70.183594 56.246094 93.304688 51.042969 L 298.339844 4.917969 C 322.425781 -0.496094 347.410156 -0.496094 371.496094 4.917969 Z M 371.496094 4.917969 " clip-rule="nonzero"/></clipPath><clipPath id="a27b771bf4"><rect x="0" width="669" y="0" height="312"/></clipPath><clipPath id="3c14905ab3"><path d="M 431.890625 490.933594 L 1063 490.933594 L 1063 765.1875 L 431.890625 765.1875 Z M 431.890625 490.933594 " clip-rule="nonzero"/></clipPath><clipPath id="a226b02afe"><path d="M 431.890625 557 L 855 557 L 855 765.1875 L 431.890625 765.1875 Z M 431.890625 557 " clip-rule="nonzero"/></clipPath></defs><rect x="-150" width="1800" fill="#ffffff" y="-149.999993" height="1799.99992" fill-opacity="1"/><rect x="-150" width="1800" fill="#ffffff" y="-149.999993" height="1799.99992" fill-opacity="1"/><g clip-path="url(#5852b733b5)"><g clip-path="url(#52128ae022)"><g transform="matrix(1, 0, 0, 1, 415, 440)"><g clip-path="url(#a27b771bf4)"><g clip-path="url(#19b465f22a)"><g clip-path="url(#157df695fc)"><path fill="#bd9e7a" d="M -11.46875 -3.308594 L 681.121094 -3.308594 L 681.121094 311.617188 L -11.46875 311.617188 Z M -11.46875 -3.308594 " fill-opacity="1" fill-rule="nonzero"/></g></g></g></g></g></g><path fill="#ffbd59" d="M 795.441406 555.351562 C 836.863281 555.351562 870.609375 589.09375 870.609375 630.894531 C 870.609375 672.320312 836.863281 706.0625 795.441406 706.0625 C 753.640625 706.0625 719.894531 672.320312 719.894531 630.894531 C 719.894531 589.09375 753.640625 555.351562 795.441406 555.351562 Z M 795.441406 555.351562 " fill-opacity="1" fill-rule="evenodd"/><g clip-path="url(#3c14905ab3)"><path fill="#ffffff" d="M 431.890625 765.121094 C 431.890625 765.121094 827.660156 765.121094 854.5 765.121094 C 881.335938 765.121094 913.554688 719.097656 924.296875 681.898438 C 935.035156 644.699219 928.128906 619.007812 928.128906 619.007812 C 928.128906 619.007812 954.210938 628.601562 981.046875 620.15625 C 1007.898438 611.332031 1037.421875 638.953125 1050.84375 636.644531 C 1064.269531 634.335938 1068.101562 600.214844 1049.308594 587.558594 C 1030.511719 575.28125 1006.738281 571.449219 984.5 551.128906 C 972.613281 539.617188 958.042969 531.953125 941.933594 531.183594 L 907.808594 490.921875 C 907.808594 490.921875 895.152344 517.003906 902.058594 542.695312 L 900.914062 543.460938 C 868.707031 564.941406 866.398438 665.800781 834.191406 684.582031 C 801.984375 703.378906 752.507812 661.578125 721.054688 617.472656 C 660.835938 532.34375 647.035156 545.757812 581.066406 609.414062 C 515.113281 673.464844 431.890625 765.121094 431.890625 765.121094 Z M 431.890625 765.121094 " fill-opacity="1" fill-rule="evenodd"/></g><g clip-path="url(#a226b02afe)"><path fill="#ffffff" d="M 431.890625 765.121094 L 755.554688 765.121094 C 830.722656 731.375 854.5 655.832031 854.5 655.832031 C 848.75 668.863281 842.613281 679.605469 834.179688 684.597656 C 801.972656 703.390625 752.492188 661.589844 721.042969 617.484375 C 660.835938 532.34375 647.035156 545.757812 581.066406 609.414062 C 515.113281 673.464844 431.890625 765.121094 431.890625 765.121094 Z M 431.890625 765.121094 " fill-opacity="1" fill-rule="evenodd"/></g><g fill="#ab8860" fill-opacity="1"><g transform="translate(151.60672, 901.169782)"><g><path d="M 85.6875 -43.4375 C 85.6875 -26.957031 81.046875 -15.476562 71.765625 -9 C 63.203125 -3 51.441406 0 36.484375 0 L 2.515625 0 L 2.515625 -2.28125 L 10.4375 -2.28125 L 10.4375 -81.71875 L 2.515625 -81.71875 L 2.515625 -84 L 39.59375 -84 C 54.957031 -84 66.476562 -80.859375 74.15625 -74.578125 C 81.84375 -68.296875 85.6875 -57.914062 85.6875 -43.4375 Z M 33.84375 -2.28125 L 38.40625 -2.28125 C 46.476562 -2.28125 52.253906 -5.140625 55.734375 -10.859375 C 59.210938 -16.578125 60.953125 -26.15625 60.953125 -39.59375 L 60.953125 -46.5625 C 60.953125 -64.5625 57.515625 -75.398438 50.640625 -79.078125 C 47.359375 -80.835938 42.71875 -81.71875 36.71875 -81.71875 L 33.84375 -81.71875 Z M 33.84375 -2.28125 "/></g></g></g><g fill="#ab8860" fill-opacity="1"><g transform="translate(266.206758, 901.169782)"><g><path d="M 2.515625 -84 L 64.921875 -84 L 66.125 -60.234375 L 63.953125 -60.234375 C 60.597656 -68.316406 57.078125 -73.859375 53.390625 -76.859375 C 49.710938 -79.859375 44.316406 -81.359375 37.203125 -81.359375 L 33 -81.359375 L 33 -44.28125 L 37.078125 -44.28125 C 40.835938 -44.28125 44 -45.695312 46.5625 -48.53125 C 49.125 -51.375 50.921875 -55.195312 51.953125 -60 L 53.765625 -60 L 53.765625 -24.484375 L 51.71875 -24.484375 C 50.28125 -30.484375 48.335938 -34.757812 45.890625 -37.3125 C 43.453125 -39.875 40.113281 -41.15625 35.875 -41.15625 L 33 -41.15625 L 33 -2.640625 L 37.5625 -2.640625 C 44.914062 -2.640625 51.171875 -4.835938 56.328125 -9.234375 C 61.492188 -13.640625 65.035156 -19.28125 66.953125 -26.15625 L 69.359375 -26.15625 L 68.40625 0 L 2.515625 0 L 2.515625 -2.640625 L 9.59375 -2.640625 L 9.59375 -81.359375 L 2.515625 -81.359375 Z M 2.515625 -84 "/></g></g></g><g fill="#ab8860" fill-opacity="1"><g transform="translate(365.086804, 901.169782)"><g><path d="M 39 -1.3125 C 43 -1.3125 46.535156 -2.390625 49.609375 -4.546875 C 52.691406 -6.710938 54.234375 -9.972656 54.234375 -14.328125 C 54.234375 -18.691406 52.570312 -22.035156 49.25 -24.359375 C 45.9375 -26.679688 41.21875 -28.703125 35.09375 -30.421875 C 28.976562 -32.140625 24.539062 -33.640625 21.78125 -34.921875 C 19.019531 -36.203125 16.398438 -37.878906 13.921875 -39.953125 C 8.960938 -44.117188 6.484375 -50.5625 6.484375 -59.28125 C 6.484375 -66.394531 9.019531 -72.507812 14.09375 -77.625 C 19.175781 -82.75 26.117188 -85.3125 34.921875 -85.3125 C 39.160156 -85.3125 43.578125 -84.691406 48.171875 -83.453125 C 52.773438 -82.210938 55.632812 -81.59375 56.75 -81.59375 C 57.875 -81.59375 58.878906 -82.394531 59.765625 -84 L 61.078125 -84 L 61.921875 -59.765625 L 60 -59.765625 C 56.15625 -66.722656 52.132812 -72.300781 47.9375 -76.5 C 43.738281 -80.695312 39.175781 -82.796875 34.25 -82.796875 C 29.332031 -82.796875 25.515625 -81.65625 22.796875 -79.375 C 20.078125 -77.09375 18.71875 -74.050781 18.71875 -70.25 C 18.71875 -66.457031 20.335938 -63.539062 23.578125 -61.5 C 26.816406 -59.457031 30.796875 -57.796875 35.515625 -56.515625 C 40.234375 -55.234375 43.332031 -54.351562 44.8125 -53.875 C 46.300781 -53.394531 48.144531 -52.734375 50.34375 -51.890625 C 52.539062 -51.054688 54.335938 -50.175781 55.734375 -49.25 C 57.140625 -48.332031 58.617188 -47.175781 60.171875 -45.78125 C 61.734375 -44.382812 62.957031 -42.84375 63.84375 -41.15625 C 66 -37.320312 67.078125 -32.765625 67.078125 -27.484375 C 67.078125 -18.835938 64.375 -11.894531 58.96875 -6.65625 C 53.570312 -1.414062 46.476562 1.203125 37.6875 1.203125 C 33.125 1.203125 27.898438 0.601562 22.015625 -0.59375 C 16.140625 -1.800781 12.878906 -2.40625 12.234375 -2.40625 C 11.117188 -2.40625 10.039062 -1.203125 9 1.203125 L 7.3125 1.203125 L 6.125 -27.359375 L 8.15625 -27.359375 C 11.675781 -20.398438 16.175781 -14.316406 21.65625 -9.109375 C 27.132812 -3.910156 32.914062 -1.3125 39 -1.3125 Z M 39 -1.3125 "/></g></g></g><g fill="#ab8860" fill-opacity="1"><g transform="translate(461.086819, 901.169782)"><g><path d="M 2.515625 -84 L 64.921875 -84 L 66.125 -60.234375 L 63.953125 -60.234375 C 60.597656 -68.316406 57.078125 -73.859375 53.390625 -76.859375 C 49.710938 -79.859375 44.316406 -81.359375 37.203125 -81.359375 L 33 -81.359375 L 33 -44.28125 L 37.078125 -44.28125 C 40.835938 -44.28125 44 -45.695312 46.5625 -48.53125 C 49.125 -51.375 50.921875 -55.195312 51.953125 -60 L 53.765625 -60 L 53.765625 -24.484375 L 51.71875 -24.484375 C 50.28125 -30.484375 48.335938 -34.757812 45.890625 -37.3125 C 43.453125 -39.875 40.113281 -41.15625 35.875 -41.15625 L 33 -41.15625 L 33 -2.640625 L 37.5625 -2.640625 C 44.914062 -2.640625 51.171875 -4.835938 56.328125 -9.234375 C 61.492188 -13.640625 65.035156 -19.28125 66.953125 -26.15625 L 69.359375 -26.15625 L 68.40625 0 L 2.515625 0 L 2.515625 -2.640625 L 9.59375 -2.640625 L 9.59375 -81.359375 L 2.515625 -81.359375 Z M 2.515625 -84 "/></g></g></g><g fill="#ab8860" fill-opacity="1"><g transform="translate(559.966854, 901.169782)"><g><path d="M 39.359375 -42.484375 L 33 -42.484375 L 33 -2.28125 L 40.796875 -2.28125 L 40.796875 0 L 1.796875 0 L 1.796875 -2.28125 L 9.59375 -2.28125 L 9.59375 -81.71875 L 1.796875 -81.71875 L 1.796875 -84 L 38.046875 -84 C 48.441406 -84 55.816406 -83.457031 60.171875 -82.375 C 64.535156 -81.300781 67.597656 -80.003906 69.359375 -78.484375 C 73.203125 -75.359375 75.125 -70.394531 75.125 -63.59375 C 75.125 -56.800781 73.441406 -51.941406 70.078125 -49.015625 C 66.722656 -46.097656 61.601562 -44.359375 54.71875 -43.796875 L 54.71875 -43.4375 C 61.195312 -42.5625 65.71875 -40.640625 68.28125 -37.671875 C 70.84375 -34.710938 72.125 -29.753906 72.125 -22.796875 L 72.125 -16.4375 C 72.125 -12.28125 72.34375 -9.476562 72.78125 -8.03125 C 73.21875 -6.59375 74.15625 -5.875 75.59375 -5.875 C 77.039062 -5.875 78.179688 -6.535156 79.015625 -7.859375 C 79.859375 -9.179688 80.640625 -11.960938 81.359375 -16.203125 L 83.40625 -15.953125 C 82.519531 -9.160156 80.976562 -4.601562 78.78125 -2.28125 C 76.582031 0.0390625 72.203125 1.203125 65.640625 1.203125 C 59.078125 1.203125 54.414062 -0.335938 51.65625 -3.421875 C 48.894531 -6.503906 47.515625 -12.285156 47.515625 -20.765625 L 47.515625 -29.515625 C 47.515625 -33.992188 46.9375 -37.273438 45.78125 -39.359375 C 44.625 -41.441406 42.484375 -42.484375 39.359375 -42.484375 Z M 33 -81.71875 L 33 -44.765625 L 36.84375 -44.765625 C 41.40625 -44.765625 44.785156 -46.160156 46.984375 -48.953125 C 49.179688 -51.753906 50.28125 -56.316406 50.28125 -62.640625 L 50.28125 -66.125 C 50.28125 -72.4375 49.21875 -76.613281 47.09375 -78.65625 C 44.976562 -80.695312 41.597656 -81.71875 36.953125 -81.71875 Z M 33 -81.71875 "/></g></g></g><g fill="#ab8860" fill-opacity="1"><g transform="translate(669.886888, 901.169782)"><g><path d="M 76.3125 -84 L 77.515625 -53.875 L 75.234375 -53.875 C 71.710938 -64.519531 68.59375 -71.78125 65.875 -75.65625 C 63.15625 -79.539062 59.238281 -81.484375 54.125 -81.484375 L 52.6875 -81.484375 L 52.6875 -2.515625 L 62.875 -2.515625 L 62.875 0 L 19.078125 0 L 19.078125 -2.515625 L 29.28125 -2.515625 L 29.28125 -81.484375 L 27.71875 -81.484375 C 22.601562 -81.484375 18.644531 -79.460938 15.84375 -75.421875 C 13.039062 -71.378906 9.957031 -64.195312 6.59375 -53.875 L 4.3125 -53.875 L 5.515625 -84 Z M 76.3125 -84 "/></g></g></g><g fill="#ab8860" fill-opacity="1"><g transform="translate(775.846901, 901.169782)"><g/></g></g><g fill="#ab8860" fill-opacity="1"><g transform="translate(821.446934, 901.169782)"><g><path d="M 2.515625 -84 L 38.40625 -84 C 49.519531 -84 57.859375 -82.5 63.421875 -79.5 C 68.984375 -76.5 71.765625 -71.4375 71.765625 -64.3125 C 71.765625 -53.351562 65.160156 -46.796875 51.953125 -44.640625 L 51.953125 -44.40625 C 67.953125 -42.40625 75.953125 -35.441406 75.953125 -23.515625 C 75.953125 -14.796875 72.671875 -8.695312 66.109375 -5.21875 C 59.554688 -1.738281 50.117188 0 37.796875 0 L 2.515625 0 L 2.515625 -2.28125 L 10.3125 -2.28125 L 10.3125 -81.71875 L 2.515625 -81.71875 Z M 33.71875 -42.484375 L 33.71875 -2.28125 L 39.359375 -2.28125 C 43.753906 -2.28125 46.832031 -3.800781 48.59375 -6.84375 C 50.351562 -9.882812 51.234375 -14.363281 51.234375 -20.28125 L 51.234375 -26.640625 C 51.234375 -31.921875 50.15625 -35.878906 48 -38.515625 C 45.84375 -41.160156 42.003906 -42.484375 36.484375 -42.484375 Z M 33.71875 -81.71875 L 33.71875 -44.765625 L 36.84375 -44.765625 C 41 -44.765625 43.894531 -46.019531 45.53125 -48.53125 C 47.175781 -51.050781 48 -54.914062 48 -60.125 L 48 -65.765625 C 48 -71.679688 47.28125 -75.816406 45.84375 -78.171875 C 44.40625 -80.535156 41.644531 -81.71875 37.5625 -81.71875 Z M 33.71875 -81.71875 "/></g></g></g><g fill="#ab8860" fill-opacity="1"><g transform="translate(924.526972, 901.169782)"><g><path d="M 2.515625 -84 L 45.71875 -84 L 45.71875 -81.359375 L 33 -81.359375 L 33 -2.640625 L 37.3125 -2.640625 C 44.113281 -2.640625 49.535156 -4.71875 53.578125 -8.875 C 57.617188 -13.039062 61.71875 -19.441406 65.875 -28.078125 L 68.40625 -28.078125 L 66.125 0 L 2.515625 0 L 2.515625 -2.640625 L 9.59375 -2.640625 L 9.59375 -81.359375 L 2.515625 -81.359375 Z M 2.515625 -84 "/></g></g></g><g fill="#ab8860" fill-opacity="1"><g transform="translate(1020.046953, 901.169782)"><g><path d="M 60.125 -37.078125 L 60.125 -45.953125 C 60.125 -60.597656 59.398438 -69.84375 57.953125 -73.6875 C 56.359375 -78.082031 54.082031 -80.800781 51.125 -81.84375 C 49.4375 -82.476562 47.394531 -82.796875 45 -82.796875 C 42.601562 -82.796875 40.539062 -82.472656 38.8125 -81.828125 C 37.09375 -81.191406 35.671875 -80.070312 34.546875 -78.46875 C 33.429688 -76.875 32.535156 -75.195312 31.859375 -73.4375 C 31.179688 -71.675781 30.640625 -69.195312 30.234375 -66 C 29.753906 -61.363281 29.515625 -54.523438 29.515625 -45.484375 L 29.515625 -36.84375 C 29.515625 -27.082031 29.894531 -20.140625 30.65625 -16.015625 C 31.414062 -11.898438 32.359375 -8.960938 33.484375 -7.203125 C 35.960938 -3.273438 39.800781 -1.3125 45 -1.3125 C 51.320312 -1.3125 55.421875 -3.972656 57.296875 -9.296875 C 59.179688 -14.617188 60.125 -23.878906 60.125 -37.078125 Z M 44.75 1.203125 C 31.394531 1.203125 21.414062 -2.414062 14.8125 -9.65625 C 8.21875 -16.894531 4.921875 -27.375 4.921875 -41.09375 C 4.921875 -54.820312 8.457031 -65.625 15.53125 -73.5 C 22.613281 -81.375 32.632812 -85.3125 45.59375 -85.3125 C 58.5625 -85.3125 68.34375 -81.570312 74.9375 -74.09375 C 81.539062 -66.613281 84.84375 -55.992188 84.84375 -42.234375 C 84.84375 -28.472656 81.5 -17.789062 74.8125 -10.1875 C 68.132812 -2.59375 58.113281 1.203125 44.75 1.203125 Z M 44.75 1.203125 "/></g></g></g><g fill="#ab8860" fill-opacity="1"><g transform="translate(1133.807075, 901.169782)"><g><path d="M 60.125 -37.078125 L 60.125 -45.953125 C 60.125 -60.597656 59.398438 -69.84375 57.953125 -73.6875 C 56.359375 -78.082031 54.082031 -80.800781 51.125 -81.84375 C 49.4375 -82.476562 47.394531 -82.796875 45 -82.796875 C 42.601562 -82.796875 40.539062 -82.472656 38.8125 -81.828125 C 37.09375 -81.191406 35.671875 -80.070312 34.546875 -78.46875 C 33.429688 -76.875 32.535156 -75.195312 31.859375 -73.4375 C 31.179688 -71.675781 30.640625 -69.195312 30.234375 -66 C 29.753906 -61.363281 29.515625 -54.523438 29.515625 -45.484375 L 29.515625 -36.84375 C 29.515625 -27.082031 29.894531 -20.140625 30.65625 -16.015625 C 31.414062 -11.898438 32.359375 -8.960938 33.484375 -7.203125 C 35.960938 -3.273438 39.800781 -1.3125 45 -1.3125 C 51.320312 -1.3125 55.421875 -3.972656 57.296875 -9.296875 C 59.179688 -14.617188 60.125 -23.878906 60.125 -37.078125 Z M 44.75 1.203125 C 31.394531 1.203125 21.414062 -2.414062 14.8125 -9.65625 C 8.21875 -16.894531 4.921875 -27.375 4.921875 -41.09375 C 4.921875 -54.820312 8.457031 -65.625 15.53125 -73.5 C 22.613281 -81.375 32.632812 -85.3125 45.59375 -85.3125 C 58.5625 -85.3125 68.34375 -81.570312 74.9375 -74.09375 C 81.539062 -66.613281 84.84375 -55.992188 84.84375 -42.234375 C 84.84375 -28.472656 81.5 -17.789062 74.8125 -10.1875 C 68.132812 -2.59375 58.113281 1.203125 44.75 1.203125 Z M 44.75 1.203125 "/></g></g></g><g fill="#ab8860" fill-opacity="1"><g transform="translate(1247.567106, 901.169782)"><g><path d="M 65.765625 -84 L 97.796875 -84 L 97.796875 -81.71875 L 91.203125 -81.71875 L 91.203125 -2.28125 L 97.796875 -2.28125 L 97.796875 0 L 61.203125 0 L 61.203125 -2.28125 L 67.796875 -2.28125 L 67.796875 -77.28125 L 67.3125 -77.28125 L 49.3125 0 L 34.3125 0 L 13.203125 -77.640625 L 12.71875 -77.640625 L 12.71875 -2.28125 L 19.3125 -2.28125 L 19.3125 0 L 3 0 L 3 -2.28125 L 9.59375 -2.28125 L 9.59375 -81.71875 L 3 -81.71875 L 3 -84 L 35.40625 -84 L 51.359375 -22.203125 Z M 65.765625 -84 "/></g></g></g><g fill="#ab8860" fill-opacity="1"><g transform="translate(619.818971, 1021.419684)"><g><path d="M 22.953125 -45.4375 L 5.046875 -45.4375 L 7.203125 -56 L 56 -56 L 53.84375 -45.4375 L 36 -45.4375 L 26.875 0 L 13.921875 0 Z M 22.953125 -45.4375 "/></g></g></g><g fill="#ab8860" fill-opacity="1"><g transform="translate(653.25413, 1021.419684)"><g><path d="M 31.359375 0.953125 C 25.753906 0.953125 20.898438 -0.0546875 16.796875 -2.078125 C 12.691406 -4.109375 9.546875 -6.960938 7.359375 -10.640625 C 5.171875 -14.316406 4.078125 -18.554688 4.078125 -23.359375 C 4.078125 -29.703125 5.53125 -35.421875 8.4375 -40.515625 C 11.34375 -45.609375 15.421875 -49.617188 20.671875 -52.546875 C 25.929688 -55.484375 31.945312 -56.953125 38.71875 -56.953125 C 44.320312 -56.953125 49.175781 -55.9375 53.28125 -53.90625 C 57.382812 -51.882812 60.53125 -49.035156 62.71875 -45.359375 C 64.90625 -41.679688 66 -37.441406 66 -32.640625 C 66 -26.296875 64.546875 -20.578125 61.640625 -15.484375 C 58.734375 -10.390625 54.648438 -6.375 49.390625 -3.4375 C 44.140625 -0.507812 38.128906 0.953125 31.359375 0.953125 Z M 32.484375 -10.078125 C 36.585938 -10.078125 40.1875 -11.0625 43.28125 -13.03125 C 46.375 -15.007812 48.742188 -17.648438 50.390625 -20.953125 C 52.046875 -24.265625 52.875 -27.921875 52.875 -31.921875 C 52.875 -36.179688 51.539062 -39.578125 48.875 -42.109375 C 46.207031 -44.648438 42.445312 -45.921875 37.59375 -45.921875 C 33.488281 -45.921875 29.890625 -44.929688 26.796875 -42.953125 C 23.703125 -40.984375 21.328125 -38.34375 19.671875 -35.03125 C 18.023438 -31.726562 17.203125 -28.078125 17.203125 -24.078125 C 17.203125 -19.816406 18.535156 -16.414062 21.203125 -13.875 C 23.867188 -11.34375 27.628906 -10.078125 32.484375 -10.078125 Z M 32.484375 -10.078125 "/></g></g></g><g fill="#ab8860" fill-opacity="1"><g transform="translate(704.76753, 1021.419684)"><g><path d="M 28.71875 0.953125 C 21.675781 0.953125 16.15625 -0.789062 12.15625 -4.28125 C 8.15625 -7.769531 6.15625 -12.554688 6.15625 -18.640625 C 6.15625 -20.398438 6.367188 -22.398438 6.796875 -24.640625 L 13.046875 -56 L 26.078125 -56 L 19.84375 -24.875 C 19.519531 -23.113281 19.359375 -21.539062 19.359375 -20.15625 C 19.359375 -16.800781 20.273438 -14.28125 22.109375 -12.59375 C 23.953125 -10.914062 26.632812 -10.078125 30.15625 -10.078125 C 34.101562 -10.078125 37.25 -11.25 39.59375 -13.59375 C 41.945312 -15.945312 43.65625 -19.707031 44.71875 -24.875 L 50.953125 -56 L 63.6875 -56 L 57.359375 -24.078125 C 53.941406 -7.390625 44.394531 0.953125 28.71875 0.953125 Z M 28.71875 0.953125 "/></g></g></g><g fill="#ab8860" fill-opacity="1"><g transform="translate(751.80137, 1021.419684)"><g><path d="M 58.234375 -38.640625 C 58.234375 -33.410156 56.820312 -28.925781 54 -25.1875 C 51.175781 -21.457031 47.253906 -18.820312 42.234375 -17.28125 L 52 0 L 38.3125 0 L 29.515625 -15.6875 L 18.484375 -15.6875 L 15.359375 0 L 2.3125 0 L 13.515625 -56 L 36.3125 -56 C 43.25 -56 48.632812 -54.476562 52.46875 -51.4375 C 56.3125 -48.394531 58.234375 -44.128906 58.234375 -38.640625 Z M 31.515625 -26 C 35.835938 -26 39.1875 -26.984375 41.5625 -28.953125 C 43.9375 -30.929688 45.125 -33.757812 45.125 -37.4375 C 45.125 -40.101562 44.21875 -42.101562 42.40625 -43.4375 C 40.59375 -44.769531 38.003906 -45.4375 34.640625 -45.4375 L 24.40625 -45.4375 L 20.484375 -26 Z M 31.515625 -26 "/></g></g></g><g fill="#ab8860" fill-opacity="1"><g transform="translate(794.595621, 1021.419684)"><g><path d="M 21.84375 0.953125 C 17.414062 0.953125 13.175781 0.367188 9.125 -0.796875 C 5.070312 -1.972656 1.816406 -3.46875 -0.640625 -5.28125 L 4.640625 -15.28125 C 7.203125 -13.414062 10.082031 -11.972656 13.28125 -10.953125 C 16.476562 -9.941406 19.757812 -9.4375 23.125 -9.4375 C 26.695312 -9.4375 29.519531 -10.019531 31.59375 -11.1875 C 33.675781 -12.363281 34.71875 -13.96875 34.71875 -16 C 34.71875 -17.65625 33.890625 -18.921875 32.234375 -19.796875 C 30.585938 -20.679688 27.945312 -21.628906 24.3125 -22.640625 C 20.6875 -23.703125 17.726562 -24.726562 15.4375 -25.71875 C 13.144531 -26.707031 11.15625 -28.1875 9.46875 -30.15625 C 7.789062 -32.132812 6.953125 -34.75 6.953125 -38 C 6.953125 -41.789062 8.003906 -45.125 10.109375 -48 C 12.222656 -50.875 15.210938 -53.082031 19.078125 -54.625 C 22.941406 -56.175781 27.4375 -56.953125 32.5625 -56.953125 C 36.34375 -56.953125 39.910156 -56.539062 43.265625 -55.71875 C 46.628906 -54.894531 49.515625 -53.707031 51.921875 -52.15625 L 47.046875 -42.234375 C 44.960938 -43.679688 42.613281 -44.765625 40 -45.484375 C 37.382812 -46.203125 34.664062 -46.5625 31.84375 -46.5625 C 28.15625 -46.5625 25.242188 -45.921875 23.109375 -44.640625 C 20.984375 -43.359375 19.921875 -41.707031 19.921875 -39.6875 C 19.921875 -38.457031 20.375 -37.425781 21.28125 -36.59375 C 22.1875 -35.769531 23.332031 -35.101562 24.71875 -34.59375 C 26.101562 -34.09375 28.050781 -33.492188 30.5625 -32.796875 C 34.132812 -31.835938 37.066406 -30.863281 39.359375 -29.875 C 41.648438 -28.894531 43.609375 -27.457031 45.234375 -25.5625 C 46.867188 -23.664062 47.6875 -21.171875 47.6875 -18.078125 C 47.6875 -14.234375 46.617188 -10.882812 44.484375 -8.03125 C 42.347656 -5.1875 39.332031 -2.976562 35.4375 -1.40625 C 31.539062 0.164062 27.007812 0.953125 21.84375 0.953125 Z M 21.84375 0.953125 "/></g></g></g></svg>