<svg xmlns="http://www.w3.org/2000/svg" xmlns:xlink="http://www.w3.org/1999/xlink"  zoomAndPan="magnify" viewBox="0 0 1500 1499.999933"  preserveAspectRatio="xMidYMid meet" version="1.0"><defs><g/><clipPath id="1754e7d1bf"><path d="M 613 434.664062 L 1050 434.664062 L 1050 875 L 613 875 Z M 613 434.664062 " clip-rule="nonzero"/></clipPath><clipPath id="0a9b2b2004"><path d="M 581 436 L 616 436 L 616 528 L 581 528 Z M 581 436 " clip-rule="nonzero"/></clipPath><clipPath id="f05df44e36"><path d="M 395.335938 459.40625 L 504.386719 337.585938 L 645.207031 463.644531 L 536.15625 585.464844 Z M 395.335938 459.40625 " clip-rule="nonzero"/></clipPath><clipPath id="4af79ea134"><path d="M 395.335938 459.40625 L 504.386719 337.585938 L 645.207031 463.644531 L 536.15625 585.464844 Z M 395.335938 459.40625 " clip-rule="nonzero"/></clipPath><clipPath id="e323ee0663"><path d="M 428 474 L 561 474 L 561 540 L 428 540 Z M 428 474 " clip-rule="nonzero"/></clipPath><clipPath id="4c4f9b67de"><path d="M 395.335938 459.40625 L 504.386719 337.585938 L 645.207031 463.644531 L 536.15625 585.464844 Z M 395.335938 459.40625 " clip-rule="nonzero"/></clipPath><clipPath id="7261a9355e"><path d="M 395.335938 459.40625 L 504.386719 337.585938 L 645.207031 463.644531 L 536.15625 585.464844 Z M 395.335938 459.40625 " clip-rule="nonzero"/></clipPath><clipPath id="adceb028b3"><path d="M 486 354 L 573 354 L 573 525 L 486 525 Z M 486 354 " clip-rule="nonzero"/></clipPath><clipPath id="84b8205583"><path d="M 395.335938 459.40625 L 504.386719 337.585938 L 645.207031 463.644531 L 536.15625 585.464844 Z M 395.335938 459.40625 " clip-rule="nonzero"/></clipPath><clipPath id="6b4bb685cb"><path d="M 395.335938 459.40625 L 504.386719 337.585938 L 645.207031 463.644531 L 536.15625 585.464844 Z M 395.335938 459.40625 " clip-rule="nonzero"/></clipPath><clipPath id="057cf60d96"><rect x="0" width="924" y="0" height="180"/></clipPath></defs><rect x="-150" width="1800" fill="#ffffff" y="-149.999993" height="1799.99992" fill-opacity="1"/><rect x="-150" width="1800" fill="#ffffff" y="-149.999993" height="1799.99992" fill-opacity="1"/><g clip-path="url(#1754e7d1bf)"><path fill="#006623" d="M 683.945312 434.65625 C 658.347656 454.160156 668.980469 473.074219 662.679688 495.925781 C 655 523.503906 630.976562 527.25 631.171875 497.699219 C 631.371094 483.511719 632.945312 471.101562 644.171875 456.523438 C 618.179688 470.117188 609.710938 562.511719 661.105469 521.535156 L 765.078125 438.003906 L 1050.019531 666.53125 L 946.046875 666.53125 L 946.046875 874.570312 L 757.992188 874.570312 L 744.207031 864.324219 C 804.464844 853.882812 795.207031 769.957031 873.972656 754.988281 C 812.929688 784.339844 800.523438 843.640625 847.980469 813.300781 C 879.292969 793.597656 866.492188 754 915.328125 746.121094 C 850.148438 723.660156 813.128906 746.910156 798.164062 780.398438 C 794.617188 746.121094 775.910156 711.050781 756.613281 686.621094 C 741.648438 667.90625 724.316406 651.949219 705.808594 636.78125 C 691.039062 624.566406 675.285156 612.746094 661.5 599.347656 C 602.027344 542.023438 585.09375 445.097656 683.945312 434.65625 Z M 838.332031 688.199219 C 839.710938 711.445312 835.574219 728.585938 805.644531 742.773438 C 787.527344 707.902344 787.527344 676.578125 844.238281 655.5 C 838.921875 665.941406 836.953125 676.777344 838.332031 688.199219 Z M 838.332031 688.199219 " fill-opacity="1" fill-rule="evenodd"/></g><path fill="#487319" d="M 667.011719 807.585938 C 623.492188 773.703125 592.773438 735.089844 566.78125 671.652344 C 590.804688 773.898438 654.015625 832.605469 710.136719 874.570312 C 567.964844 871.8125 450.011719 737.058594 590.414062 495.925781 C 592.777344 621.222656 676.269531 631.859375 733.964844 704.554688 C 803.28125 791.824219 767.441406 885.402344 667.011719 807.585938 Z M 667.011719 807.585938 " fill-opacity="1" fill-rule="evenodd"/><g clip-path="url(#0a9b2b2004)"><g clip-path="url(#f05df44e36)"><g clip-path="url(#4af79ea134)"><path fill="#487319" d="M 586.613281 527.09375 C 580.628906 511.175781 580.042969 493.285156 584.972656 477.011719 C 589.902344 460.738281 600.316406 446.179688 614.128906 436.257812 C 619.558594 468.433594 609.269531 503.609375 586.613281 527.09375 " fill-opacity="1" fill-rule="nonzero"/></g></g></g><g clip-path="url(#e323ee0663)"><g clip-path="url(#4c4f9b67de)"><g clip-path="url(#7261a9355e)"><path fill="#487319" d="M 560.957031 539.222656 C 548.78125 516.027344 528.800781 497.015625 505.027344 486.007812 C 481.257812 474.996094 453.832031 472.058594 428.265625 477.773438 C 459.714844 517.003906 510.71875 541.21875 560.957031 539.222656 " fill-opacity="1" fill-rule="nonzero"/></g></g></g><g clip-path="url(#adceb028b3)"><g clip-path="url(#84b8205583)"><g clip-path="url(#6b4bb685cb)"><path fill="#487319" d="M 572.816406 524.890625 C 542.367188 509.742188 517.128906 484.347656 502.167969 453.808594 C 487.207031 423.269531 482.613281 387.761719 489.3125 354.417969 C 541.113281 394.125 573.984375 459.632812 572.816406 524.890625 " fill-opacity="1" fill-rule="nonzero"/></g></g></g><g transform="matrix(1, 0, 0, 1, 293, 886)"><g clip-path="url(#057cf60d96)"><g fill="#487319" fill-opacity="1"><g transform="translate(0.41266, 143.475427)"><g><path d="M 13.953125 0 L 13.953125 -102.59375 L 76.09375 -102.59375 L 74.546875 -92.21875 L 45.71875 -97.015625 C 40.65625 -97.015625 35.078125 -96.140625 28.984375 -94.390625 L 28.984375 -56.71875 L 63.390625 -56.71875 L 63.390625 -50.828125 L 28.984375 -50.828125 L 28.984375 -5.578125 L 77.03125 -10.390625 L 75.484375 0 Z M 13.953125 0 "/></g></g></g><g fill="#487319" fill-opacity="1"><g transform="translate(95.415752, 143.475427)"><g><path d="M 47.578125 2.484375 L 1.546875 -102.59375 L 18.4375 -102.59375 L 52.546875 -18.59375 L 83.234375 -102.59375 L 90.96875 -102.59375 L 50.0625 2.484375 Z M 47.578125 2.484375 "/></g></g></g><g fill="#487319" fill-opacity="1"><g transform="translate(195.843127, 143.475427)"><g><path d="M 13.953125 0 L 13.953125 -102.59375 L 76.09375 -102.59375 L 74.546875 -92.21875 L 45.71875 -97.015625 C 40.65625 -97.015625 35.078125 -96.140625 28.984375 -94.390625 L 28.984375 -56.71875 L 63.390625 -56.71875 L 63.390625 -50.828125 L 28.984375 -50.828125 L 28.984375 -5.578125 L 77.03125 -10.390625 L 75.484375 0 Z M 13.953125 0 "/></g></g></g><g fill="#487319" fill-opacity="1"><g transform="translate(290.846219, 143.475427)"><g><path d="M 29.140625 -48.96875 L 29.140625 0 L 13.953125 0 L 13.953125 -102.59375 L 47.421875 -102.59375 C 57.859375 -102.59375 66.410156 -100.269531 73.078125 -95.625 C 79.742188 -90.976562 83.078125 -84.859375 83.078125 -77.265625 C 83.078125 -69.671875 80.414062 -63.675781 75.09375 -59.28125 C 69.769531 -54.882812 62.5625 -51.863281 53.46875 -50.21875 L 95 0 L 77.03125 2.171875 L 41.078125 -48.96875 Z M 29.140625 -53.625 L 39.0625 -53.625 C 57.65625 -53.625 66.953125 -60.957031 66.953125 -75.625 C 66.953125 -78.113281 66.332031 -80.90625 65.09375 -84 C 62.71875 -90.507812 57.65625 -94.796875 49.90625 -96.859375 C 42.875 -96.859375 35.953125 -95.984375 29.140625 -94.234375 Z M 29.140625 -53.625 "/></g></g></g><g fill="#487319" fill-opacity="1"><g transform="translate(397.62773, 143.475427)"><g><path d="M 78.890625 -44.171875 L 93.921875 -44.171875 L 93.921875 -3.40625 C 85.035156 0.101562 74.34375 1.859375 61.84375 1.859375 C 46.65625 1.859375 33.582031 -2.171875 22.625 -10.234375 C 17.25 -14.253906 12.957031 -19.546875 9.75 -26.109375 C 6.550781 -32.671875 4.953125 -39.929688 4.953125 -47.890625 C 4.953125 -55.847656 6.191406 -63.003906 8.671875 -69.359375 C 11.160156 -75.710938 14.390625 -81.003906 18.359375 -85.234375 C 22.335938 -89.472656 26.960938 -93.09375 32.234375 -96.09375 C 42.046875 -101.664062 52.84375 -104.453125 64.625 -104.453125 C 69.175781 -104.453125 74.082031 -103.9375 79.34375 -102.90625 C 84.613281 -101.875 88.644531 -100.789062 91.4375 -99.65625 L 89.890625 -89.265625 C 75.941406 -95.160156 64.367188 -98.109375 55.171875 -98.109375 C 44.734375 -95.421875 36.492188 -89.890625 30.453125 -81.515625 C 24.410156 -73.148438 21.390625 -62.921875 21.390625 -50.828125 C 21.390625 -35.742188 25.363281 -24.09375 33.3125 -15.875 C 41.269531 -7.664062 51.757812 -3.5625 64.78125 -3.5625 C 69.945312 -3.5625 74.648438 -4.078125 78.890625 -5.109375 Z M 78.890625 -44.171875 "/></g></g></g><g fill="#487319" fill-opacity="1"><g transform="translate(510.918382, 143.475427)"><g><path d="M 29.140625 -48.96875 L 29.140625 0 L 13.953125 0 L 13.953125 -102.59375 L 47.421875 -102.59375 C 57.859375 -102.59375 66.410156 -100.269531 73.078125 -95.625 C 79.742188 -90.976562 83.078125 -84.859375 83.078125 -77.265625 C 83.078125 -69.671875 80.414062 -63.675781 75.09375 -59.28125 C 69.769531 -54.882812 62.5625 -51.863281 53.46875 -50.21875 L 95 0 L 77.03125 2.171875 L 41.078125 -48.96875 Z M 29.140625 -53.625 L 39.0625 -53.625 C 57.65625 -53.625 66.953125 -60.957031 66.953125 -75.625 C 66.953125 -78.113281 66.332031 -80.90625 65.09375 -84 C 62.71875 -90.507812 57.65625 -94.796875 49.90625 -96.859375 C 42.875 -96.859375 35.953125 -95.984375 29.140625 -94.234375 Z M 29.140625 -53.625 "/></g></g></g><g fill="#487319" fill-opacity="1"><g transform="translate(617.699893, 143.475427)"><g><path d="M 13.953125 0 L 13.953125 -102.59375 L 76.09375 -102.59375 L 74.546875 -92.21875 L 45.71875 -97.015625 C 40.65625 -97.015625 35.078125 -96.140625 28.984375 -94.390625 L 28.984375 -56.71875 L 63.390625 -56.71875 L 63.390625 -50.828125 L 28.984375 -50.828125 L 28.984375 -5.578125 L 77.03125 -10.390625 L 75.484375 0 Z M 13.953125 0 "/></g></g></g><g fill="#487319" fill-opacity="1"><g transform="translate(712.703026, 143.475427)"><g><path d="M 13.953125 0 L 13.953125 -102.59375 L 76.09375 -102.59375 L 74.546875 -92.21875 L 45.71875 -97.015625 C 40.65625 -97.015625 35.078125 -96.140625 28.984375 -94.390625 L 28.984375 -56.71875 L 63.390625 -56.71875 L 63.390625 -50.828125 L 28.984375 -50.828125 L 28.984375 -5.578125 L 77.03125 -10.390625 L 75.484375 0 Z M 13.953125 0 "/></g></g></g><g fill="#487319" fill-opacity="1"><g transform="translate(807.706077, 143.475427)"><g><path d="M 91.90625 1.703125 L 89.265625 1.703125 L 21.390625 -83.234375 L 20.765625 -83.234375 L 20.765625 0 L 13.953125 0 L 13.953125 -102.59375 L 25.421875 -102.59375 L 84.46875 -28.046875 L 85.09375 -28.046875 L 85.09375 -102.59375 L 91.90625 -102.59375 Z M 91.90625 1.703125 "/></g></g></g></g></g><g fill="#487319" fill-opacity="1"><g transform="translate(442.86429, 1109.632036)"><g><path d="M 4.515625 0 L 4.515625 -31.015625 L 23.359375 -31.015625 L 23.359375 -27.390625 L 8.421875 -27.390625 L 8.421875 -17.59375 L 22.25 -17.59375 L 22.25 -14 L 8.421875 -14 L 8.421875 -3.640625 L 23.84375 -3.640625 L 23.84375 0 Z M 4.515625 0 "/></g></g></g><g fill="#487319" fill-opacity="1"><g transform="translate(505.040962, 1109.632036)"><g><path d="M 18.25 0.578125 C 15.976562 0.578125 13.878906 0.179688 11.953125 -0.609375 C 10.035156 -1.410156 8.375 -2.523438 6.96875 -3.953125 C 5.570312 -5.390625 4.488281 -7.09375 3.71875 -9.0625 C 2.945312 -11.03125 2.5625 -13.179688 2.5625 -15.515625 C 2.5625 -17.847656 2.945312 -19.992188 3.71875 -21.953125 C 4.488281 -23.921875 5.570312 -25.617188 6.96875 -27.046875 C 8.375 -28.484375 10.035156 -29.597656 11.953125 -30.390625 C 13.878906 -31.191406 15.976562 -31.59375 18.25 -31.59375 C 20.707031 -31.59375 22.960938 -31.140625 25.015625 -30.234375 C 27.066406 -29.335938 28.820312 -28.054688 30.28125 -26.390625 C 31.75 -24.722656 32.820312 -22.75 33.5 -20.46875 L 29.328125 -20.46875 C 28.535156 -22.71875 27.15625 -24.484375 25.1875 -25.765625 C 23.226562 -27.046875 20.960938 -27.6875 18.390625 -27.6875 C 16.085938 -27.6875 14.046875 -27.171875 12.265625 -26.140625 C 10.492188 -25.109375 9.097656 -23.675781 8.078125 -21.84375 C 7.066406 -20.007812 6.5625 -17.898438 6.5625 -15.515625 C 6.5625 -13.117188 7.066406 -11.003906 8.078125 -9.171875 C 9.097656 -7.335938 10.492188 -5.90625 12.265625 -4.875 C 14.046875 -3.84375 16.085938 -3.328125 18.390625 -3.328125 C 21.015625 -3.328125 23.347656 -4.003906 25.390625 -5.359375 C 27.429688 -6.722656 28.847656 -8.570312 29.640625 -10.90625 L 33.765625 -10.90625 C 33.140625 -8.59375 32.082031 -6.578125 30.59375 -4.859375 C 29.101562 -3.148438 27.300781 -1.816406 25.1875 -0.859375 C 23.070312 0.0976562 20.757812 0.578125 18.25 0.578125 Z M 18.25 0.578125 "/></g></g></g><g fill="#487319" fill-opacity="1"><g transform="translate(576.655382, 1109.632036)"><g><path d="M 18.609375 0.578125 C 15.484375 0.578125 12.707031 -0.109375 10.28125 -1.484375 C 7.851562 -2.859375 5.957031 -4.753906 4.59375 -7.171875 C 3.238281 -9.597656 2.5625 -12.378906 2.5625 -15.515625 C 2.5625 -18.671875 3.238281 -21.453125 4.59375 -23.859375 C 5.957031 -26.265625 7.851562 -28.15625 10.28125 -29.53125 C 12.707031 -30.90625 15.484375 -31.59375 18.609375 -31.59375 C 21.773438 -31.59375 24.5625 -30.90625 26.96875 -29.53125 C 29.375 -28.15625 31.265625 -26.265625 32.640625 -23.859375 C 34.015625 -21.453125 34.703125 -18.671875 34.703125 -15.515625 C 34.703125 -12.378906 34.015625 -9.597656 32.640625 -7.171875 C 31.265625 -4.753906 29.375 -2.859375 26.96875 -1.484375 C 24.5625 -0.109375 21.773438 0.578125 18.609375 0.578125 Z M 6.5625 -15.515625 C 6.5625 -13.117188 7.066406 -11.003906 8.078125 -9.171875 C 9.097656 -7.335938 10.515625 -5.90625 12.328125 -4.875 C 14.148438 -3.84375 16.242188 -3.328125 18.609375 -3.328125 C 21.003906 -3.328125 23.101562 -3.84375 24.90625 -4.875 C 26.707031 -5.90625 28.117188 -7.335938 29.140625 -9.171875 C 30.160156 -11.003906 30.671875 -13.117188 30.671875 -15.515625 C 30.671875 -17.929688 30.160156 -20.046875 29.140625 -21.859375 C 28.117188 -23.679688 26.707031 -25.109375 24.90625 -26.140625 C 23.101562 -27.171875 21.003906 -27.6875 18.609375 -27.6875 C 16.242188 -27.6875 14.148438 -27.171875 12.328125 -26.140625 C 10.515625 -25.109375 9.097656 -23.679688 8.078125 -21.859375 C 7.066406 -20.046875 6.5625 -17.929688 6.5625 -15.515625 Z M 6.5625 -15.515625 "/></g></g></g><g fill="#487319" fill-opacity="1"><g transform="translate(649.33322, 1109.632036)"><g/></g></g><g fill="#487319" fill-opacity="1"><g transform="translate(695.780299, 1109.632036)"><g><path d="M 4.515625 0 L 4.515625 -31.015625 L 8.421875 -31.015625 L 8.421875 -3.71875 L 23.484375 -3.71875 L 23.484375 0 Z M 4.515625 0 "/></g></g></g><g fill="#487319" fill-opacity="1"><g transform="translate(756.096013, 1109.632036)"><g><path d="M 18.609375 0.578125 C 15.484375 0.578125 12.707031 -0.109375 10.28125 -1.484375 C 7.851562 -2.859375 5.957031 -4.753906 4.59375 -7.171875 C 3.238281 -9.597656 2.5625 -12.378906 2.5625 -15.515625 C 2.5625 -18.671875 3.238281 -21.453125 4.59375 -23.859375 C 5.957031 -26.265625 7.851562 -28.15625 10.28125 -29.53125 C 12.707031 -30.90625 15.484375 -31.59375 18.609375 -31.59375 C 21.773438 -31.59375 24.5625 -30.90625 26.96875 -29.53125 C 29.375 -28.15625 31.265625 -26.265625 32.640625 -23.859375 C 34.015625 -21.453125 34.703125 -18.671875 34.703125 -15.515625 C 34.703125 -12.378906 34.015625 -9.597656 32.640625 -7.171875 C 31.265625 -4.753906 29.375 -2.859375 26.96875 -1.484375 C 24.5625 -0.109375 21.773438 0.578125 18.609375 0.578125 Z M 6.5625 -15.515625 C 6.5625 -13.117188 7.066406 -11.003906 8.078125 -9.171875 C 9.097656 -7.335938 10.515625 -5.90625 12.328125 -4.875 C 14.148438 -3.84375 16.242188 -3.328125 18.609375 -3.328125 C 21.003906 -3.328125 23.101562 -3.84375 24.90625 -4.875 C 26.707031 -5.90625 28.117188 -7.335938 29.140625 -9.171875 C 30.160156 -11.003906 30.671875 -13.117188 30.671875 -15.515625 C 30.671875 -17.929688 30.160156 -20.046875 29.140625 -21.859375 C 28.117188 -23.679688 26.707031 -25.109375 24.90625 -26.140625 C 23.101562 -27.171875 21.003906 -27.6875 18.609375 -27.6875 C 16.242188 -27.6875 14.148438 -27.171875 12.328125 -26.140625 C 10.515625 -25.109375 9.097656 -23.679688 8.078125 -21.859375 C 7.066406 -20.046875 6.5625 -17.929688 6.5625 -15.515625 Z M 6.5625 -15.515625 "/></g></g></g><g fill="#487319" fill-opacity="1"><g transform="translate(828.773863, 1109.632036)"><g><path d="M 4.515625 0 L 4.515625 -31.015625 L 15.25 -31.015625 C 18.4375 -31.015625 21.21875 -30.359375 23.59375 -29.046875 C 25.96875 -27.734375 27.820312 -25.914062 29.15625 -23.59375 C 30.488281 -21.28125 31.15625 -18.585938 31.15625 -15.515625 C 31.15625 -12.460938 30.488281 -9.769531 29.15625 -7.4375 C 27.820312 -5.101562 25.96875 -3.28125 23.59375 -1.96875 C 21.21875 -0.65625 18.4375 0 15.25 0 Z M 8.421875 -3.71875 L 15.25 -3.71875 C 17.601562 -3.71875 19.675781 -4.210938 21.46875 -5.203125 C 23.257812 -6.191406 24.65625 -7.570312 25.65625 -9.34375 C 26.65625 -11.125 27.15625 -13.179688 27.15625 -15.515625 C 27.15625 -17.867188 26.644531 -19.925781 25.625 -21.6875 C 24.613281 -23.445312 23.207031 -24.820312 21.40625 -25.8125 C 19.601562 -26.800781 17.488281 -27.296875 15.0625 -27.296875 L 8.421875 -27.296875 Z M 8.421875 -3.71875 "/></g></g></g><g fill="#487319" fill-opacity="1"><g transform="translate(897.951286, 1109.632036)"><g><path d="M 18.34375 0.578125 C 16.070312 0.578125 13.972656 0.179688 12.046875 -0.609375 C 10.128906 -1.410156 8.460938 -2.523438 7.046875 -3.953125 C 5.628906 -5.390625 4.523438 -7.09375 3.734375 -9.0625 C 2.953125 -11.03125 2.5625 -13.179688 2.5625 -15.515625 C 2.5625 -17.847656 2.945312 -19.988281 3.71875 -21.9375 C 4.488281 -23.882812 5.582031 -25.582031 7 -27.03125 C 8.414062 -28.476562 10.078125 -29.597656 11.984375 -30.390625 C 13.890625 -31.191406 15.976562 -31.59375 18.25 -31.59375 C 20.613281 -31.59375 22.800781 -31.164062 24.8125 -30.3125 C 26.820312 -29.457031 28.554688 -28.257812 30.015625 -26.71875 C 31.484375 -25.1875 32.539062 -23.398438 33.1875 -21.359375 L 28.9375 -21.359375 C 27.957031 -23.367188 26.550781 -24.925781 24.71875 -26.03125 C 22.894531 -27.132812 20.785156 -27.6875 18.390625 -27.6875 C 16.085938 -27.6875 14.039062 -27.171875 12.25 -26.140625 C 10.46875 -25.109375 9.070312 -23.675781 8.0625 -21.84375 C 7.0625 -20.007812 6.5625 -17.898438 6.5625 -15.515625 C 6.5625 -13.117188 7.066406 -11.003906 8.078125 -9.171875 C 9.097656 -7.335938 10.503906 -5.90625 12.296875 -4.875 C 14.085938 -3.84375 16.132812 -3.328125 18.4375 -3.328125 C 20.53125 -3.328125 22.390625 -3.738281 24.015625 -4.5625 C 25.640625 -5.394531 26.960938 -6.539062 27.984375 -8 C 29.003906 -9.457031 29.644531 -11.160156 29.90625 -13.109375 L 17.28125 -13.109375 L 17.28125 -16.84375 L 34.125 -16.84375 C 34.175781 -13.445312 33.546875 -10.441406 32.234375 -7.828125 C 30.921875 -5.210938 29.070312 -3.15625 26.6875 -1.65625 C 24.3125 -0.164062 21.53125 0.578125 18.34375 0.578125 Z M 18.34375 0.578125 "/></g></g></g><g fill="#487319" fill-opacity="1"><g transform="translate(969.964509, 1109.632036)"><g><path d="M 4.515625 0 L 4.515625 -31.015625 L 23.359375 -31.015625 L 23.359375 -27.390625 L 8.421875 -27.390625 L 8.421875 -17.59375 L 22.25 -17.59375 L 22.25 -14 L 8.421875 -14 L 8.421875 -3.640625 L 23.84375 -3.640625 L 23.84375 0 Z M 4.515625 0 "/></g></g></g><g fill="#487319" fill-opacity="1"><g transform="translate(1032.14117, 1109.632036)"><g><path d="M 14.84375 0.578125 C 12.363281 0.578125 10.210938 0.15625 8.390625 -0.6875 C 6.578125 -1.53125 5.175781 -2.710938 4.1875 -4.234375 C 3.195312 -5.753906 2.6875 -7.519531 2.65625 -9.53125 L 6.5625 -9.53125 C 6.613281 -7.550781 7.398438 -5.988281 8.921875 -4.84375 C 10.453125 -3.707031 12.425781 -3.140625 14.84375 -3.140625 C 17.03125 -3.140625 18.765625 -3.566406 20.046875 -4.421875 C 21.335938 -5.285156 21.984375 -6.484375 21.984375 -8.015625 C 21.984375 -9.460938 21.359375 -10.625 20.109375 -11.5 C 18.867188 -12.375 16.847656 -13.132812 14.046875 -13.78125 C 10.234375 -14.695312 7.441406 -15.867188 5.671875 -17.296875 C 3.898438 -18.734375 3.015625 -20.648438 3.015625 -23.046875 C 3.015625 -25.671875 4.007812 -27.75 6 -29.28125 C 8 -30.820312 10.695312 -31.59375 14.09375 -31.59375 C 17.570312 -31.59375 20.320312 -30.71875 22.34375 -28.96875 C 24.375 -27.226562 25.40625 -24.851562 25.4375 -21.84375 L 21.578125 -21.84375 C 21.546875 -23.707031 20.859375 -25.175781 19.515625 -26.25 C 18.171875 -27.332031 16.363281 -27.875 14.09375 -27.875 C 11.875 -27.875 10.132812 -27.4375 8.875 -26.5625 C 7.625 -25.695312 7 -24.523438 7 -23.046875 C 7 -21.773438 7.582031 -20.703125 8.75 -19.828125 C 9.914062 -18.953125 12.003906 -18.148438 15.015625 -17.421875 C 18.972656 -16.441406 21.796875 -15.21875 23.484375 -13.75 C 25.171875 -12.289062 26.015625 -10.425781 26.015625 -8.15625 C 26.015625 -5.46875 25 -3.335938 22.96875 -1.765625 C 20.945312 -0.203125 18.238281 0.578125 14.84375 0.578125 Z M 14.84375 0.578125 "/></g></g></g></svg>