<svg xmlns="http://www.w3.org/2000/svg" xmlns:xlink="http://www.w3.org/1999/xlink"  zoomAndPan="magnify" viewBox="0 0 1500 1499.999933" preserveAspectRatio="xMidYMid meet" version="1.0"><defs><g/><clipPath id="dc287b20cb"><rect x="0" width="997" y="0" height="463"/></clipPath><clipPath id="ae065bb077"><path d="M 626 680 L 776 680 L 776 871.257812 L 626 871.257812 Z M 626 680 " clip-rule="nonzero"/></clipPath><clipPath id="c37b353e99"><path d="M 601.144531 636 L 754 636 L 754 793 L 601.144531 793 Z M 601.144531 636 " clip-rule="nonzero"/></clipPath><clipPath id="810504ebec"><path d="M 723 581.757812 L 781.894531 581.757812 L 781.894531 648 L 723 648 Z M 723 581.757812 " clip-rule="nonzero"/></clipPath><clipPath id="0a0ec537ea"><rect x="0" width="526" y="0" height="61"/></clipPath></defs><rect x="-150" width="1800" fill="#ffffff" y="-149.999993" height="1799.99992" fill-opacity="1"/><rect x="-150" width="1800" fill="#ffffff" y="-149.999993" height="1799.99992" fill-opacity="1"/><g transform="matrix(1, 0, 0, 1, 242, 539)"><g clip-path="url(#dc287b20cb)"><g fill="#2c3892" fill-opacity="1"><g transform="translate(2.279862, 330.216858)"><g><path d="M 28.609375 -296.859375 C 36.285156 -304.546875 45.445312 -308.390625 56.09375 -308.390625 C 66.75 -308.390625 75.914062 -304.546875 83.59375 -296.859375 C 91.269531 -289.179688 95.109375 -280.015625 95.109375 -269.359375 C 95.109375 -258.710938 91.269531 -249.550781 83.59375 -241.875 C 75.914062 -234.195312 66.75 -230.359375 56.09375 -230.359375 C 45.445312 -230.359375 36.285156 -234.195312 28.609375 -241.875 C 20.929688 -249.550781 17.09375 -258.710938 17.09375 -269.359375 C 17.09375 -280.015625 20.929688 -289.179688 28.609375 -296.859375 Z M 22.296875 -190.609375 L 22.296875 0 L 88.0625 0 L 88.0625 -190.609375 Z M 22.296875 -190.609375 "/></g></g></g><g fill="#2c3892" fill-opacity="1"><g transform="translate(86.243738, 330.216858)"><g><path d="M 105.140625 -196.171875 C 116.046875 -196.171875 126.820312 -194.929688 137.46875 -192.453125 C 148.125 -189.984375 156.050781 -187.507812 161.25 -185.03125 L 169.046875 -181.3125 L 147.5 -138.21875 C 132.644531 -146.144531 118.523438 -150.109375 105.140625 -150.109375 C 97.710938 -150.109375 92.453125 -149.300781 89.359375 -147.6875 C 86.265625 -146.082031 84.71875 -143.050781 84.71875 -138.59375 C 84.71875 -137.59375 84.835938 -136.597656 85.078125 -135.609375 C 85.328125 -134.617188 85.820312 -133.691406 86.5625 -132.828125 C 87.3125 -131.960938 87.992188 -131.21875 88.609375 -130.59375 C 89.234375 -129.976562 90.285156 -129.296875 91.765625 -128.546875 C 93.253906 -127.804688 94.429688 -127.25 95.296875 -126.875 C 96.171875 -126.507812 97.597656 -125.953125 99.578125 -125.203125 C 101.554688 -124.460938 103.039062 -123.90625 104.03125 -123.53125 C 105.019531 -123.164062 106.691406 -122.609375 109.046875 -121.859375 C 111.398438 -121.117188 113.195312 -120.625 114.4375 -120.375 C 122.113281 -118.144531 128.800781 -115.664062 134.5 -112.9375 C 140.195312 -110.21875 146.203125 -106.503906 152.515625 -101.796875 C 158.835938 -97.097656 163.726562 -91.15625 167.1875 -83.96875 C 170.65625 -76.78125 172.390625 -68.609375 172.390625 -59.453125 C 172.390625 -16.097656 142.296875 5.578125 82.109375 5.578125 C 68.484375 5.578125 55.539062 3.472656 43.28125 -0.734375 C 31.019531 -4.953125 22.164062 -9.164062 16.71875 -13.375 L 8.546875 -20.0625 L 35.296875 -65.015625 C 37.273438 -63.285156 39.875 -61.242188 43.09375 -58.890625 C 46.3125 -56.535156 52.128906 -53.3125 60.546875 -49.21875 C 68.972656 -45.132812 76.285156 -43.09375 82.484375 -43.09375 C 96.109375 -43.09375 102.921875 -47.675781 102.921875 -56.84375 C 102.921875 -61.050781 101.1875 -64.332031 97.71875 -66.6875 C 94.25 -69.039062 88.363281 -71.703125 80.0625 -74.671875 C 71.769531 -77.648438 65.269531 -80.378906 60.5625 -82.859375 C 48.675781 -89.046875 39.265625 -96.039062 32.328125 -103.84375 C 25.390625 -111.644531 21.921875 -121.988281 21.921875 -134.875 C 21.921875 -154.195312 29.410156 -169.242188 44.390625 -180.015625 C 59.378906 -190.785156 79.628906 -196.171875 105.140625 -196.171875 Z M 105.140625 -196.171875 "/></g></g></g><g fill="#2c3892" fill-opacity="1"><g transform="translate(240.79852, 330.216858)"><g><path d="M 22.296875 0 L 22.296875 -319.53125 L 88.0625 -319.53125 L 88.0625 0 Z M 22.296875 0 "/></g></g></g><g fill="#2c3892" fill-opacity="1"><g transform="translate(322.904849, 330.216858)"><g/></g></g><g fill="#2c3892" fill-opacity="1"><g transform="translate(396.094343, 330.216858)"><g/></g></g><g fill="#2c3892" fill-opacity="1"><g transform="translate(469.283837, 330.216858)"><g/></g></g><g fill="#2c3892" fill-opacity="1"><g transform="translate(542.514191, 330.216858)"><g><path d="M 22.296875 0 L 22.296875 -190.609375 L 88.0625 -190.609375 L 88.0625 -170.546875 L 88.796875 -170.546875 C 105.890625 -187.628906 124.097656 -196.171875 143.421875 -196.171875 C 152.828125 -196.171875 162.175781 -194.929688 171.46875 -192.453125 C 180.757812 -189.984375 189.675781 -186.144531 198.21875 -180.9375 C 206.757812 -175.738281 213.691406 -168.367188 219.015625 -158.828125 C 224.347656 -149.296875 227.015625 -138.210938 227.015625 -125.578125 L 227.015625 0 L 161.25 0 L 161.25 -107.75 C 161.25 -117.65625 158.085938 -126.320312 151.765625 -133.75 C 145.453125 -141.1875 137.21875 -144.90625 127.0625 -144.90625 C 117.15625 -144.90625 108.175781 -141.066406 100.125 -133.390625 C 92.082031 -125.710938 88.0625 -117.164062 88.0625 -107.75 L 88.0625 0 Z M 22.296875 0 "/></g></g></g><g fill="#2c3892" fill-opacity="1"><g transform="translate(759.857707, 330.216858)"><g><path d="M 35.296875 -23.59375 C 17.460938 -43.039062 8.546875 -66.878906 8.546875 -95.109375 C 8.546875 -123.347656 17.460938 -147.25 35.296875 -166.8125 C 53.128906 -186.382812 75.796875 -196.171875 103.296875 -196.171875 C 128.554688 -196.171875 149.359375 -188.242188 165.703125 -172.390625 L 165.703125 -319.53125 L 231.46875 -319.53125 L 231.46875 0 L 166.453125 0 L 166.453125 -21.546875 L 165.703125 -21.546875 C 149.359375 -3.460938 128.554688 5.578125 103.296875 5.578125 C 75.796875 5.578125 53.128906 -4.144531 35.296875 -23.59375 Z M 91.203125 -127.4375 C 82.660156 -119.019531 78.390625 -108.242188 78.390625 -95.109375 C 78.390625 -81.984375 82.476562 -71.269531 90.65625 -62.96875 C 98.832031 -54.675781 109.609375 -50.53125 122.984375 -50.53125 C 135.859375 -50.53125 146.445312 -54.738281 154.75 -63.15625 C 163.050781 -71.582031 167.203125 -82.234375 167.203125 -95.109375 C 167.203125 -108.242188 162.925781 -119.019531 154.375 -127.4375 C 145.832031 -135.863281 135.367188 -140.078125 122.984375 -140.078125 C 110.347656 -140.078125 99.753906 -135.863281 91.203125 -127.4375 Z M 91.203125 -127.4375 "/></g></g></g></g></g><g clip-path="url(#ae065bb077)"><path fill="#f68712" d="M 742.003906 741.144531 C 740.074219 745.421875 738 749.472656 735.785156 753.300781 C 733.617188 764.257812 727.972656 775.933594 717.761719 787.660156 C 694.769531 814.058594 653.097656 814.96875 626.347656 803.75 C 649.472656 841.027344 688.507812 871.574219 688.507812 871.574219 C 688.507812 871.574219 775.832031 803.238281 775.832031 733.371094 C 775.832031 713.359375 769.105469 694.925781 757.785156 680.207031 C 755.128906 703.40625 749.832031 723.882812 742.003906 741.144531 Z M 742.003906 741.144531 " fill-opacity="1" fill-rule="nonzero"/></g><g clip-path="url(#c37b353e99)"><path fill="#f68712" d="M 668.230469 792.136719 C 681.96875 791.765625 694.808594 787.242188 706.148438 778.832031 C 712.21875 774.335938 717.863281 768.726562 722.984375 762.03125 C 728.101562 755.335938 732.703125 747.558594 736.6875 738.730469 C 744.632812 721.210938 750.152344 699.542969 752.5625 674.023438 C 753.644531 662.414062 754.097656 650.003906 753.832031 636.816406 C 751.171875 646.96875 748.242188 657.082031 745.035156 666.816406 C 739.601562 683.226562 733.339844 698.621094 726.148438 711.515625 C 715.015625 731.496094 701.640625 745.488281 685.660156 748.054688 C 645.359375 754.515625 642.871094 694.539062 685.925781 692.132812 C 699.097656 691.402344 712.355469 697.042969 722.050781 706.84375 C 728.179688 695.503906 734.039062 681.4375 739.488281 664.980469 C 739.707031 664.3125 739.929688 663.636719 740.148438 662.960938 C 725.683594 652.332031 707.832031 646.058594 688.507812 646.058594 C 640.277344 646.058594 601.183594 685.152344 601.183594 733.371094 C 601.183594 734 601.183594 737.238281 601.371094 738.945312 C 605.398438 775.660156 634.058594 793.101562 668.230469 792.136719 Z M 668.230469 792.136719 " fill-opacity="1" fill-rule="nonzero"/></g><g clip-path="url(#810504ebec)"><path fill="#f68712" d="M 754.648438 612.671875 L 761.550781 646.539062 L 781.519531 647.695312 L 756.433594 581.757812 L 723.917969 644.363281 L 743.886719 645.519531 Z M 754.648438 612.671875 " fill-opacity="1" fill-rule="nonzero"/></g><g transform="matrix(1, 0, 0, 1, 492, 887)"><g clip-path="url(#0a0ec537ea)"><g fill="#012c18" fill-opacity="1"><g transform="translate(0.77258, 42.086189)"><g><path d="M 23 0 L 23 -12.90625 L 7.78125 -12.90625 L 7.78125 0 L 4.1875 0 L 4.1875 -28.6875 L 7.78125 -28.6875 L 7.78125 -16.359375 L 23 -16.359375 L 23 -28.6875 L 26.59375 -28.6875 L 26.59375 0 Z M 23 0 "/></g></g></g><g fill="#012c18" fill-opacity="1"><g transform="translate(40.473687, 42.086189)"><g><path d="M 17.21875 0.53125 C 14.320312 0.53125 11.75 -0.101562 9.5 -1.375 C 7.257812 -2.644531 5.507812 -4.398438 4.25 -6.640625 C 3 -8.878906 2.375 -11.445312 2.375 -14.34375 C 2.375 -17.269531 3 -19.84375 4.25 -22.0625 C 5.507812 -24.289062 7.257812 -26.039062 9.5 -27.3125 C 11.75 -28.582031 14.320312 -29.21875 17.21875 -29.21875 C 20.132812 -29.21875 22.707031 -28.582031 24.9375 -27.3125 C 27.164062 -26.039062 28.914062 -24.289062 30.1875 -22.0625 C 31.457031 -19.84375 32.09375 -17.269531 32.09375 -14.34375 C 32.09375 -11.445312 31.457031 -8.878906 30.1875 -6.640625 C 28.914062 -4.398438 27.164062 -2.644531 24.9375 -1.375 C 22.707031 -0.101562 20.132812 0.53125 17.21875 0.53125 Z M 6.0625 -14.34375 C 6.0625 -12.132812 6.53125 -10.179688 7.46875 -8.484375 C 8.414062 -6.785156 9.726562 -5.457031 11.40625 -4.5 C 13.09375 -3.550781 15.03125 -3.078125 17.21875 -3.078125 C 19.425781 -3.078125 21.363281 -3.550781 23.03125 -4.5 C 24.695312 -5.457031 26 -6.785156 26.9375 -8.484375 C 27.882812 -10.179688 28.359375 -12.132812 28.359375 -14.34375 C 28.359375 -16.582031 27.882812 -18.539062 26.9375 -20.21875 C 26 -21.90625 24.695312 -23.222656 23.03125 -24.171875 C 21.363281 -25.128906 19.425781 -25.609375 17.21875 -25.609375 C 15.03125 -25.609375 13.09375 -25.128906 11.40625 -24.171875 C 9.726562 -23.222656 8.414062 -21.90625 7.46875 -20.21875 C 6.53125 -18.539062 6.0625 -16.582031 6.0625 -14.34375 Z M 6.0625 -14.34375 "/></g></g></g><g fill="#012c18" fill-opacity="1"><g transform="translate(83.820973, 42.086189)"><g><path d="M 4.1875 0 L 4.1875 -28.6875 L 15.125 -28.6875 C 17.113281 -28.6875 18.847656 -28.3125 20.328125 -27.5625 C 21.804688 -26.8125 22.953125 -25.753906 23.765625 -24.390625 C 24.585938 -23.023438 25 -21.382812 25 -19.46875 C 25 -17.144531 24.394531 -15.222656 23.1875 -13.703125 C 21.988281 -12.191406 20.335938 -11.175781 18.234375 -10.65625 L 25.453125 0 L 21.109375 0 L 14.09375 -10.28125 L 7.78125 -10.28125 L 7.78125 0 Z M 7.78125 -13.734375 L 14.71875 -13.734375 C 16.820312 -13.734375 18.445312 -14.226562 19.59375 -15.21875 C 20.738281 -16.21875 21.3125 -17.632812 21.3125 -19.46875 C 21.3125 -21.300781 20.738281 -22.722656 19.59375 -23.734375 C 18.445312 -24.742188 16.820312 -25.25 14.71875 -25.25 L 7.78125 -25.25 Z M 7.78125 -13.734375 "/></g></g></g><g fill="#012c18" fill-opacity="1"><g transform="translate(120.654283, 42.086189)"><g><path d="M 4.1875 0 L 4.1875 -28.6875 L 7.78125 -28.6875 L 7.78125 0 Z M 4.1875 0 "/></g></g></g><g fill="#012c18" fill-opacity="1"><g transform="translate(141.550873, 42.086189)"><g><path d="M 2.171875 0 L 2.171875 -2.65625 L 17.421875 -25.25 L 2.578125 -25.25 L 2.578125 -28.6875 L 22.21875 -28.6875 L 22.21875 -26.03125 L 6.96875 -3.4375 L 22.625 -3.4375 L 22.625 0 Z M 2.171875 0 "/></g></g></g><g fill="#012c18" fill-opacity="1"><g transform="translate(175.229596, 42.086189)"><g><path d="M 17.21875 0.53125 C 14.320312 0.53125 11.75 -0.101562 9.5 -1.375 C 7.257812 -2.644531 5.507812 -4.398438 4.25 -6.640625 C 3 -8.878906 2.375 -11.445312 2.375 -14.34375 C 2.375 -17.269531 3 -19.84375 4.25 -22.0625 C 5.507812 -24.289062 7.257812 -26.039062 9.5 -27.3125 C 11.75 -28.582031 14.320312 -29.21875 17.21875 -29.21875 C 20.132812 -29.21875 22.707031 -28.582031 24.9375 -27.3125 C 27.164062 -26.039062 28.914062 -24.289062 30.1875 -22.0625 C 31.457031 -19.84375 32.09375 -17.269531 32.09375 -14.34375 C 32.09375 -11.445312 31.457031 -8.878906 30.1875 -6.640625 C 28.914062 -4.398438 27.164062 -2.644531 24.9375 -1.375 C 22.707031 -0.101562 20.132812 0.53125 17.21875 0.53125 Z M 6.0625 -14.34375 C 6.0625 -12.132812 6.53125 -10.179688 7.46875 -8.484375 C 8.414062 -6.785156 9.726562 -5.457031 11.40625 -4.5 C 13.09375 -3.550781 15.03125 -3.078125 17.21875 -3.078125 C 19.425781 -3.078125 21.363281 -3.550781 23.03125 -4.5 C 24.695312 -5.457031 26 -6.785156 26.9375 -8.484375 C 27.882812 -10.179688 28.359375 -12.132812 28.359375 -14.34375 C 28.359375 -16.582031 27.882812 -18.539062 26.9375 -20.21875 C 26 -21.90625 24.695312 -23.222656 23.03125 -24.171875 C 21.363281 -25.128906 19.425781 -25.609375 17.21875 -25.609375 C 15.03125 -25.609375 13.09375 -25.128906 11.40625 -24.171875 C 9.726562 -23.222656 8.414062 -21.90625 7.46875 -20.21875 C 6.53125 -18.539062 6.0625 -16.582031 6.0625 -14.34375 Z M 6.0625 -14.34375 "/></g></g></g><g fill="#012c18" fill-opacity="1"><g transform="translate(218.576882, 42.086189)"><g><path d="M 4.1875 0 L 4.1875 -28.6875 L 7.578125 -28.6875 L 23.4375 -6.234375 L 23.4375 -28.6875 L 26.96875 -28.6875 L 26.96875 0 L 23.609375 0 L 7.75 -22.453125 L 7.75 0 Z M 4.1875 0 "/></g></g></g><g fill="#012c18" fill-opacity="1"><g transform="translate(258.646673, 42.086189)"><g><path d="M 13.734375 0.53125 C 11.429688 0.53125 9.441406 0.144531 7.765625 -0.625 C 6.085938 -1.40625 4.789062 -2.5 3.875 -3.90625 C 2.957031 -5.320312 2.484375 -6.957031 2.453125 -8.8125 L 6.0625 -8.8125 C 6.113281 -6.976562 6.84375 -5.535156 8.25 -4.484375 C 9.664062 -3.429688 11.492188 -2.90625 13.734375 -2.90625 C 15.753906 -2.90625 17.359375 -3.300781 18.546875 -4.09375 C 19.734375 -4.882812 20.328125 -5.992188 20.328125 -7.421875 C 20.328125 -8.753906 19.753906 -9.820312 18.609375 -10.625 C 17.460938 -11.4375 15.585938 -12.144531 12.984375 -12.75 C 9.460938 -13.59375 6.878906 -14.675781 5.234375 -16 C 3.597656 -17.320312 2.78125 -19.09375 2.78125 -21.3125 C 2.78125 -23.738281 3.703125 -25.660156 5.546875 -27.078125 C 7.390625 -28.503906 9.882812 -29.21875 13.03125 -29.21875 C 16.257812 -29.21875 18.804688 -28.410156 20.671875 -26.796875 C 22.546875 -25.191406 23.5 -22.992188 23.53125 -20.203125 L 19.953125 -20.203125 C 19.929688 -21.921875 19.296875 -23.28125 18.046875 -24.28125 C 16.804688 -25.28125 15.132812 -25.78125 13.03125 -25.78125 C 10.976562 -25.78125 9.367188 -25.375 8.203125 -24.5625 C 7.046875 -23.757812 6.46875 -22.675781 6.46875 -21.3125 C 6.46875 -20.132812 7.007812 -19.140625 8.09375 -18.328125 C 9.175781 -17.523438 11.109375 -16.785156 13.890625 -16.109375 C 17.554688 -15.203125 20.164062 -14.070312 21.71875 -12.71875 C 23.28125 -11.375 24.0625 -9.648438 24.0625 -7.546875 C 24.0625 -5.054688 23.125 -3.085938 21.25 -1.640625 C 19.375 -0.191406 16.867188 0.53125 13.734375 0.53125 Z M 13.734375 0.53125 "/></g></g></g><g fill="#012c18" fill-opacity="1"><g transform="translate(294.087054, 42.086189)"><g/></g></g><g fill="#012c18" fill-opacity="1"><g transform="translate(313.181015, 42.086189)"><g><path d="M 11.109375 0 L 11.109375 -25.25 L 1.390625 -25.25 L 1.390625 -28.6875 L 24.390625 -28.6875 L 24.390625 -25.25 L 14.71875 -25.25 L 14.71875 0 Z M 11.109375 0 "/></g></g></g><g fill="#012c18" fill-opacity="1"><g transform="translate(347.924909, 42.086189)"><g><path d="M 4.1875 0 L 4.1875 -28.6875 L 15.125 -28.6875 C 17.113281 -28.6875 18.847656 -28.3125 20.328125 -27.5625 C 21.804688 -26.8125 22.953125 -25.753906 23.765625 -24.390625 C 24.585938 -23.023438 25 -21.382812 25 -19.46875 C 25 -17.144531 24.394531 -15.222656 23.1875 -13.703125 C 21.988281 -12.191406 20.335938 -11.175781 18.234375 -10.65625 L 25.453125 0 L 21.109375 0 L 14.09375 -10.28125 L 7.78125 -10.28125 L 7.78125 0 Z M 7.78125 -13.734375 L 14.71875 -13.734375 C 16.820312 -13.734375 18.445312 -14.226562 19.59375 -15.21875 C 20.738281 -16.21875 21.3125 -17.632812 21.3125 -19.46875 C 21.3125 -21.300781 20.738281 -22.722656 19.59375 -23.734375 C 18.445312 -24.742188 16.820312 -25.25 14.71875 -25.25 L 7.78125 -25.25 Z M 7.78125 -13.734375 "/></g></g></g><g fill="#012c18" fill-opacity="1"><g transform="translate(384.758219, 42.086189)"><g><path d="M 0.703125 0 L 12.5 -28.6875 L 15.859375 -28.6875 L 27.671875 0 L 23.859375 0 L 21.140625 -6.515625 L 7.171875 -6.515625 L 4.546875 0 Z M 8.5625 -9.875 L 19.796875 -9.875 L 14.1875 -23.640625 Z M 8.5625 -9.875 "/></g></g></g><g fill="#012c18" fill-opacity="1"><g transform="translate(422.042151, 42.086189)"><g><path d="M 12.125 0 L 0.703125 -28.6875 L 4.546875 -28.6875 L 9.296875 -16.59375 L 13.8125 -5.203125 L 18.28125 -16.59375 L 23.078125 -28.6875 L 26.890625 -28.6875 L 15.484375 0 Z M 12.125 0 "/></g></g></g><g fill="#012c18" fill-opacity="1"><g transform="translate(458.547702, 42.086189)"><g><path d="M 4.1875 0 L 4.1875 -28.6875 L 21.59375 -28.6875 L 21.59375 -25.328125 L 7.78125 -25.328125 L 7.78125 -16.265625 L 20.578125 -16.265625 L 20.578125 -12.953125 L 7.78125 -12.953125 L 7.78125 -3.359375 L 22.046875 -3.359375 L 22.046875 0 Z M 4.1875 0 "/></g></g></g><g fill="#012c18" fill-opacity="1"><g transform="translate(492.185455, 42.086189)"><g><path d="M 4.1875 0 L 4.1875 -28.6875 L 7.78125 -28.6875 L 7.78125 -3.4375 L 21.71875 -3.4375 L 21.71875 0 Z M 4.1875 0 "/></g></g></g></g></g></svg>