<svg xmlns="http://www.w3.org/2000/svg" xmlns:xlink="http://www.w3.org/1999/xlink" zoomAndPan="magnify" viewBox="0 0 1500 1499.999933" preserveAspectRatio="xMidYMid meet" version="1.0"><defs><g/><clipPath id="3fe0433b1b"><path d="M 230.691406 517 L 1269.441406 517 L 1269.441406 772 L 230.691406 772 Z M 230.691406 517 " clip-rule="nonzero"/></clipPath><clipPath id="8526e6fa2a"><rect x="0" width="1057" y="0" height="127"/></clipPath><clipPath id="0000f0cc32"><rect x="0" width="587" y="0" height="93"/></clipPath></defs><rect x="-150" width="1800" fill="#ffffff" y="-149.999993" height="1799.99992" fill-opacity="1"/><rect x="-150" width="1800" fill="#ffffff" y="-149.999993" height="1799.99992" fill-opacity="1"/><path fill="#e1a730" d="M 783.980469 407.207031 L 749.996094 293.667969 L 749.996094 407.207031 Z M 749.996094 413.617188 L 794.394531 413.617188 L 749.996094 265.28125 L 705.597656 413.617188 Z M 749.996094 413.617188 " fill-opacity="1" fill-rule="evenodd"/><path fill="#e1a730" d="M 716.007812 1092.726562 L 749.996094 1206.265625 L 749.996094 1092.726562 Z M 749.996094 1086.320312 L 705.597656 1086.320312 L 749.996094 1234.65625 L 794.394531 1086.320312 Z M 749.996094 1086.320312 " fill-opacity="1" fill-rule="evenodd"/><path fill="#e1a730" d="M 986.96875 512.128906 L 1000.402344 525.621094 L 1019.652344 479.324219 L 973.53125 498.644531 Z M 986.96875 512.128906 " fill-opacity="1" fill-rule="evenodd"/><path fill="#e1a730" d="M 513.019531 512.128906 L 526.460938 498.644531 L 480.335938 479.324219 L 499.585938 525.621094 Z M 513.019531 512.128906 " fill-opacity="1" fill-rule="evenodd"/><path fill="#193950" d="M 355.714844 693.875 C 352.671875 695.230469 349.8125 696.667969 346.714844 697.925781 C 348.675781 687.441406 350.527344 677.835938 352.089844 667.230469 C 353.980469 654.394531 358.207031 641.878906 361.496094 629.265625 C 365.800781 612.730469 369.933594 601.457031 377.429688 586.113281 C 383.976562 572.710938 390.640625 558.132812 398 545.238281 C 403.121094 536.414062 409.300781 527.964844 414.722656 519.160156 C 424.585938 503.148438 436.710938 491.292969 447.511719 476.292969 C 454.144531 467.089844 456.851562 457.511719 466.21875 451.195312 C 471.75 447.472656 476.621094 444.621094 482.101562 440.550781 C 500.574219 426.820312 519.578125 414.457031 538.183594 401.011719 C 543.308594 397.308594 548.1875 394.007812 553.671875 390.839844 C 573.316406 379.640625 606.660156 364.269531 628.527344 359.808594 C 638.226562 357.828125 645.25 356.554688 654.777344 353.511719 C 668.042969 349.277344 677.53125 347.109375 691.191406 344.863281 C 693.289062 344.515625 695.378906 344.191406 697.484375 343.871094 C 695.988281 347.960938 694.8125 351.5625 693.734375 355.800781 C 683.730469 356.644531 672.78125 358.800781 662.824219 360.550781 C 649.617188 362.875 639.082031 369.058594 626.441406 373.238281 C 607.40625 379.535156 592.539062 385.507812 574.867188 395.097656 C 565.371094 400.253906 555.933594 404.734375 546.414062 410.09375 C 527.441406 420.742188 512.421875 428.578125 495.570312 442.917969 C 490.542969 447.191406 485.636719 451.921875 480.714844 456.035156 C 474.886719 460.90625 471.179688 462.027344 465.183594 465.371094 C 454.171875 471.507812 450.472656 485.378906 442.8125 495.246094 C 436.261719 503.703125 432.070312 507.167969 426.617188 517.089844 C 422.886719 523.867188 419.765625 529.476562 415.675781 536.074219 C 413.28125 539.941406 410.972656 543.855469 408.691406 547.792969 C 398.984375 564.613281 390.886719 577.917969 383.863281 596.335938 C 376.722656 615.074219 370.824219 632.378906 365.984375 651.863281 C 362.875 664.355469 358.324219 678.320312 356.917969 691.015625 C 356.699219 693.011719 357.179688 692.855469 355.714844 693.875 M 461.046875 1022.003906 C 470.78125 1033.402344 475.890625 1039.390625 487.65625 1048.753906 C 499.503906 1058.171875 510.332031 1067.597656 522.734375 1076.355469 C 529.105469 1080.851562 534.773438 1085.265625 540.972656 1089.875 C 555.015625 1100.0625 580.707031 1109.136719 597.34375 1115.914062 C 609.414062 1120.835938 619.726562 1125.792969 632.25 1130.027344 C 644.546875 1134.1875 657.757812 1137.457031 670.335938 1140.949219 C 679.296875 1143.4375 685.339844 1142.964844 694.257812 1143.613281 C 695.394531 1148.007812 696.515625 1152.019531 697.9375 1156.339844 C 685.875 1155.0625 679.882812 1154.285156 668.277344 1150.890625 C 655.078125 1147.027344 642.519531 1144.804688 629.242188 1140.5 C 600.179688 1131.085938 567.328125 1116.554688 540.824219 1101.335938 C 522.394531 1090.742188 502.570312 1076.019531 487.714844 1060.78125 C 479.894531 1052.683594 475.71875 1049.050781 466.742188 1042.394531 C 457.835938 1035.792969 450.96875 1028.910156 443.65625 1020.609375 C 445.917969 1020.609375 458.976562 1020.554688 460.132812 1021.175781 Z M 1008.613281 1051.273438 C 1019.050781 1041.820312 1029.507812 1031.789062 1039.109375 1021.484375 C 1040.464844 1020.039062 1040.523438 1020.605469 1042.449219 1020.605469 C 1047.078125 1020.605469 1051.710938 1020.605469 1056.335938 1020.605469 C 1042.597656 1036.210938 1030.246094 1048.421875 1014.082031 1061.511719 C 984.582031 1085.421875 961.609375 1104.28125 926.019531 1119.175781 C 912.230469 1124.949219 901.480469 1129.832031 886.90625 1134.117188 C 875.945312 1137.34375 867.0625 1139.597656 856.253906 1143.820312 C 838.398438 1150.804688 823.050781 1156.25 803.679688 1157.257812 C 804.75 1153.554688 805.503906 1149.820312 805.699219 1145.960938 C 805.785156 1144.210938 810.191406 1144.492188 812.007812 1144.265625 C 819.902344 1143.269531 827.355469 1141.476562 835.433594 1140.519531 C 854.957031 1138.191406 859.988281 1135.753906 877.761719 1128.273438 C 888.449219 1123.773438 898.570312 1119.363281 909.417969 1115.101562 C 931.347656 1106.488281 947.800781 1097.253906 967.273438 1084.078125 C 980.949219 1074.832031 991.09375 1066.945312 1003.449219 1055.921875 C 1005.175781 1054.382812 1006.894531 1052.832031 1008.613281 1051.273438 Z M 1093.113281 551.246094 C 1084.640625 534.96875 1082.601562 528.175781 1070.007812 513.742188 C 1062.515625 505.148438 1055.464844 497.195312 1048.292969 488.277344 C 1040.230469 478.253906 1029.203125 467.328125 1020.109375 458.035156 C 1014.351562 452.148438 1008.578125 446.867188 1002.851562 440.8125 C 993.132812 430.535156 984.894531 428.804688 973.113281 422.011719 C 959.515625 414.167969 946.476562 406.121094 932.699219 398.476562 C 919.847656 391.339844 909.621094 385.292969 895.964844 379.472656 C 879.554688 372.480469 867.988281 366.289062 849.996094 363.625 C 834.988281 361.503906 822.503906 356.933594 807.265625 355.839844 C 805.152344 355.683594 806.003906 355.542969 805.238281 352.203125 C 804.554688 349.179688 803.785156 346.496094 802.800781 343.558594 C 829.707031 346.378906 854.550781 353.273438 879.722656 363.015625 C 891.054688 367.363281 901.554688 371.101562 912.796875 375.929688 C 927.535156 382.253906 942.59375 388.941406 956.507812 396.96875 C 968.230469 403.726562 978.578125 412.320312 989.253906 420.472656 C 999.652344 428.417969 1009.835938 434.109375 1020.027344 442.808594 C 1035.464844 455.972656 1049.257812 471.871094 1062.324219 487.378906 C 1074.574219 501.921875 1086.582031 520.972656 1097.164062 537.09375 C 1105.730469 550.25 1119.824219 574.78125 1122.976562 589.785156 C 1126.132812 604.796875 1125.847656 603.039062 1133.007812 616.285156 C 1140.261719 629.710938 1143.871094 642.796875 1145.457031 657.894531 C 1146.546875 668.25 1150.640625 678.625 1152.554688 689.277344 C 1153.070312 692.152344 1153.566406 695.03125 1154.09375 697.90625 C 1152.402344 697.421875 1141.769531 694.886719 1141.484375 693.324219 C 1140.15625 686.015625 1139.125 680.136719 1137.347656 672.839844 C 1133.675781 657.742188 1129.46875 642.375 1125.484375 627.324219 C 1122.40625 615.683594 1119.875 610.078125 1114.957031 599.578125 C 1110.058594 589.109375 1107.082031 578.773438 1101.773438 568.105469 C 1098.964844 562.445312 1096.046875 556.84375 1093.113281 551.246094 Z M 1093.113281 551.246094 " fill-opacity="1" fill-rule="nonzero"/><path fill="#193950" d="M 968.863281 1020.605469 C 909.128906 1069.320312 832.960938 1098.527344 749.996094 1098.527344 C 667.03125 1098.527344 590.867188 1069.320312 531.128906 1020.605469 L 572.195312 1020.605469 C 623.191406 1054.425781 684.300781 1074.113281 749.996094 1074.113281 C 815.691406 1074.113281 876.804688 1054.425781 927.804688 1020.605469 Z M 749.996094 401.410156 C 845.898438 401.410156 932.722656 440.421875 995.570312 503.496094 C 1058.417969 566.574219 1097.292969 653.714844 1097.289062 749.964844 C 1097.289062 753.457031 1097.242188 756.925781 1097.140625 760.390625 L 1072.804688 760.390625 C 1072.910156 756.925781 1072.964844 753.457031 1072.964844 749.964844 C 1072.964844 660.453125 1036.8125 579.414062 978.367188 520.761719 C 919.925781 462.105469 839.183594 425.820312 749.996094 425.820312 C 660.804688 425.820312 580.0625 462.105469 521.621094 520.761719 C 463.175781 579.414062 427.027344 660.453125 427.027344 749.964844 C 427.027344 753.457031 427.082031 756.925781 427.195312 760.390625 L 402.855469 760.390625 C 402.75 756.925781 402.699219 753.457031 402.699219 749.964844 C 402.699219 653.714844 441.570312 566.570312 504.417969 503.496094 C 567.265625 440.421875 654.089844 401.410156 749.996094 401.410156 Z M 749.996094 401.410156 " fill-opacity="1" fill-rule="nonzero"/><path fill="#193950" d="M 1085.125 749.964844 L 1085.125 760.394531 L 1091.511719 760.394531 L 1091.511719 749.964844 L 1204.640625 749.964844 L 1170.058594 760.394531 L 1198.339844 760.394531 L 1232.921875 749.964844 L 1085.125 705.40625 Z M 1085.125 749.964844 " fill-opacity="1" fill-rule="evenodd"/><path fill="#193950" d="M 408.476562 715.859375 L 295.347656 749.96875 L 408.476562 749.96875 Z M 414.863281 749.964844 L 414.863281 705.40625 L 267.066406 749.964844 L 301.648438 760.390625 L 414.863281 760.390625 Z M 414.863281 749.964844 " fill-opacity="1" fill-rule="evenodd"/><path fill="#193950" d="M 927.804688 1020.605469 L 1268.304688 1020.605469 L 927.804688 1048.273438 Z M 927.804688 1020.605469 " fill-opacity="1" fill-rule="evenodd"/><path fill="#193950" d="M 572.195312 1020.605469 L 231.679688 1020.605469 L 572.195312 1048.273438 Z M 572.195312 1020.605469 " fill-opacity="1" fill-rule="evenodd"/><g clip-path="url(#3fe0433b1b)"><path fill="#193950" d="M 742.417969 544.191406 C 742.417969 544.191406 741.59375 556.195312 740.355469 561.578125 C 739.113281 566.964844 744.476562 566.960938 735.40625 572.347656 C 726.324219 577.726562 719.730469 579.382812 719.730469 579.382812 L 746.128906 619.960938 L 718.488281 591.804688 C 718.488281 591.804688 715.601562 599.667969 716.011719 603.398438 C 716.425781 607.125 718.488281 607.125 715.1875 611.675781 C 711.894531 616.226562 708.59375 617.882812 708.59375 617.882812 L 713.128906 652.25 L 702.398438 629.480469 C 702.398438 629.480469 701.578125 642.316406 697.035156 649.765625 C 692.5 657.21875 694.976562 656.800781 687.136719 661.773438 C 679.300781 666.742188 677.648438 666.324219 674.757812 667.984375 C 671.875 669.636719 666.097656 671.292969 666.097656 671.292969 L 670.222656 701.933594 L 658.675781 681.644531 C 658.675781 681.644531 652.488281 695.722656 649.1875 700.277344 C 645.886719 704.832031 645.886719 704.832031 638.875 708.558594 C 631.863281 712.289062 626.492188 715.59375 626.492188 715.59375 L 654.550781 708.144531 C 654.550781 708.144531 670.222656 710.214844 673.105469 712.699219 C 676 715.183594 686.3125 715.59375 686.3125 715.59375 L 694.976562 674.609375 C 694.976562 674.609375 692.5 711.042969 695.386719 709.804688 C 698.277344 708.558594 721.785156 687.023438 725.089844 687.023438 C 728.390625 687.023438 739.9375 689.929688 739.9375 689.929688 L 724.671875 646.039062 L 751.902344 686.613281 C 751.902344 686.613281 773.351562 672.121094 781.191406 675.4375 C 789.027344 678.746094 800.582031 679.574219 803.878906 682.0625 C 807.179688 684.542969 768.402344 628.652344 768.816406 631.136719 C 769.226562 633.621094 803.050781 666.742188 803.050781 666.742188 L 799.753906 644.796875 L 817.90625 644.796875 L 779.128906 610.84375 L 823.265625 639 C 823.265625 639 817.078125 613.332031 814.605469 612.09375 C 812.132812 610.84375 808.417969 609.605469 804.292969 605.882812 C 800.167969 602.152344 772.933594 567.375 772.933594 567.375 L 752.308594 542.121094 L 766.339844 579.792969 Z M 982.910156 643.347656 C 982.910156 643.347656 986.007812 647.074219 984.976562 650.59375 C 983.941406 654.113281 984.765625 655.355469 982.292969 656.1875 C 979.820312 657.007812 979.609375 666.949219 979.609375 666.949219 L 1003.75 704.007812 L 977.753906 671.503906 C 977.753906 671.503906 974.042969 676.472656 974.457031 678.128906 C 974.863281 679.785156 973.421875 681.234375 972.597656 682.882812 C 971.773438 684.542969 967.234375 686.199219 967.234375 686.199219 L 973.628906 705.867188 L 961.25 691.996094 C 961.25 691.996094 956.714844 704.210938 954.859375 706.492188 C 953.003906 708.765625 953.617188 708.976562 950.9375 710.417969 C 948.253906 711.871094 945.371094 712.90625 945.371094 712.90625 L 950.730469 728.636719 L 942.273438 716.421875 C 942.273438 716.421875 934.023438 721.390625 932.167969 723.878906 C 930.3125 726.359375 927.839844 729.464844 924.746094 730.710938 C 921.648438 731.953125 917.113281 734.433594 917.113281 734.433594 L 939.800781 731.539062 L 961.25 738.78125 L 960.632812 714.769531 L 968.886719 731.742188 C 968.886719 731.742188 974.863281 723.875 983.121094 724.5 C 991.367188 725.113281 992.8125 723.25 995.289062 725.113281 C 997.765625 726.980469 985.382812 700.277344 985.382812 700.277344 L 1000.03125 722.011719 C 1000.03125 722.011719 1014.675781 715.800781 1020.246094 717.042969 C 1025.8125 718.28125 1040.871094 715.386719 1040.871094 715.386719 L 1007.25 677.300781 L 1031.382812 695.933594 L 1046.027344 688.480469 L 1064.382812 692.621094 L 1036.328125 675.019531 L 1063.351562 684.753906 C 1063.351562 684.753906 1052.417969 673.367188 1050.359375 672.953125 C 1048.292969 672.539062 1045.40625 670.675781 1039.222656 666.328125 C 1033.035156 661.980469 1019.832031 647.074219 1019.832031 647.074219 C 1019.832031 647.074219 1001.472656 645.421875 1001.269531 644.179688 C 1001.054688 642.933594 996.113281 634.863281 996.113281 634.863281 L 993.84375 641.695312 L 1018.390625 669.535156 Z M 486.132812 629.894531 C 486.132812 629.894531 485.308594 642.3125 484.484375 645.214844 C 483.660156 648.109375 495.621094 674.609375 495.621094 674.609375 L 477.472656 648.109375 C 477.472656 648.109375 474.996094 655.5625 473.761719 659.082031 C 472.519531 662.601562 472.109375 664.050781 470.871094 665.496094 C 469.632812 666.949219 468.394531 665.914062 468.597656 667.777344 C 468.804688 669.636719 480.769531 691.167969 478.917969 691.375 C 477.054688 691.585938 465.710938 673.78125 465.710938 673.78125 C 465.710938 673.78125 463.441406 681.648438 460.351562 687.445312 C 457.253906 693.242188 454.164062 693.03125 453.132812 695.515625 C 452.097656 698 459.730469 712.074219 459.730469 712.074219 C 459.730469 712.074219 452.308594 697.589844 450.863281 699.863281 C 449.414062 702.140625 448.933594 705.492188 445.5 708.347656 C 442.066406 711.207031 444.257812 709.800781 439.101562 712.070312 C 433.941406 714.351562 427.960938 715.800781 427.960938 715.800781 C 427.960938 715.800781 443.636719 714.144531 446.113281 714.972656 C 448.589844 715.800781 458.074219 718.078125 461.792969 719.117188 C 465.503906 720.152344 474.585938 721.808594 474.585938 720.5625 C 474.585938 719.324219 467.15625 693.859375 468.183594 695.515625 C 469.21875 697.167969 480.976562 712.070312 480.976562 712.070312 C 480.976562 712.070312 489.636719 707.3125 496.652344 708.140625 C 503.664062 708.96875 509.234375 711.242188 507.378906 708.96875 C 505.519531 706.691406 483.660156 679.15625 483.660156 679.15625 L 507.792969 696.757812 C 507.792969 696.757812 522.851562 681.640625 526.359375 682.058594 C 529.863281 682.46875 540.789062 682.058594 540.789062 682.058594 L 512.746094 662.800781 L 540.382812 674.398438 L 546.367188 662.183594 C 546.367188 662.183594 531.519531 652.664062 528.214844 651.210938 C 524.914062 649.761719 512.949219 644.792969 509.851562 642.097656 C 506.761719 639.40625 493.972656 620.363281 493.972656 620.363281 L 492.523438 626.988281 L 505.109375 650.175781 Z M 887.292969 662.582031 C 876.980469 656.398438 865.699219 647.644531 865.699219 647.644531 C 865.699219 647.644531 862.804688 631.375 839.238281 617.273438 C 815.675781 603.175781 775.964844 564.132812 790.011719 570.03125 C 790.011719 570.03125 748.050781 520.507812 743.527344 517.34375 C 739.011719 514.183594 729.800781 539.472656 729.800781 539.472656 L 702.082031 555.277344 L 684.929688 547.90625 C 684.929688 547.90625 666.683594 566.867188 658.652344 577.40625 C 650.628906 587.945312 649.765625 594.265625 631.125 610.070312 C 612.480469 625.878906 571.78125 654.121094 571.78125 654.121094 L 566.292969 663.226562 L 513.417969 636.121094 L 491.488281 601.945312 L 475.234375 627.984375 C 475.234375 627.984375 471.542969 624.828125 463.828125 626.933594 C 456.117188 629.035156 441.742188 643.792969 435.25 649.0625 C 428.765625 654.328125 423.097656 669.949219 415.101562 674.164062 C 407.101562 678.375 356.820312 701.671875 356.820312 701.671875 C 356.820312 701.671875 318.421875 719.65625 310.285156 724.925781 C 302.144531 730.195312 285.605469 736.515625 273.742188 744.945312 C 267.234375 749.570312 247.335938 761.46875 230.691406 771.285156 L 743.261719 771.285156 C 779.246094 757.5625 874.609375 716.554688 866.058594 711.199219 C 858.015625 706.160156 847.160156 699.828125 846.347656 694.832031 C 845.589844 690.140625 855.421875 676.855469 887.292969 662.582031 Z M 793.34375 758.246094 C 794.375 757.515625 795.40625 756.898438 796.125 756.480469 C 796.851562 756.070312 797.777344 755.855469 797.777344 755.855469 L 797.882812 758.554688 Z M 835.675781 740.003906 C 835.675781 740.003906 833.742188 740.148438 834.15625 741.742188 C 834.566406 743.335938 835.609375 743.546875 835.609375 743.546875 C 835.609375 743.546875 836.714844 742.085938 837.265625 741.878906 C 837.816406 741.671875 838.71875 740.140625 838.71875 740.140625 Z M 815.410156 758.65625 C 814.0625 759.179688 813.03125 759.382812 813.03125 760.105469 C 813.03125 760.832031 814.273438 761.660156 814.273438 761.660156 L 815.511719 761.140625 Z M 762.914062 770.347656 C 762.914062 770.347656 765.285156 768.175781 766.109375 767.867188 C 766.933594 767.5625 768.480469 767.972656 768.992188 768.695312 C 769.515625 769.421875 769.828125 769.316406 769.925781 769.9375 C 770.03125 770.5625 770.441406 770.871094 769.515625 771.390625 C 768.585938 771.90625 764.359375 772.425781 762.914062 770.347656 Z M 791.894531 764.558594 C 790.347656 765.953125 790.242188 767.347656 790.242188 767.046875 C 790.242188 767.046875 792.40625 768.695312 793.445312 768.175781 C 794.472656 767.660156 794.261719 768.285156 794.988281 767.25 C 795.707031 766.214844 796.117188 765.589844 795.914062 764.867188 C 795.707031 764.140625 791.894531 764.558594 791.894531 764.558594 Z M 818.394531 745.511719 C 818.394531 745.511719 817.621094 745.980469 817.570312 746.441406 C 817.523438 746.910156 817.570312 747.480469 818.132812 747.480469 C 818.707031 747.480469 818.394531 747.582031 819.171875 747.480469 C 819.941406 747.375 820.558594 747.53125 820.667969 747.113281 C 820.769531 746.699219 820.820312 745.40625 820.820312 745.40625 C 820.820312 745.40625 819.324219 744.269531 818.394531 745.511719 Z M 828.425781 750.832031 C 828.425781 750.832031 826.484375 750.96875 826.902344 752.570312 C 827.316406 754.164062 828.355469 754.375 828.355469 754.375 C 828.355469 754.375 829.460938 752.917969 830.019531 752.703125 C 830.570312 752.5 831.472656 750.96875 831.472656 750.96875 Z M 847.605469 730.199219 C 848.632812 729.472656 849.664062 728.855469 850.386719 728.441406 C 851.109375 728.023438 852.035156 727.820312 852.035156 727.820312 L 852.140625 730.511719 Z M 856.144531 734.027344 C 854.800781 734.539062 853.769531 734.753906 853.769531 735.476562 C 853.769531 736.199219 855.007812 737.027344 855.007812 737.027344 L 856.242188 736.507812 Z M 872.855469 714.195312 C 872.855469 714.195312 870.917969 714.332031 871.335938 715.933594 C 871.75 717.527344 872.785156 717.734375 872.785156 717.734375 C 872.785156 717.734375 873.898438 716.277344 874.449219 716.070312 C 875.003906 715.859375 875.902344 714.332031 875.902344 714.332031 Z M 863.804688 725.082031 C 863.804688 725.082031 863.035156 725.546875 862.980469 726.015625 C 862.933594 726.476562 862.980469 727.050781 863.554688 727.050781 C 864.117188 727.050781 863.804688 727.148438 864.582031 727.050781 C 865.359375 726.945312 865.972656 727.097656 866.078125 726.6875 C 866.179688 726.269531 866.230469 724.976562 866.230469 724.976562 C 866.230469 724.976562 864.738281 723.839844 863.804688 725.082031 Z M 889.246094 712.910156 C 887.90625 713.429688 886.875 713.636719 886.875 714.363281 C 886.875 715.085938 888.113281 715.914062 888.113281 715.914062 L 889.34375 715.398438 Z M 877.890625 703.21875 C 877.890625 703.21875 875.953125 703.359375 876.371094 704.957031 C 876.789062 706.554688 877.824219 706.765625 877.824219 706.765625 C 877.824219 706.765625 878.925781 705.300781 879.488281 705.09375 C 880.039062 704.886719 880.9375 703.359375 880.9375 703.359375 Z M 881.34375 723.484375 C 881.144531 722.234375 881.039062 721.03125 880.980469 720.199219 C 880.925781 719.367188 881.148438 718.4375 881.148438 718.4375 L 883.605469 719.523438 Z M 864.492188 707.21875 C 864.492188 707.21875 865.6875 706.125 866.09375 705.972656 C 866.511719 705.816406 867.285156 706.03125 867.546875 706.390625 C 867.800781 706.75 867.960938 706.703125 868.011719 707.015625 C 868.058594 707.324219 868.273438 707.480469 867.800781 707.742188 C 867.335938 708.003906 865.222656 708.261719 864.492188 707.21875 Z M 882.132812 709.34375 C 882.132812 709.34375 883.320312 708.253906 883.734375 708.09375 C 884.148438 707.9375 884.921875 708.148438 885.183594 708.511719 C 885.4375 708.871094 885.597656 708.824219 885.648438 709.132812 C 885.695312 709.445312 885.910156 709.601562 885.4375 709.863281 C 884.972656 710.121094 882.855469 710.378906 882.132812 709.34375 Z M 853.078125 694.679688 C 852.878906 693.4375 852.773438 692.234375 852.722656 691.402344 C 852.667969 690.5625 852.882812 689.640625 852.882812 689.640625 L 855.339844 690.722656 Z M 858.152344 698.933594 C 856.808594 699.457031 855.78125 699.664062 855.78125 700.386719 C 855.78125 701.109375 857.015625 701.933594 857.015625 701.933594 L 858.25 701.417969 Z M 861.027344 700.742188 C 861.027344 700.742188 862.21875 699.648438 862.632812 699.496094 C 863.039062 699.339844 863.816406 699.546875 864.078125 699.914062 C 864.339844 700.273438 864.492188 700.222656 864.542969 700.539062 C 864.589844 700.847656 864.804688 701.003906 864.339844 701.261719 C 863.875 701.523438 861.75 701.785156 861.027344 700.742188 Z M 857.730469 682.394531 C 857.730469 682.394531 858.644531 681.554688 858.964844 681.429688 C 859.285156 681.3125 859.882812 681.472656 860.082031 681.75 C 860.289062 682.03125 860.402344 681.988281 860.441406 682.234375 C 860.484375 682.472656 860.648438 682.589844 860.289062 682.792969 C 859.929688 682.988281 858.289062 683.191406 857.730469 682.394531 Z M 860.816406 686.460938 C 859.953125 686.792969 859.289062 686.929688 859.289062 687.394531 C 859.289062 687.863281 860.082031 688.398438 860.082031 688.398438 L 860.886719 688.0625 Z M 868.398438 678.347656 C 867.535156 678.675781 866.863281 678.8125 866.863281 679.277344 C 866.863281 679.746094 867.664062 680.277344 867.664062 680.277344 L 868.46875 679.941406 Z M 874.6875 671.351562 C 874.066406 671.59375 873.597656 671.691406 873.597656 672.015625 C 873.597656 672.355469 874.167969 672.734375 874.167969 672.734375 L 874.738281 672.5 Z M 881.308594 667.785156 C 880.820312 667.972656 880.453125 668.039062 880.453125 668.300781 C 880.453125 668.558594 880.894531 668.855469 880.894531 668.855469 L 881.34375 668.671875 Z M 872.84375 675.613281 C 872.363281 675.796875 871.992188 675.871094 871.992188 676.128906 C 871.992188 676.394531 872.4375 676.6875 872.4375 676.6875 L 872.878906 676.503906 Z M 867.996094 675.042969 C 867.511719 675.222656 867.144531 675.300781 867.144531 675.5625 C 867.144531 675.816406 867.59375 676.113281 867.59375 676.113281 L 868.035156 675.929688 Z M 860.308594 693.105469 C 859.828125 693.292969 859.460938 693.367188 859.460938 693.625 C 859.460938 693.882812 859.902344 694.179688 859.902344 694.179688 L 860.351562 693.988281 Z M 850.289062 696.144531 C 849.8125 696.332031 849.445312 696.40625 849.445312 696.667969 C 849.445312 696.925781 849.886719 697.21875 849.886719 697.21875 L 850.328125 697.039062 Z M 878.417969 670.472656 C 877.933594 670.660156 877.570312 670.734375 877.570312 670.992188 C 877.570312 671.253906 878.015625 671.546875 878.015625 671.546875 L 878.453125 671.359375 Z M 885.324219 664.730469 C 884.847656 664.914062 884.480469 664.988281 884.480469 665.25 C 884.480469 665.503906 884.921875 665.804688 884.921875 665.804688 L 885.363281 665.617188 Z M 809.386719 750.40625 C 808.523438 750.738281 807.859375 750.875 807.859375 751.34375 C 807.859375 751.808594 808.65625 752.339844 808.65625 752.339844 L 809.457031 752.007812 Z M 804.4375 763.859375 C 803.570312 764.195312 802.910156 764.328125 802.910156 764.796875 C 802.910156 765.261719 803.707031 765.796875 803.707031 765.796875 L 804.503906 765.460938 Z M 781.132812 762 C 780.261719 762.335938 779.601562 762.46875 779.601562 762.933594 C 779.601562 763.402344 780.402344 763.933594 780.402344 763.933594 L 781.195312 763.597656 Z M 843.050781 732.746094 C 842.1875 733.085938 841.519531 733.214844 841.519531 733.679688 C 841.519531 734.144531 842.316406 734.683594 842.316406 734.683594 L 843.121094 734.347656 Z M 847.382812 739.160156 C 846.519531 739.496094 845.847656 739.636719 845.847656 740.101562 C 845.847656 740.566406 846.652344 741.097656 846.652344 741.097656 L 847.449219 740.765625 Z M 825.929688 737.816406 C 825.066406 738.152344 824.398438 738.289062 824.398438 738.753906 C 824.398438 739.214844 825.199219 739.753906 825.199219 739.753906 L 826 739.421875 Z M 874.664062 724.523438 C 873.800781 724.863281 873.140625 725 873.140625 725.46875 C 873.140625 725.933594 873.933594 726.460938 873.933594 726.460938 L 874.738281 726.132812 Z M 865.429688 718.253906 C 864.5625 718.589844 863.898438 718.730469 863.898438 719.1875 C 863.898438 719.65625 864.699219 720.191406 864.699219 720.191406 L 865.496094 719.859375 Z M 822.9375 757.175781 C 822.074219 757.507812 821.40625 757.644531 821.40625 758.117188 C 821.40625 758.578125 822.207031 759.109375 822.207031 759.109375 L 823.007812 758.78125 Z M 817.78125 749.207031 C 816.917969 749.539062 816.257812 749.675781 816.257812 750.140625 C 816.257812 750.605469 817.050781 751.136719 817.050781 751.136719 L 817.851562 750.808594 Z M 799.835938 748.480469 C 798.972656 748.816406 798.308594 748.949219 798.308594 749.421875 C 798.308594 749.882812 799.101562 750.414062 799.101562 750.414062 L 799.90625 750.085938 Z M 753.738281 768.871094 C 752.875 769.207031 752.210938 769.34375 752.210938 769.808594 C 752.210938 770.277344 753.003906 770.804688 753.003906 770.804688 L 753.808594 770.476562 Z M 786.839844 768.976562 C 785.980469 769.3125 785.3125 769.441406 785.3125 769.910156 C 785.3125 770.378906 786.109375 770.910156 786.109375 770.910156 L 786.910156 770.574219 Z M 1269.300781 771.285156 C 1269.300781 771.285156 1247.011719 757.894531 1236.296875 749.21875 C 1225.585938 740.542969 1225.785156 742.777344 1211.679688 734.101562 C 1197.570312 725.425781 1182.277344 712.648438 1141.214844 701.839844 C 1100.144531 691.023438 1078.308594 687.929688 1063.261719 674.296875 C 1048.214844 660.660156 1033.289062 645.476562 1016.1875 640.050781 C 999.09375 634.625 996.019531 625.949219 996.019531 625.949219 L 983.363281 637.882812 L 955.371094 631.378906 L 926.804688 654.152344 C 926.804688 654.152344 909.199219 664.996094 902.8125 668.253906 C 900.722656 669.320312 896.035156 667.480469 890.660156 664.53125 C 872.503906 676.40625 849.503906 694.867188 872.445312 700.078125 C 907.105469 707.945312 906.6875 713.328125 872.035156 731.542969 C 850.472656 742.878906 823.554688 758.738281 802.984375 771.289062 L 1269.300781 771.289062 Z M 1269.300781 771.285156 " fill-opacity="1" fill-rule="evenodd"/></g><path fill="#e1a730" d="M 812.46875 518.464844 C 810.878906 517.871094 811.238281 515.882812 811.183594 514.40625 C 810.996094 509.734375 810.792969 506.214844 811.132812 501.488281 C 811.507812 496.386719 811.089844 491.382812 811.269531 486.214844 C 811.453125 481.304688 811.730469 476.652344 811.785156 471.714844 C 811.828125 467.34375 811.988281 464.199219 811.570312 459.777344 C 811.328125 457.210938 811.207031 454.910156 811.199219 452.328125 C 811.191406 451.253906 810.996094 446.734375 811.183594 446.089844 C 811.875 443.636719 815.910156 443.503906 815.769531 447.351562 C 815.609375 452.3125 815.597656 457.195312 815.382812 462.175781 C 815.148438 467.898438 815.050781 474.078125 815.074219 479.808594 C 815.101562 484.828125 815.304688 489.699219 815.25 494.742188 C 815.1875 499.828125 815.445312 504.332031 815.09375 509.527344 C 814.941406 511.847656 814.761719 514.175781 814.621094 516.5 C 814.554688 517.714844 813.730469 518.628906 812.46875 518.464844 M 795.570312 518.425781 C 793.164062 510.117188 790.835938 501.84375 788.867188 493.414062 C 787.683594 488.394531 786.238281 483.742188 785.160156 478.621094 C 784.183594 473.957031 782.515625 469.4375 781.335938 464.746094 C 780.195312 460.1875 778.933594 455.636719 777.753906 451.074219 C 777.132812 448.660156 776.527344 447.113281 775.65625 444.820312 C 775.074219 443.269531 774.644531 441.097656 776.816406 440.597656 C 779.808594 439.910156 779.980469 444.558594 780.296875 446.542969 C 781.050781 451.203125 782.683594 455.984375 783.953125 460.574219 C 784.976562 464.292969 785.972656 467.90625 786.953125 471.644531 C 788.242188 476.578125 789.910156 481.222656 791.152344 486.253906 C 792.652344 492.320312 794.425781 498.261719 796.128906 504.273438 C 797.390625 508.738281 798.753906 513.152344 800.074219 517.59375 C 801.71875 523.125 796.558594 521.117188 795.710938 518.890625 Z M 738.875 451.761719 C 737.402344 448.683594 735.882812 446.367188 734.238281 443.464844 C 732.980469 441.253906 735.21875 439.285156 737.179688 442.453125 C 740.40625 447.625 743.917969 451.992188 747.003906 457.394531 C 750.140625 462.890625 752.769531 468.445312 756.046875 473.9375 C 759.167969 479.15625 762.410156 484.011719 765.210938 489.429688 C 766.925781 492.75 768.671875 495.167969 770.101562 498.726562 C 772.050781 503.578125 772.347656 503.832031 775.527344 508.066406 C 778.769531 512.375 781.648438 517.476562 784.222656 522.242188 C 785.066406 523.808594 785.65625 526.015625 783.492188 526.847656 C 780.714844 527.921875 779.476562 523.867188 778.652344 521.890625 C 777.28125 518.621094 776.078125 516.308594 774.40625 513.199219 C 772.714844 510.054688 771.339844 506.546875 769.660156 503.5625 C 767.820312 500.304688 764.859375 497.9375 762.859375 494.253906 C 760.875 490.613281 759.253906 487.152344 757.09375 483.507812 C 756.140625 481.890625 755.183594 480.277344 754.25 478.640625 C 751.757812 474.25 749.457031 470.199219 746.738281 465.929688 C 743.804688 461.328125 741.246094 456.683594 738.875 451.761719 Z M 768.535156 535.402344 C 764.480469 531.734375 759.234375 527.019531 756.039062 522.671875 C 752.710938 518.136719 752.175781 518.472656 748.152344 515.019531 C 747.246094 514.242188 746.457031 513.460938 745.625 512.609375 C 741.125 508.039062 736.347656 504.285156 731.953125 499.503906 C 728.101562 495.3125 723.902344 491 719.835938 487.019531 C 715.382812 482.664062 710.570312 478.410156 706.214844 474.015625 C 702.398438 470.140625 698.726562 465.957031 694.964844 461.984375 C 691.933594 458.777344 689.554688 455.679688 686.210938 452.773438 C 685.167969 451.867188 683.363281 450.652344 684.425781 449.042969 C 685.417969 447.527344 687.070312 448.773438 687.890625 449.734375 C 690.765625 453.113281 692.003906 453.914062 695.363281 456.652344 C 699.210938 459.792969 703.464844 464.1875 706.949219 467.789062 C 711.347656 472.363281 715.367188 476.511719 719.433594 481.433594 C 721.734375 484.214844 723.269531 485.886719 725.9375 488.332031 C 728.621094 490.796875 730.09375 492.605469 732.433594 495.28125 C 736.132812 499.519531 740.929688 503.011719 745.03125 506.984375 C 751.242188 512.984375 757.0625 518.734375 763.621094 524.371094 C 765.332031 525.847656 766.878906 527.253906 768.4375 528.90625 C 769.589844 530.148438 770.6875 531.410156 771.773438 532.71875 C 773.925781 535.34375 771.15625 537.796875 768.535156 535.402344 Z M 622.511719 467.132812 C 624.066406 465.714844 625.738281 467.136719 627.203125 467.949219 C 635.449219 472.519531 643.492188 477.320312 651.769531 481.875 C 656.589844 484.539062 660.945312 487.34375 665.632812 490.152344 C 669.914062 492.726562 674.609375 495.097656 679.003906 497.574219 C 683.390625 500.035156 686.382812 501.605469 690.390625 504.800781 C 693.851562 507.558594 698.320312 509.472656 702.21875 511.757812 C 706.863281 514.492188 711.445312 516.542969 716.085938 519.113281 C 716.449219 519.320312 716.96875 519.585938 717.289062 519.851562 C 719.121094 521.71875 717.445312 525.257812 714.136719 522.976562 C 711.554688 521.191406 710.140625 520.273438 707.335938 518.804688 C 703.75 516.910156 702.519531 515.914062 699.386719 513.460938 C 696.128906 510.921875 692.15625 509.628906 688.402344 507.867188 C 686.375 506.914062 684.398438 506.007812 682.425781 504.933594 C 676.84375 501.859375 671.175781 498.542969 665.761719 495.1875 L 665.367188 494.945312 C 660.882812 492.164062 657.171875 488.808594 652.527344 486.324219 C 649.210938 484.550781 646.675781 482.929688 643.167969 481.375 C 638.601562 479.339844 635.472656 477.453125 631.253906 474.898438 C 630.042969 474.167969 628.847656 473.433594 627.648438 472.691406 C 626.667969 472.085938 622.976562 470.113281 622.484375 469.429688 C 621.929688 468.644531 621.972656 467.886719 622.511719 467.132812 Z M 670.996094 541.882812 C 667.273438 541.007812 662.171875 539.519531 658.703125 538.003906 C 653.382812 535.675781 652.203125 536.996094 647.453125 535.871094 C 641.316406 534.410156 635.34375 532.316406 629.332031 530.425781 C 625.726562 529.296875 621.6875 528.429688 617.976562 527.402344 C 613.460938 526.15625 608.550781 525.296875 603.925781 524.167969 C 596.960938 522.480469 590.296875 520.519531 583.417969 518.546875 C 575.941406 516.398438 568.285156 514.808594 560.785156 512.691406 C 559.410156 512.300781 558.210938 511.796875 558.375 509.988281 C 558.546875 508.027344 560.398438 507.429688 562.121094 507.800781 C 566.613281 508.816406 571.296875 510.777344 575.839844 512.097656 C 581.253906 513.675781 586.054688 516.109375 591.515625 517.164062 C 595.28125 517.886719 598.769531 518.351562 602.550781 519.269531 C 607.40625 520.445312 611.972656 521.570312 616.625 523.414062 C 619.597656 524.582031 623.070312 525.019531 626.234375 525.84375 C 630.601562 526.980469 635.050781 527.566406 639.507812 528.519531 C 644.335938 529.550781 649.554688 530.640625 654.324219 531.871094 C 657.949219 532.816406 661.695312 534.507812 665.410156 535.636719 C 667.433594 536.253906 671.726562 537.421875 673.457031 538.421875 L 673.617188 538.515625 L 673.890625 538.730469 C 675.507812 540.425781 673.648438 542.433594 671.453125 541.976562 Z M 524.585938 580.695312 C 519.6875 580.570312 515.03125 580.746094 510.089844 580.496094 C 507.625 580.363281 505.375 580.285156 502.90625 580.273438 C 498.179688 580.226562 499.0625 575.765625 502.265625 576.257812 C 507.269531 577.039062 511.796875 576.128906 516.855469 576.382812 C 520.527344 576.554688 522.769531 576.320312 526.363281 576.089844 C 530.320312 575.839844 534.027344 576.882812 538.195312 576.652344 C 541.335938 576.480469 544.042969 576.292969 547.210938 576.265625 C 553.410156 576.210938 559.628906 575.949219 565.757812 576.84375 C 571.164062 577.636719 571.511719 577.195312 576.84375 576.542969 C 582.375 575.859375 589.289062 575.96875 594.925781 575.980469 C 599.207031 575.988281 603.207031 576.0625 607.484375 576.210938 C 612.199219 576.378906 616.6875 575.792969 621.476562 575.914062 C 625.261719 576.023438 627.980469 575.894531 631.738281 575.671875 C 633.8125 575.546875 643.546875 575.238281 645.089844 575.59375 C 648.007812 576.25 648.3125 580.046875 644.988281 580.53125 C 643.453125 580.746094 638.34375 580.570312 636.484375 580.539062 C 631.582031 580.464844 627.207031 579.832031 622.246094 579.972656 C 618.753906 580.066406 616.144531 579.933594 612.6875 579.722656 C 607.832031 579.421875 603.097656 579.980469 598.136719 579.800781 C 591.789062 579.582031 585.632812 579.585938 579.289062 579.652344 C 575 579.703125 571.511719 579.027344 567.125 579.480469 C 562.84375 579.929688 559.460938 580.226562 555.082031 580.210938 C 549.664062 580.203125 544.335938 580.121094 538.921875 579.785156 C 534.421875 579.503906 532.320312 580.339844 528.105469 580.648438 C 526.886719 580.734375 525.804688 580.71875 524.585938 580.695312 Z M 579.746094 641.339844 C 579.714844 643.957031 577.097656 644.09375 575.121094 644.613281 C 569.351562 646.105469 563.625 647.738281 557.839844 649.242188 C 556.121094 649.691406 552.71875 650.972656 552.203125 648.222656 C 551.714844 645.625 555.207031 645.144531 557.058594 644.640625 C 559.386719 644.003906 576.566406 639.265625 577.480469 639.300781 C 578.746094 639.351562 579.515625 640.128906 579.746094 641.339844 Z M 828.511719 520.015625 C 826.441406 518.65625 828.074219 516.253906 828.683594 514.515625 C 829.898438 511.027344 830.246094 506.867188 831.15625 503.164062 C 832.335938 498.277344 832.535156 496.585938 834.957031 491.984375 C 836.910156 488.273438 836.367188 488.792969 836.945312 484.363281 C 837.773438 477.988281 838.894531 477.039062 841.835938 471.8125 C 843.25 469.292969 842.75 467.246094 842.75 464.425781 L 842.75 464.027344 C 842.753906 461.308594 843.925781 457.015625 844.59375 454.199219 C 844.886719 452.980469 845.269531 451.777344 846.925781 451.976562 C 848.929688 452.214844 848.710938 454.355469 848.316406 455.765625 C 846.945312 460.574219 845.914062 465.121094 844.691406 469.921875 C 843.222656 475.589844 841.71875 480.273438 839.09375 485.53125 C 836.160156 491.417969 837.339844 489.449219 836.761719 496.035156 C 836.417969 500.042969 834.8125 506.132812 833.511719 509.976562 C 832.511719 512.886719 831.878906 514.585938 831.429688 517.675781 C 831.09375 519.488281 830.523438 520.574219 828.511719 520.015625 Z M 878.910156 468.214844 C 877.304688 471.367188 876.144531 473.542969 874.226562 476.542969 C 871.445312 480.871094 868.875 484.644531 866.4375 489.222656 C 864.050781 493.699219 861.625 497.867188 859.3125 502.441406 C 855.683594 509.636719 850.75 518.449219 845.90625 524.867188 C 844.972656 526.109375 843.980469 526.804688 842.292969 526.59375 C 839.089844 526.203125 842.621094 521.699219 843.339844 520.554688 C 845.101562 517.734375 846.664062 514.933594 848.355469 512.105469 C 849.621094 509.992188 851.152344 508.0625 852.582031 506.054688 C 854.257812 503.679688 855.941406 500.417969 857.488281 497.847656 C 859.523438 494.445312 860.996094 490.703125 863.042969 487.152344 C 866.945312 480.382812 870.792969 473.28125 874.882812 466.65625 C 875.683594 465.359375 876.535156 463.480469 878.453125 464.421875 C 880.125 465.246094 879.554688 466.957031 878.910156 468.214844 Z M 906.628906 488.46875 C 903.089844 492.148438 898.929688 495.019531 895.21875 498.742188 C 890.59375 503.390625 886.207031 507.816406 881.417969 512.304688 C 877.953125 515.546875 875.132812 518.375 871.933594 521.886719 C 867.894531 526.277344 863.636719 530.089844 859.695312 534.648438 C 858.578125 535.929688 856.929688 537.59375 855.402344 535.738281 C 853.492188 533.410156 858.113281 530.34375 859.695312 528.824219 C 863.207031 525.441406 866.410156 521.75 869.902344 518.332031 C 870.246094 518 870.585938 517.675781 870.925781 517.351562 C 876.652344 511.902344 882.238281 506.546875 887.8125 500.941406 C 891.039062 497.703125 894.042969 495.011719 897.085938 491.539062 C 898.359375 490.085938 903.449219 484.109375 904.765625 483.753906 C 906.8125 483.207031 909.195312 485.683594 906.925781 488.144531 Z M 937.175781 508.902344 C 932.964844 511.242188 928.835938 512.800781 924.777344 515.425781 C 919.375 518.910156 914.277344 522.125 908.71875 525.382812 C 903.730469 528.296875 898.941406 531.316406 893.886719 534.191406 C 888.8125 537.082031 883.6875 539.957031 878.628906 542.855469 C 876.234375 544.234375 868.4375 549.1875 866.328125 549.550781 C 861.050781 550.472656 863.589844 546.78125 866.0625 545.183594 C 868.898438 543.351562 872.964844 541.507812 876.027344 539.820312 C 879.832031 537.734375 883.316406 535.054688 887.160156 532.84375 C 889.460938 531.527344 891.765625 530.210938 894.050781 528.875 C 898.191406 526.464844 902.285156 524.589844 906.40625 522.035156 C 911.769531 518.714844 916.992188 515.640625 922.292969 512.148438 C 926.453125 509.410156 930.402344 507.300781 934.722656 504.871094 C 938.574219 502.707031 939.953125 507.214844 937.570312 508.683594 Z M 969.59375 537.046875 C 969.363281 538.804688 966.773438 539.074219 965.3125 539.453125 C 959.074219 541.109375 952.945312 543.144531 946.664062 544.804688 C 938.246094 547.035156 929.980469 549.0625 921.601562 551.507812 C 910 554.863281 898.230469 557.574219 886.585938 560.769531 C 884.105469 561.449219 872.601562 564.523438 870.53125 564.1875 C 868.394531 563.84375 870.234375 561.949219 871.382812 561.347656 C 874.449219 559.742188 878.921875 558.71875 882.296875 557.683594 C 886.640625 556.359375 890.957031 555.269531 895.339844 553.898438 C 901.929688 551.835938 909.042969 550 915.734375 548.1875 C 916.488281 547.988281 917.238281 547.78125 917.988281 547.582031 C 922.046875 546.496094 926.125 545.578125 930.210938 544.46875 C 935.214844 543.109375 940.054688 541.976562 945.0625 540.507812 C 951.78125 538.539062 958.515625 537.652344 965.289062 535.917969 C 966.507812 535.613281 968.691406 534.933594 969.472656 536.542969 Z M 959.328125 580.679688 C 955.078125 580.515625 950.597656 580.53125 946.328125 580.503906 C 941.738281 580.464844 937.445312 580.667969 932.800781 580.488281 C 927.445312 580.285156 922.816406 580.226562 917.460938 580.363281 C 911.132812 580.515625 905.367188 580.488281 899.039062 580.1875 C 894.695312 579.980469 890.25 580.308594 885.851562 580.28125 C 882.582031 580.261719 879.453125 580.476562 876.199219 580.582031 C 874.425781 580.628906 872.605469 580.332031 872.625 578.082031 C 872.652344 575.03125 876.605469 575.671875 878.582031 575.785156 C 881.476562 575.953125 883.707031 576.144531 886.644531 576.089844 C 889.71875 576.039062 892.339844 576.277344 895.332031 576.355469 C 899.007812 576.449219 902.722656 575.914062 906.488281 575.871094 C 911.125 575.824219 915.070312 576.105469 919.664062 576.441406 C 924.507812 576.785156 928.828125 575.953125 933.757812 576.292969 C 937.089844 576.523438 938.496094 576.660156 941.890625 576.355469 C 948.3125 575.773438 954.621094 576.367188 961.148438 576.082031 C 970.417969 575.691406 980.148438 575.535156 989.429688 575.59375 C 990.695312 575.597656 996.90625 575.566406 997.726562 576.054688 C 998.800781 576.695312 998.960938 578.546875 996.832031 578.601562 C 993.84375 578.667969 990.988281 580.433594 987.617188 580.671875 C 983.761719 580.953125 979.367188 580.875 975.453125 580.917969 C 970.25 580.976562 964.542969 580.859375 959.328125 580.679688 Z M 976.53125 624.0625 C 973.4375 623.203125 970.335938 622.328125 967.230469 621.460938 C 962.230469 620.070312 957.648438 618.894531 952.578125 617.746094 C 944.195312 615.847656 936.242188 612.863281 927.867188 610.921875 C 922.472656 609.675781 918.160156 608.355469 912.96875 606.460938 C 908.003906 604.65625 903.023438 604.050781 897.890625 602.707031 C 893.929688 601.667969 890.117188 600.675781 886.136719 599.699219 C 884.644531 599.332031 872.503906 596.160156 871.792969 595.664062 C 870.042969 594.4375 870.375 590.707031 874.457031 591.851562 C 876.792969 592.511719 879.277344 593.390625 881.671875 594.085938 C 890.445312 596.652344 898.996094 599.386719 907.714844 602.082031 C 913.441406 603.8125 919.640625 604.566406 925.113281 606.433594 C 930.152344 608.148438 930.773438 609.597656 936.539062 610.285156 C 940.339844 610.730469 942.8125 611.195312 946.507812 612.089844 C 950.546875 613.0625 954.523438 614.199219 958.5 615.417969 C 963.355469 616.902344 968.789062 618.1875 973.75 619.390625 C 975.222656 619.753906 978.539062 620.207031 979.496094 621.34375 C 980.71875 622.796875 979.335938 624.8125 977.027344 624.199219 Z M 920.410156 639.695312 C 918.71875 641.1875 916.652344 639.609375 914.949219 638.761719 C 906.429688 634.515625 898.417969 629.582031 890.050781 625.054688 C 884.765625 622.195312 879.300781 619.019531 874.09375 615.996094 C 872.648438 615.160156 864.230469 610.101562 863.867188 609.410156 C 863.296875 608.332031 864.871094 607.921875 865.921875 608.164062 C 868.789062 608.835938 871.054688 609.503906 873.671875 610.867188 C 876.976562 612.597656 879.097656 613.59375 882.203125 615.796875 C 884.734375 617.609375 886.21875 618.476562 888.917969 619.941406 C 892.449219 621.84375 895.414062 623.996094 899.0625 625.84375 C 902.335938 627.496094 918.03125 635.652344 920.179688 637.722656 C 920.730469 638.351562 920.917969 638.988281 920.410156 639.695312 Z M 782.070312 546.757812 C 780.375 543.949219 784.019531 542.027344 786.113281 540.847656 C 789.378906 539.011719 793.828125 537.570312 797.382812 535.914062 C 802.523438 533.527344 804.878906 532.277344 810.757812 532.097656 C 818.265625 531.871094 830.917969 534.050781 837.304688 538.050781 C 841.882812 540.921875 846.039062 544.59375 849.234375 548.960938 C 850.390625 550.535156 851.285156 551.550781 852.503906 553.003906 C 855.035156 556.023438 854.410156 557.722656 855.953125 561.105469 C 857.996094 565.574219 858.523438 566.386719 859.101562 571.347656 C 860.011719 579.277344 860.398438 584.972656 857.035156 592.496094 C 855.96875 594.886719 855.070312 596.890625 854.09375 599.328125 C 852.429688 603.503906 850.898438 605.863281 847.976562 609.277344 C 846.625 610.839844 844.753906 612.136719 843.148438 609.980469 C 841.828125 607.769531 844.300781 605.914062 845.683594 604.339844 C 846.996094 602.839844 848.390625 600.917969 849.71875 599.296875 C 853.554688 594.640625 852.960938 593.585938 853.871094 587.867188 C 854.589844 583.316406 854.988281 580.417969 854.515625 575.765625 C 853.578125 567.171875 851.066406 556.667969 845.066406 550.171875 C 838.03125 542.558594 827.976562 536.96875 817.539062 536.363281 C 812.898438 536.097656 804.285156 536.265625 800.054688 537.9375 C 795.535156 539.726562 791.089844 542.613281 787.386719 545.734375 C 786.027344 546.878906 784.410156 548.84375 782.515625 547.28125 Z M 782.070312 546.757812 " fill-opacity="1" fill-rule="nonzero"/><g transform="matrix(1, 0, 0, 1, 240, 823)"><g clip-path="url(#8526e6fa2a)"><g fill="#193950" fill-opacity="1"><g transform="translate(3.025096, 100.125968)"><g><path d="M 114.390625 -2.84375 C 114.472656 -1.832031 114.257812 -1.09375 113.75 -0.625 C 113.25 -0.164062 112.535156 0.0625 111.609375 0.0625 L 99.34375 0.0625 C 98.457031 0.0625 97.769531 -0.144531 97.28125 -0.5625 C 96.800781 -0.988281 96.515625 -1.6875 96.421875 -2.65625 L 91.875 -49.578125 L 63.359375 -1.140625 C 62.804688 -0.253906 62.34375 0.382812 61.96875 0.78125 C 61.59375 1.1875 61.023438 1.390625 60.265625 1.390625 L 60.203125 1.390625 C 59.398438 1.390625 58.816406 1.1875 58.453125 0.78125 C 58.097656 0.382812 57.625 -0.253906 57.03125 -1.140625 L 28.578125 -49.515625 L 23.96875 -2.65625 C 23.84375 -1.6875 23.546875 -0.988281 23.078125 -0.5625 C 22.617188 -0.144531 21.945312 0.0625 21.0625 0.0625 L 8.796875 0.0625 C 7.859375 0.0625 7.125 -0.164062 6.59375 -0.625 C 6.070312 -1.09375 5.875 -1.832031 6 -2.84375 L 15.296875 -95.171875 C 15.421875 -96.722656 16.222656 -97.5 17.703125 -97.5 L 18.015625 -97.5 C 18.816406 -97.5 19.363281 -97.296875 19.65625 -96.890625 C 19.957031 -96.492188 20.316406 -95.960938 20.734375 -95.296875 L 60.203125 -28.328125 L 99.65625 -95.296875 C 100.070312 -95.960938 100.425781 -96.492188 100.71875 -96.890625 C 101.019531 -97.296875 101.570312 -97.5 102.375 -97.5 L 102.625 -97.5 C 104.0625 -97.5 104.882812 -96.722656 105.09375 -95.171875 Z M 114.390625 -2.84375 "/></g></g></g><g fill="#193950" fill-opacity="1"><g transform="translate(158.975174, 100.125968)"><g><path d="M 5.6875 -47.859375 C 5.6875 -53.429688 6.507812 -58.710938 8.15625 -63.703125 C 9.800781 -68.703125 12.140625 -73.253906 15.171875 -77.359375 C 18.210938 -81.472656 21.796875 -85.035156 25.921875 -88.046875 C 30.054688 -91.066406 34.628906 -93.394531 39.640625 -95.03125 C 44.660156 -96.675781 49.953125 -97.5 55.515625 -97.5 C 61.078125 -97.5 66.367188 -96.675781 71.390625 -95.03125 C 76.410156 -93.394531 80.984375 -91.066406 85.109375 -88.046875 C 89.242188 -85.035156 92.828125 -81.472656 95.859375 -77.359375 C 98.890625 -73.253906 101.226562 -68.703125 102.875 -63.703125 C 104.519531 -58.710938 105.34375 -53.429688 105.34375 -47.859375 C 105.34375 -42.296875 104.519531 -37.023438 102.875 -32.046875 C 101.226562 -27.078125 98.890625 -22.546875 95.859375 -18.453125 C 92.828125 -14.367188 89.242188 -10.828125 85.109375 -7.828125 C 80.984375 -4.835938 76.410156 -2.53125 71.390625 -0.90625 C 66.367188 0.707031 61.078125 1.515625 55.515625 1.515625 C 49.953125 1.515625 44.660156 0.707031 39.640625 -0.90625 C 34.628906 -2.53125 30.054688 -4.835938 25.921875 -7.828125 C 21.796875 -10.828125 18.210938 -14.367188 15.171875 -18.453125 C 12.140625 -22.546875 9.800781 -27.078125 8.15625 -32.046875 C 6.507812 -37.023438 5.6875 -42.296875 5.6875 -47.859375 Z M 23.515625 -47.859375 C 23.515625 -43.398438 24.328125 -39.257812 25.953125 -35.4375 C 27.578125 -31.625 29.851562 -28.285156 32.78125 -25.421875 C 35.71875 -22.554688 39.125 -20.320312 43 -18.71875 C 46.875 -17.113281 51.046875 -16.3125 55.515625 -16.3125 C 60.023438 -16.3125 64.207031 -17.113281 68.0625 -18.71875 C 71.925781 -20.320312 75.320312 -22.554688 78.25 -25.421875 C 81.175781 -28.285156 83.453125 -31.625 85.078125 -35.4375 C 86.703125 -39.257812 87.515625 -43.398438 87.515625 -47.859375 C 87.515625 -52.378906 86.691406 -56.566406 85.046875 -60.421875 C 83.398438 -64.273438 81.125 -67.644531 78.21875 -70.53125 C 75.3125 -73.425781 71.914062 -75.679688 68.03125 -77.296875 C 64.15625 -78.921875 59.984375 -79.734375 55.515625 -79.734375 C 51.046875 -79.734375 46.875 -78.921875 43 -77.296875 C 39.125 -75.679688 35.726562 -73.425781 32.8125 -70.53125 C 29.90625 -67.644531 27.628906 -64.273438 25.984375 -60.421875 C 24.335938 -56.566406 23.515625 -52.378906 23.515625 -47.859375 Z M 23.515625 -47.859375 "/></g></g></g><g fill="#193950" fill-opacity="1"><g transform="translate(305.629765, 100.125968)"><g><path d="M 27.5625 -93.96875 L 27.5625 -39.328125 C 27.5625 -35.953125 28.117188 -32.84375 29.234375 -30 C 30.359375 -27.15625 31.929688 -24.675781 33.953125 -22.5625 C 35.972656 -20.457031 38.363281 -18.828125 41.125 -17.671875 C 43.894531 -16.515625 46.921875 -15.9375 50.203125 -15.9375 C 53.492188 -15.9375 56.507812 -16.515625 59.25 -17.671875 C 61.988281 -18.828125 64.378906 -20.457031 66.421875 -22.5625 C 68.472656 -24.675781 70.054688 -27.15625 71.171875 -30 C 72.285156 -32.84375 72.84375 -35.953125 72.84375 -39.328125 L 72.84375 -93.96875 C 72.84375 -95.4375 73.601562 -96.171875 75.125 -96.171875 L 88.328125 -96.171875 C 89.890625 -96.171875 90.671875 -95.4375 90.671875 -93.96875 L 90.671875 -39.265625 C 90.671875 -33.234375 89.691406 -27.726562 87.734375 -22.75 C 85.773438 -17.78125 82.992188 -13.484375 79.390625 -9.859375 C 75.785156 -6.234375 71.503906 -3.429688 66.546875 -1.453125 C 61.597656 0.523438 56.148438 1.515625 50.203125 1.515625 C 44.222656 1.515625 38.753906 0.515625 33.796875 -1.484375 C 28.847656 -3.484375 24.570312 -6.304688 20.96875 -9.953125 C 17.363281 -13.597656 14.585938 -17.929688 12.640625 -22.953125 C 10.703125 -27.972656 9.734375 -33.492188 9.734375 -39.515625 L 9.734375 -93.96875 C 9.734375 -95.4375 10.429688 -96.171875 11.828125 -96.171875 L 25.484375 -96.171875 C 26.867188 -96.171875 27.5625 -95.4375 27.5625 -93.96875 Z M 27.5625 -93.96875 "/></g></g></g><g fill="#193950" fill-opacity="1"><g transform="translate(441.724178, 100.125968)"><g><path d="M 94.84375 -96.171875 C 96.28125 -96.171875 97 -95.476562 97 -94.09375 L 97 -1.703125 C 97 -0.773438 96.753906 -0.0507812 96.265625 0.46875 C 95.785156 1 95.207031 1.265625 94.53125 1.265625 L 94.40625 1.265625 C 93.601562 1.265625 92.925781 1.03125 92.375 0.5625 C 91.832031 0.101562 91.203125 -0.421875 90.484375 -1.015625 L 29.34375 -59.0625 L 29.34375 -2.03125 C 29.34375 -0.632812 28.644531 0.0625 27.25 0.0625 L 13.59375 0.0625 C 12.15625 0.0625 11.4375 -0.632812 11.4375 -2.03125 L 11.4375 -94.53125 C 11.4375 -95.332031 11.65625 -95.992188 12.09375 -96.515625 C 12.539062 -97.046875 13.101562 -97.3125 13.78125 -97.3125 L 14.03125 -97.3125 C 14.707031 -97.3125 15.296875 -97.078125 15.796875 -96.609375 C 16.304688 -96.148438 16.898438 -95.625 17.578125 -95.03125 L 79.171875 -36.734375 L 79.171875 -94.09375 C 79.171875 -95.476562 79.863281 -96.171875 81.25 -96.171875 Z M 94.84375 -96.171875 "/></g></g></g><g fill="#193950" fill-opacity="1"><g transform="translate(585.786152, 100.125968)"><g><path d="M 3.734375 -83.28125 L 3.734375 -93.265625 C 3.734375 -95.117188 4.660156 -96.046875 6.515625 -96.046875 L 72.34375 -96.046875 C 73.1875 -96.046875 73.847656 -95.789062 74.328125 -95.28125 C 74.816406 -94.78125 75.0625 -94.109375 75.0625 -93.265625 L 75.0625 -83.28125 C 75.0625 -81.382812 74.15625 -80.4375 72.34375 -80.4375 L 48.25 -80.4375 L 48.25 -2.71875 C 48.25 -0.863281 47.300781 0.0625 45.40625 0.0625 L 33.203125 0.0625 C 31.347656 0.0625 30.421875 -0.863281 30.421875 -2.71875 L 30.421875 -80.4375 L 6.515625 -80.4375 C 5.671875 -80.4375 4.992188 -80.675781 4.484375 -81.15625 C 3.984375 -81.644531 3.734375 -82.351562 3.734375 -83.28125 Z M 3.734375 -83.28125 "/></g></g></g><g fill="#193950" fill-opacity="1"><g transform="translate(700.191093, 100.125968)"><g><path d="M 93.015625 -3.09375 C 93.429688 -2.164062 93.453125 -1.394531 93.078125 -0.78125 C 92.703125 -0.175781 91.984375 0.125 90.921875 0.125 L 77.328125 0.125 C 76.617188 0.125 75.976562 -0.113281 75.40625 -0.59375 C 74.832031 -1.082031 74.398438 -1.664062 74.109375 -2.34375 L 70.25 -11.703125 L 26.109375 -11.703125 L 22.265625 -2.40625 C 21.960938 -1.726562 21.535156 -1.144531 20.984375 -0.65625 C 20.441406 -0.175781 19.769531 0.0625 18.96875 0.0625 L 5.4375 0.0625 C 4.382812 0.0625 3.65625 -0.226562 3.25 -0.8125 C 2.851562 -1.40625 2.863281 -2.1875 3.28125 -3.15625 L 44.203125 -94.84375 C 44.535156 -95.601562 45.03125 -96.203125 45.6875 -96.640625 C 46.34375 -97.085938 47.003906 -97.3125 47.671875 -97.3125 L 48.5 -97.3125 C 49.257812 -97.3125 49.941406 -97.078125 50.546875 -96.609375 C 51.160156 -96.148438 51.640625 -95.539062 51.984375 -94.78125 Z M 32.375 -27 L 63.921875 -27 L 48.1875 -65.25 Z M 32.375 -27 "/></g></g></g><g fill="#193950" fill-opacity="1"><g transform="translate(832.112021, 100.125968)"><g><path d="M 29.28125 -94.03125 L 29.28125 -2.03125 C 29.28125 -0.632812 28.5625 0.0625 27.125 0.0625 L 13.53125 0.0625 C 12.132812 0.0625 11.4375 -0.632812 11.4375 -2.03125 L 11.4375 -94.03125 C 11.4375 -95.457031 12.132812 -96.171875 13.53125 -96.171875 L 27.125 -96.171875 C 28.5625 -96.171875 29.28125 -95.457031 29.28125 -94.03125 Z M 29.28125 -94.03125 "/></g></g></g><g fill="#193950" fill-opacity="1"><g transform="translate(908.449782, 100.125968)"><g><path d="M 94.84375 -96.171875 C 96.28125 -96.171875 97 -95.476562 97 -94.09375 L 97 -1.703125 C 97 -0.773438 96.753906 -0.0507812 96.265625 0.46875 C 95.785156 1 95.207031 1.265625 94.53125 1.265625 L 94.40625 1.265625 C 93.601562 1.265625 92.925781 1.03125 92.375 0.5625 C 91.832031 0.101562 91.203125 -0.421875 90.484375 -1.015625 L 29.34375 -59.0625 L 29.34375 -2.03125 C 29.34375 -0.632812 28.644531 0.0625 27.25 0.0625 L 13.59375 0.0625 C 12.15625 0.0625 11.4375 -0.632812 11.4375 -2.03125 L 11.4375 -94.53125 C 11.4375 -95.332031 11.65625 -95.992188 12.09375 -96.515625 C 12.539062 -97.046875 13.101562 -97.3125 13.78125 -97.3125 L 14.03125 -97.3125 C 14.707031 -97.3125 15.296875 -97.078125 15.796875 -96.609375 C 16.304688 -96.148438 16.898438 -95.625 17.578125 -95.03125 L 79.171875 -36.734375 L 79.171875 -94.09375 C 79.171875 -95.476562 79.863281 -96.171875 81.25 -96.171875 Z M 94.84375 -96.171875 "/></g></g></g></g></g><g transform="matrix(1, 0, 0, 1, 472, 931)"><g clip-path="url(#0000f0cc32)"><g fill="#1e1e1e" fill-opacity="1"><g transform="translate(140.036737, 30.659396)"><g><path d="M 12.296875 0.390625 C 11.328125 0.390625 10.347656 0.269531 9.359375 0.03125 C 8.378906 -0.195312 7.4375 -0.523438 6.53125 -0.953125 C 5.632812 -1.390625 4.820312 -1.894531 4.09375 -2.46875 C 3.363281 -3.050781 2.765625 -3.6875 2.296875 -4.375 C 2.191406 -4.507812 2.144531 -4.660156 2.15625 -4.828125 C 2.164062 -5.003906 2.25 -5.15625 2.40625 -5.28125 L 3.734375 -6.609375 C 3.992188 -6.816406 4.289062 -6.742188 4.625 -6.390625 C 5.195312 -5.679688 5.898438 -5.039062 6.734375 -4.46875 C 7.566406 -3.894531 8.457031 -3.441406 9.40625 -3.109375 C 10.351562 -2.773438 11.273438 -2.609375 12.171875 -2.609375 C 14.285156 -2.609375 15.925781 -3.0625 17.09375 -3.96875 C 18.257812 -4.882812 18.84375 -6.128906 18.84375 -7.703125 C 18.84375 -8.398438 18.660156 -9.019531 18.296875 -9.5625 C 17.929688 -10.101562 17.425781 -10.585938 16.78125 -11.015625 C 16.132812 -11.453125 15.378906 -11.851562 14.515625 -12.21875 C 13.660156 -12.59375 12.738281 -12.96875 11.75 -13.34375 C 10.539062 -13.78125 9.421875 -14.238281 8.390625 -14.71875 C 7.367188 -15.207031 6.476562 -15.757812 5.71875 -16.375 C 4.957031 -17 4.363281 -17.722656 3.9375 -18.546875 C 3.507812 -19.378906 3.296875 -20.347656 3.296875 -21.453125 C 3.296875 -22.890625 3.660156 -24.15625 4.390625 -25.25 C 5.128906 -26.34375 6.171875 -27.195312 7.515625 -27.8125 C 8.867188 -28.425781 10.460938 -28.734375 12.296875 -28.734375 C 13.347656 -28.734375 14.367188 -28.601562 15.359375 -28.34375 C 16.347656 -28.082031 17.25 -27.710938 18.0625 -27.234375 C 18.875 -26.765625 19.535156 -26.210938 20.046875 -25.578125 C 20.335938 -25.222656 20.359375 -24.90625 20.109375 -24.625 L 19.03125 -23.390625 C 18.863281 -23.191406 18.6875 -23.109375 18.5 -23.140625 C 18.3125 -23.171875 18.113281 -23.269531 17.90625 -23.4375 C 17.46875 -23.925781 16.929688 -24.34375 16.296875 -24.6875 C 15.671875 -25.03125 15.003906 -25.289062 14.296875 -25.46875 C 13.585938 -25.65625 12.878906 -25.75 12.171875 -25.75 C 10.960938 -25.75 9.925781 -25.5625 9.0625 -25.1875 C 8.195312 -24.8125 7.535156 -24.300781 7.078125 -23.65625 C 6.617188 -23.007812 6.390625 -22.257812 6.390625 -21.40625 C 6.390625 -20.6875 6.570312 -20.050781 6.9375 -19.5 C 7.3125 -18.945312 7.816406 -18.453125 8.453125 -18.015625 C 9.097656 -17.578125 9.835938 -17.179688 10.671875 -16.828125 C 11.503906 -16.472656 12.378906 -16.128906 13.296875 -15.796875 C 14.398438 -15.410156 15.476562 -14.984375 16.53125 -14.515625 C 17.582031 -14.054688 18.523438 -13.519531 19.359375 -12.90625 C 20.191406 -12.300781 20.851562 -11.578125 21.34375 -10.734375 C 21.832031 -9.898438 22.078125 -8.910156 22.078125 -7.765625 C 22.078125 -6.097656 21.671875 -4.65625 20.859375 -3.4375 C 20.054688 -2.21875 18.921875 -1.273438 17.453125 -0.609375 C 15.992188 0.0546875 14.273438 0.390625 12.296875 0.390625 Z M 12.296875 0.390625 "/></g></g></g><g fill="#1e1e1e" fill-opacity="1"><g transform="translate(194.788545, 30.659396)"><g><path d="M 11.609375 -28.359375 C 13.390625 -28.359375 15.023438 -28.085938 16.515625 -27.546875 C 18.003906 -27.003906 19.296875 -26.238281 20.390625 -25.25 C 21.492188 -24.257812 22.347656 -23.09375 22.953125 -21.75 C 23.554688 -20.40625 23.859375 -18.9375 23.859375 -17.34375 C 23.859375 -15.726562 23.554688 -14.25 22.953125 -12.90625 C 22.347656 -11.570312 21.492188 -10.414062 20.390625 -9.4375 C 19.296875 -8.46875 18.003906 -7.71875 16.515625 -7.1875 C 15.023438 -6.664062 13.390625 -6.40625 11.609375 -6.40625 L 7.125 -6.40625 L 7.125 -0.5625 C 7.125 -0.382812 7.070312 -0.238281 6.96875 -0.125 C 6.863281 -0.0195312 6.722656 0.03125 6.546875 0.03125 L 4.609375 0.03125 C 4.421875 0.03125 4.273438 -0.0195312 4.171875 -0.125 C 4.066406 -0.238281 4.015625 -0.382812 4.015625 -0.5625 L 4.015625 -27.78125 C 4.015625 -27.957031 4.066406 -28.097656 4.171875 -28.203125 C 4.285156 -28.304688 4.429688 -28.359375 4.609375 -28.359375 L 5.640625 -28.359375 C 5.859375 -28.359375 6.0625 -28.359375 6.25 -28.359375 C 6.4375 -28.359375 6.578125 -28.359375 6.671875 -28.359375 Z M 11.40625 -9.1875 C 12.757812 -9.1875 14.003906 -9.378906 15.140625 -9.765625 C 16.285156 -10.160156 17.273438 -10.71875 18.109375 -11.4375 C 18.941406 -12.164062 19.585938 -13.03125 20.046875 -14.03125 C 20.503906 -15.03125 20.734375 -16.132812 20.734375 -17.34375 C 20.734375 -18.539062 20.503906 -19.640625 20.046875 -20.640625 C 19.585938 -21.640625 18.941406 -22.507812 18.109375 -23.25 C 17.273438 -23.988281 16.285156 -24.5625 15.140625 -24.96875 C 14.003906 -25.375 12.757812 -25.578125 11.40625 -25.578125 L 7.125 -25.578125 L 7.125 -9.1875 Z M 11.40625 -9.1875 "/></g></g></g><g fill="#1e1e1e" fill-opacity="1"><g transform="translate(251.125888, 30.659396)"><g><path d="M 7.125 -27.953125 L 7.125 -0.421875 C 7.125 -0.117188 6.960938 0.03125 6.640625 0.03125 L 4.46875 0.03125 C 4.164062 0.03125 4.015625 -0.117188 4.015625 -0.421875 L 4.015625 -27.953125 C 4.015625 -28.265625 4.164062 -28.421875 4.46875 -28.421875 L 6.640625 -28.421875 C 6.960938 -28.421875 7.125 -28.265625 7.125 -27.953125 Z M 7.125 -27.953125 "/></g></g></g><g fill="#1e1e1e" fill-opacity="1"><g transform="translate(292.857539, 30.659396)"><g><path d="M 20.234375 -8.703125 L 24.21875 -0.671875 C 24.3125 -0.484375 24.320312 -0.316406 24.25 -0.171875 C 24.175781 -0.0351562 24.035156 0.03125 23.828125 0.03125 L 21.5625 0.03125 C 21.4375 0.03125 21.3125 -0.015625 21.1875 -0.109375 C 21.0625 -0.203125 20.96875 -0.316406 20.90625 -0.453125 L 17.453125 -7.59375 C 16.460938 -7.34375 15.425781 -7.21875 14.34375 -7.21875 L 7.125 -7.21875 L 7.125 -0.5625 C 7.125 -0.164062 6.929688 0.03125 6.546875 0.03125 L 4.609375 0.03125 C 4.210938 0.03125 4.015625 -0.164062 4.015625 -0.5625 L 4.015625 -27.796875 C 4.015625 -27.972656 4.066406 -28.113281 4.171875 -28.21875 C 4.273438 -28.320312 4.421875 -28.375 4.609375 -28.375 L 5.109375 -28.375 C 5.410156 -28.375 5.71875 -28.375 6.03125 -28.375 C 6.34375 -28.375 6.554688 -28.375 6.671875 -28.375 L 14.34375 -28.375 C 15.9375 -28.375 17.40625 -28.109375 18.75 -27.578125 C 20.09375 -27.054688 21.257812 -26.316406 22.25 -25.359375 C 23.238281 -24.410156 24.003906 -23.285156 24.546875 -21.984375 C 25.085938 -20.679688 25.359375 -19.257812 25.359375 -17.71875 C 25.359375 -16.394531 25.148438 -15.160156 24.734375 -14.015625 C 24.316406 -12.867188 23.722656 -11.84375 22.953125 -10.9375 C 22.191406 -10.039062 21.285156 -9.296875 20.234375 -8.703125 Z M 14.15625 -9.875 C 15.332031 -9.875 16.410156 -10.066406 17.390625 -10.453125 C 18.378906 -10.835938 19.234375 -11.378906 19.953125 -12.078125 C 20.679688 -12.785156 21.242188 -13.617188 21.640625 -14.578125 C 22.035156 -15.535156 22.234375 -16.585938 22.234375 -17.734375 C 22.234375 -18.878906 22.03125 -19.925781 21.625 -20.875 C 21.21875 -21.832031 20.644531 -22.664062 19.90625 -23.375 C 19.175781 -24.082031 18.320312 -24.628906 17.34375 -25.015625 C 16.363281 -25.398438 15.300781 -25.59375 14.15625 -25.59375 L 7.125 -25.59375 L 7.125 -9.875 Z M 14.15625 -9.875 "/></g></g></g><g fill="#1e1e1e" fill-opacity="1"><g transform="translate(351.507917, 30.659396)"><g><path d="M 7.125 -27.953125 L 7.125 -0.421875 C 7.125 -0.117188 6.960938 0.03125 6.640625 0.03125 L 4.46875 0.03125 C 4.164062 0.03125 4.015625 -0.117188 4.015625 -0.421875 L 4.015625 -27.953125 C 4.015625 -28.265625 4.164062 -28.421875 4.46875 -28.421875 L 6.640625 -28.421875 C 6.960938 -28.421875 7.125 -28.265625 7.125 -27.953125 Z M 7.125 -27.953125 "/></g></g></g><g fill="#1e1e1e" fill-opacity="1"><g transform="translate(393.239567, 30.659396)"><g><path d="M 1.21875 -26.1875 L 1.21875 -27.796875 C 1.21875 -28.171875 1.410156 -28.359375 1.796875 -28.359375 L 20.90625 -28.359375 C 21.269531 -28.359375 21.453125 -28.171875 21.453125 -27.796875 L 21.453125 -26.1875 C 21.453125 -25.789062 21.269531 -25.59375 20.90625 -25.59375 L 12.875 -25.59375 L 12.875 -0.5625 C 12.875 -0.164062 12.679688 0.03125 12.296875 0.03125 L 10.34375 0.03125 C 9.957031 0.03125 9.765625 -0.164062 9.765625 -0.5625 L 9.765625 -25.59375 L 1.796875 -25.59375 C 1.410156 -25.59375 1.21875 -25.789062 1.21875 -26.1875 Z M 1.21875 -26.1875 "/></g></g></g><g fill="#1e1e1e" fill-opacity="1"><g transform="translate(1.98308, 82.872907)"><g><path d="M 26.359375 -0.671875 C 26.460938 -0.472656 26.46875 -0.300781 26.375 -0.15625 C 26.289062 -0.0078125 26.128906 0.0625 25.890625 0.0625 L 23.6875 0.0625 C 23.550781 0.0625 23.429688 0.0078125 23.328125 -0.09375 C 23.222656 -0.195312 23.140625 -0.316406 23.078125 -0.453125 L 21.5625 -4.0625 L 5.78125 -4.0625 L 4.296875 -0.46875 C 4.242188 -0.332031 4.15625 -0.210938 4.03125 -0.109375 C 3.914062 -0.015625 3.789062 0.03125 3.65625 0.03125 L 1.5 0.03125 C 1.257812 0.03125 1.09375 -0.03125 1 -0.15625 C 0.914062 -0.289062 0.921875 -0.46875 1.015625 -0.6875 L 12.921875 -28.078125 C 13.066406 -28.421875 13.296875 -28.59375 13.609375 -28.59375 L 13.765625 -28.59375 C 13.898438 -28.59375 14.03125 -28.539062 14.15625 -28.4375 C 14.289062 -28.34375 14.390625 -28.21875 14.453125 -28.0625 Z M 6.921875 -6.8125 L 20.421875 -6.8125 L 13.6875 -23.03125 Z M 6.921875 -6.8125 "/></g></g></g><g fill="#1e1e1e" fill-opacity="1"><g transform="translate(59.924623, 82.872907)"><g><path d="M 4.015625 -0.59375 L 4.015625 -27.78125 C 4.015625 -28.164062 4.210938 -28.359375 4.609375 -28.359375 L 14.171875 -28.359375 C 15.835938 -28.359375 17.40625 -28.128906 18.875 -27.671875 C 20.34375 -27.210938 21.675781 -26.554688 22.875 -25.703125 C 24.082031 -24.847656 25.117188 -23.832031 25.984375 -22.65625 C 26.847656 -21.488281 27.507812 -20.1875 27.96875 -18.75 C 28.4375 -17.320312 28.671875 -15.800781 28.671875 -14.1875 C 28.671875 -12.570312 28.4375 -11.046875 27.96875 -9.609375 C 27.507812 -8.179688 26.84375 -6.878906 25.96875 -5.703125 C 25.09375 -4.535156 24.046875 -3.519531 22.828125 -2.65625 C 21.617188 -1.800781 20.273438 -1.144531 18.796875 -0.6875 C 17.316406 -0.226562 15.734375 0 14.046875 0 L 4.625 0 C 4.21875 0 4.015625 -0.195312 4.015625 -0.59375 Z M 7.125 -2.984375 L 14.015625 -2.984375 C 15.679688 -2.984375 17.210938 -3.269531 18.609375 -3.84375 C 20.015625 -4.414062 21.234375 -5.210938 22.265625 -6.234375 C 23.304688 -7.253906 24.113281 -8.441406 24.6875 -9.796875 C 25.257812 -11.160156 25.546875 -12.625 25.546875 -14.1875 C 25.546875 -15.757812 25.257812 -17.222656 24.6875 -18.578125 C 24.113281 -19.941406 23.3125 -21.132812 22.28125 -22.15625 C 21.25 -23.175781 20.039062 -23.972656 18.65625 -24.546875 C 17.28125 -25.128906 15.78125 -25.421875 14.15625 -25.421875 L 7.125 -25.40625 Z M 7.125 -2.984375 "/></g></g></g><g fill="#1e1e1e" fill-opacity="1"><g transform="translate(121.167859, 82.872907)"><g><path d="M 26.3125 -28.375 C 26.539062 -28.375 26.695312 -28.304688 26.78125 -28.171875 C 26.863281 -28.035156 26.859375 -27.863281 26.765625 -27.65625 L 14.671875 -0.1875 C 14.523438 0.195312 14.285156 0.390625 13.953125 0.390625 L 13.890625 0.390625 C 13.554688 0.390625 13.3125 0.195312 13.15625 -0.1875 L 1.0625 -27.671875 C 0.976562 -27.878906 0.972656 -28.046875 1.046875 -28.171875 C 1.128906 -28.304688 1.285156 -28.375 1.515625 -28.375 L 3.703125 -28.375 C 3.859375 -28.375 3.992188 -28.328125 4.109375 -28.234375 C 4.222656 -28.140625 4.3125 -28.023438 4.375 -27.890625 L 13.921875 -5.5625 L 23.484375 -27.875 C 23.628906 -28.207031 23.84375 -28.375 24.125 -28.375 Z M 26.3125 -28.375 "/></g></g></g><g fill="#1e1e1e" fill-opacity="1"><g transform="translate(179.575758, 82.872907)"><g><path d="M 24.0625 -2.984375 C 24.3125 -2.984375 24.507812 -2.921875 24.65625 -2.796875 C 24.800781 -2.671875 24.875 -2.503906 24.875 -2.296875 L 24.875 -0.578125 C 24.875 -0.398438 24.8125 -0.257812 24.6875 -0.15625 C 24.570312 -0.0507812 24.414062 0 24.21875 0 L 4.609375 0 C 4.210938 0 4.015625 -0.195312 4.015625 -0.59375 L 4.015625 -27.78125 C 4.015625 -28.164062 4.210938 -28.359375 4.609375 -28.359375 L 23.796875 -28.359375 C 24.234375 -28.359375 24.453125 -28.171875 24.453125 -27.796875 L 24.453125 -25.984375 C 24.453125 -25.585938 24.234375 -25.390625 23.796875 -25.390625 L 7.125 -25.390625 L 7.125 -13.671875 L 20.71875 -13.671875 C 21.21875 -13.671875 21.46875 -13.460938 21.46875 -13.046875 L 21.46875 -11.34375 C 21.46875 -10.957031 21.21875 -10.765625 20.71875 -10.765625 L 7.125 -10.765625 L 7.125 -2.984375 Z M 24.0625 -2.984375 "/></g></g></g><g fill="#1e1e1e" fill-opacity="1"><g transform="translate(236.93906, 82.872907)"><g><path d="M 27.796875 -28.421875 C 28.117188 -28.421875 28.28125 -28.265625 28.28125 -27.953125 L 28.28125 -0.375 C 28.28125 -0.175781 28.226562 -0.03125 28.125 0.0625 C 28.019531 0.164062 27.894531 0.21875 27.75 0.21875 L 27.71875 0.21875 C 27.570312 0.21875 27.429688 0.175781 27.296875 0.09375 C 27.171875 0.0195312 27.039062 -0.0820312 26.90625 -0.21875 L 7.125 -21.734375 L 7.125 -0.421875 C 7.125 -0.117188 6.976562 0.03125 6.6875 0.03125 L 4.5 0.03125 C 4.164062 0.03125 4 -0.117188 4 -0.421875 L 4 -28.015625 C 4 -28.191406 4.046875 -28.332031 4.140625 -28.4375 C 4.242188 -28.539062 4.375 -28.59375 4.53125 -28.59375 L 4.5625 -28.59375 C 4.707031 -28.59375 4.835938 -28.546875 4.953125 -28.453125 C 5.078125 -28.367188 5.207031 -28.25 5.34375 -28.09375 L 25.140625 -6.578125 L 25.140625 -27.953125 C 25.140625 -28.265625 25.300781 -28.421875 25.625 -28.421875 Z M 27.796875 -28.421875 "/></g></g></g><g fill="#1e1e1e" fill-opacity="1"><g transform="translate(299.786498, 82.872907)"><g><path d="M 1.21875 -26.1875 L 1.21875 -27.796875 C 1.21875 -28.171875 1.410156 -28.359375 1.796875 -28.359375 L 20.90625 -28.359375 C 21.269531 -28.359375 21.453125 -28.171875 21.453125 -27.796875 L 21.453125 -26.1875 C 21.453125 -25.789062 21.269531 -25.59375 20.90625 -25.59375 L 12.875 -25.59375 L 12.875 -0.5625 C 12.875 -0.164062 12.679688 0.03125 12.296875 0.03125 L 10.34375 0.03125 C 9.957031 0.03125 9.765625 -0.164062 9.765625 -0.5625 L 9.765625 -25.59375 L 1.796875 -25.59375 C 1.410156 -25.59375 1.21875 -25.789062 1.21875 -26.1875 Z M 1.21875 -26.1875 "/></g></g></g><g fill="#1e1e1e" fill-opacity="1"><g transform="translate(353.027355, 82.872907)"><g><path d="M 6.53125 -27.921875 L 6.53125 -11.328125 C 6.53125 -10.109375 6.742188 -8.972656 7.171875 -7.921875 C 7.609375 -6.867188 8.210938 -5.953125 8.984375 -5.171875 C 9.765625 -4.390625 10.675781 -3.773438 11.71875 -3.328125 C 12.757812 -2.890625 13.878906 -2.671875 15.078125 -2.671875 C 16.285156 -2.671875 17.410156 -2.890625 18.453125 -3.328125 C 19.492188 -3.773438 20.398438 -4.390625 21.171875 -5.171875 C 21.941406 -5.953125 22.546875 -6.867188 22.984375 -7.921875 C 23.421875 -8.972656 23.640625 -10.109375 23.640625 -11.328125 L 23.640625 -27.921875 C 23.640625 -28.253906 23.804688 -28.421875 24.140625 -28.421875 L 26.265625 -28.421875 C 26.597656 -28.421875 26.765625 -28.253906 26.765625 -27.921875 L 26.765625 -11.234375 C 26.765625 -9.566406 26.472656 -8.023438 25.890625 -6.609375 C 25.304688 -5.191406 24.488281 -3.957031 23.4375 -2.90625 C 22.382812 -1.863281 21.144531 -1.050781 19.71875 -0.46875 C 18.300781 0.101562 16.753906 0.390625 15.078125 0.390625 C 13.398438 0.390625 11.851562 0.0976562 10.4375 -0.484375 C 9.019531 -1.066406 7.785156 -1.890625 6.734375 -2.953125 C 5.679688 -4.023438 4.863281 -5.273438 4.28125 -6.703125 C 3.707031 -8.128906 3.421875 -9.6875 3.421875 -11.375 L 3.421875 -27.921875 C 3.421875 -28.253906 3.578125 -28.421875 3.890625 -28.421875 L 6.09375 -28.421875 C 6.382812 -28.421875 6.53125 -28.253906 6.53125 -27.921875 Z M 6.53125 -27.921875 "/></g></g></g><g fill="#1e1e1e" fill-opacity="1"><g transform="translate(413.766928, 82.872907)"><g><path d="M 20.234375 -8.703125 L 24.21875 -0.671875 C 24.3125 -0.484375 24.320312 -0.316406 24.25 -0.171875 C 24.175781 -0.0351562 24.035156 0.03125 23.828125 0.03125 L 21.5625 0.03125 C 21.4375 0.03125 21.3125 -0.015625 21.1875 -0.109375 C 21.0625 -0.203125 20.96875 -0.316406 20.90625 -0.453125 L 17.453125 -7.59375 C 16.460938 -7.34375 15.425781 -7.21875 14.34375 -7.21875 L 7.125 -7.21875 L 7.125 -0.5625 C 7.125 -0.164062 6.929688 0.03125 6.546875 0.03125 L 4.609375 0.03125 C 4.210938 0.03125 4.015625 -0.164062 4.015625 -0.5625 L 4.015625 -27.796875 C 4.015625 -27.972656 4.066406 -28.113281 4.171875 -28.21875 C 4.273438 -28.320312 4.421875 -28.375 4.609375 -28.375 L 5.109375 -28.375 C 5.410156 -28.375 5.71875 -28.375 6.03125 -28.375 C 6.34375 -28.375 6.554688 -28.375 6.671875 -28.375 L 14.34375 -28.375 C 15.9375 -28.375 17.40625 -28.109375 18.75 -27.578125 C 20.09375 -27.054688 21.257812 -26.316406 22.25 -25.359375 C 23.238281 -24.410156 24.003906 -23.285156 24.546875 -21.984375 C 25.085938 -20.679688 25.359375 -19.257812 25.359375 -17.71875 C 25.359375 -16.394531 25.148438 -15.160156 24.734375 -14.015625 C 24.316406 -12.867188 23.722656 -11.84375 22.953125 -10.9375 C 22.191406 -10.039062 21.285156 -9.296875 20.234375 -8.703125 Z M 14.15625 -9.875 C 15.332031 -9.875 16.410156 -10.066406 17.390625 -10.453125 C 18.378906 -10.835938 19.234375 -11.378906 19.953125 -12.078125 C 20.679688 -12.785156 21.242188 -13.617188 21.640625 -14.578125 C 22.035156 -15.535156 22.234375 -16.585938 22.234375 -17.734375 C 22.234375 -18.878906 22.03125 -19.925781 21.625 -20.875 C 21.21875 -21.832031 20.644531 -22.664062 19.90625 -23.375 C 19.175781 -24.082031 18.320312 -24.628906 17.34375 -25.015625 C 16.363281 -25.398438 15.300781 -25.59375 14.15625 -25.59375 L 7.125 -25.59375 L 7.125 -9.875 Z M 14.15625 -9.875 "/></g></g></g><g fill="#1e1e1e" fill-opacity="1"><g transform="translate(472.417306, 82.872907)"><g><path d="M 24.0625 -2.984375 C 24.3125 -2.984375 24.507812 -2.921875 24.65625 -2.796875 C 24.800781 -2.671875 24.875 -2.503906 24.875 -2.296875 L 24.875 -0.578125 C 24.875 -0.398438 24.8125 -0.257812 24.6875 -0.15625 C 24.570312 -0.0507812 24.414062 0 24.21875 0 L 4.609375 0 C 4.210938 0 4.015625 -0.195312 4.015625 -0.59375 L 4.015625 -27.78125 C 4.015625 -28.164062 4.210938 -28.359375 4.609375 -28.359375 L 23.796875 -28.359375 C 24.234375 -28.359375 24.453125 -28.171875 24.453125 -27.796875 L 24.453125 -25.984375 C 24.453125 -25.585938 24.234375 -25.390625 23.796875 -25.390625 L 7.125 -25.390625 L 7.125 -13.671875 L 20.71875 -13.671875 C 21.21875 -13.671875 21.46875 -13.460938 21.46875 -13.046875 L 21.46875 -11.34375 C 21.46875 -10.957031 21.21875 -10.765625 20.71875 -10.765625 L 7.125 -10.765625 L 7.125 -2.984375 Z M 24.0625 -2.984375 "/></g></g></g><g fill="#1e1e1e" fill-opacity="1"><g transform="translate(529.780608, 82.872907)"><g><path d="M 12.296875 0.390625 C 11.328125 0.390625 10.347656 0.269531 9.359375 0.03125 C 8.378906 -0.195312 7.4375 -0.523438 6.53125 -0.953125 C 5.632812 -1.390625 4.820312 -1.894531 4.09375 -2.46875 C 3.363281 -3.050781 2.765625 -3.6875 2.296875 -4.375 C 2.191406 -4.507812 2.144531 -4.660156 2.15625 -4.828125 C 2.164062 -5.003906 2.25 -5.15625 2.40625 -5.28125 L 3.734375 -6.609375 C 3.992188 -6.816406 4.289062 -6.742188 4.625 -6.390625 C 5.195312 -5.679688 5.898438 -5.039062 6.734375 -4.46875 C 7.566406 -3.894531 8.457031 -3.441406 9.40625 -3.109375 C 10.351562 -2.773438 11.273438 -2.609375 12.171875 -2.609375 C 14.285156 -2.609375 15.925781 -3.0625 17.09375 -3.96875 C 18.257812 -4.882812 18.84375 -6.128906 18.84375 -7.703125 C 18.84375 -8.398438 18.660156 -9.019531 18.296875 -9.5625 C 17.929688 -10.101562 17.425781 -10.585938 16.78125 -11.015625 C 16.132812 -11.453125 15.378906 -11.851562 14.515625 -12.21875 C 13.660156 -12.59375 12.738281 -12.96875 11.75 -13.34375 C 10.539062 -13.78125 9.421875 -14.238281 8.390625 -14.71875 C 7.367188 -15.207031 6.476562 -15.757812 5.71875 -16.375 C 4.957031 -17 4.363281 -17.722656 3.9375 -18.546875 C 3.507812 -19.378906 3.296875 -20.347656 3.296875 -21.453125 C 3.296875 -22.890625 3.660156 -24.15625 4.390625 -25.25 C 5.128906 -26.34375 6.171875 -27.195312 7.515625 -27.8125 C 8.867188 -28.425781 10.460938 -28.734375 12.296875 -28.734375 C 13.347656 -28.734375 14.367188 -28.601562 15.359375 -28.34375 C 16.347656 -28.082031 17.25 -27.710938 18.0625 -27.234375 C 18.875 -26.765625 19.535156 -26.210938 20.046875 -25.578125 C 20.335938 -25.222656 20.359375 -24.90625 20.109375 -24.625 L 19.03125 -23.390625 C 18.863281 -23.191406 18.6875 -23.109375 18.5 -23.140625 C 18.3125 -23.171875 18.113281 -23.269531 17.90625 -23.4375 C 17.46875 -23.925781 16.929688 -24.34375 16.296875 -24.6875 C 15.671875 -25.03125 15.003906 -25.289062 14.296875 -25.46875 C 13.585938 -25.65625 12.878906 -25.75 12.171875 -25.75 C 10.960938 -25.75 9.925781 -25.5625 9.0625 -25.1875 C 8.195312 -24.8125 7.535156 -24.300781 7.078125 -23.65625 C 6.617188 -23.007812 6.390625 -22.257812 6.390625 -21.40625 C 6.390625 -20.6875 6.570312 -20.050781 6.9375 -19.5 C 7.3125 -18.945312 7.816406 -18.453125 8.453125 -18.015625 C 9.097656 -17.578125 9.835938 -17.179688 10.671875 -16.828125 C 11.503906 -16.472656 12.378906 -16.128906 13.296875 -15.796875 C 14.398438 -15.410156 15.476562 -14.984375 16.53125 -14.515625 C 17.582031 -14.054688 18.523438 -13.519531 19.359375 -12.90625 C 20.191406 -12.300781 20.851562 -11.578125 21.34375 -10.734375 C 21.832031 -9.898438 22.078125 -8.910156 22.078125 -7.765625 C 22.078125 -6.097656 21.671875 -4.65625 20.859375 -3.4375 C 20.054688 -2.21875 18.921875 -1.273438 17.453125 -0.609375 C 15.992188 0.0546875 14.273438 0.390625 12.296875 0.390625 Z M 12.296875 0.390625 "/></g></g></g></g></g></svg>