<svg xmlns="http://www.w3.org/2000/svg" xmlns:xlink="http://www.w3.org/1999/xlink" zoomAndPan="magnify" viewBox="0 0 1500 1499.999933" preserveAspectRatio="xMidYMid meet" version="1.0"><defs><g/><clipPath id="349c408b7c"><path d="M 510 378.5625 L 994 378.5625 L 994 627 L 510 627 Z M 510 378.5625 " clip-rule="nonzero"/></clipPath><clipPath id="b8ab07df8f"><path d="M 451 541 L 1049 541 L 1049 832.3125 L 451 832.3125 Z M 451 541 " clip-rule="nonzero"/></clipPath><clipPath id="8ea61aae48"><rect x="0" width="411" y="0" height="54"/></clipPath></defs><rect x="-150" width="1800" fill="#ffffff" y="-149.999993" height="1799.99992" fill-opacity="1"/><rect x="-150" width="1800" fill="#ffffff" y="-149.999993" height="1799.99992" fill-opacity="1"/><path fill="#38b6ff" d="M 785.003906 604.789062 C 779.507812 602.855469 774.484375 600.078125 769.925781 596.449219 C 771.566406 597.035156 773.253906 597.410156 774.988281 597.570312 C 775.164062 597.574219 775.285156 597.496094 775.351562 597.335938 C 775.414062 597.167969 775.367188 597.03125 775.214844 596.929688 C 771.792969 594.644531 769.007812 591.742188 766.867188 588.226562 C 771.53125 592.085938 775.9375 593.894531 780.285156 593.71875 C 780.460938 593.710938 780.566406 593.625 780.609375 593.457031 C 780.652344 593.285156 780.597656 593.160156 780.449219 593.070312 C 777.363281 591.207031 774.570312 588.972656 772.070312 586.371094 C 769.570312 583.773438 767.449219 580.894531 765.710938 577.734375 C 769.027344 580.601562 772.816406 582.554688 777.078125 583.585938 C 777.253906 583.628906 777.386719 583.570312 777.472656 583.40625 C 777.554688 583.246094 777.53125 583.105469 777.394531 582.984375 C 772.234375 578.621094 767.929688 573.539062 764.480469 567.730469 C 765.980469 568.507812 767.566406 569.007812 769.238281 569.230469 C 769.410156 569.257812 769.53125 569.191406 769.605469 569.03125 C 769.675781 568.878906 769.648438 568.742188 769.523438 568.628906 C 766.976562 566.257812 764.917969 563.523438 763.34375 560.417969 C 765.582031 562.066406 768.011719 563.351562 770.636719 564.273438 C 770.800781 564.328125 770.933594 564.28125 771.03125 564.136719 C 771.132812 563.992188 771.125 563.851562 771.015625 563.71875 C 768.007812 560.167969 765.5 556.292969 763.484375 552.101562 C 761.472656 547.90625 760.023438 543.523438 759.132812 538.957031 C 759.097656 538.769531 758.984375 538.675781 758.792969 538.675781 C 758.601562 538.675781 758.488281 538.769531 758.449219 538.957031 C 757.5625 543.523438 756.109375 547.90625 754.097656 552.101562 C 752.082031 556.296875 749.574219 560.167969 746.566406 563.71875 C 746.457031 563.851562 746.449219 563.992188 746.546875 564.136719 C 746.644531 564.28125 746.777344 564.324219 746.945312 564.273438 C 749.570312 563.355469 752 562.074219 754.238281 560.421875 C 752.664062 563.523438 750.605469 566.261719 748.058594 568.628906 C 747.929688 568.742188 747.902344 568.878906 747.976562 569.03125 C 748.050781 569.183594 748.171875 569.25 748.339844 569.230469 C 750.015625 569.011719 751.601562 568.511719 753.097656 567.730469 C 749.636719 573.527344 745.332031 578.613281 740.1875 582.984375 C 740.054688 583.105469 740.027344 583.246094 740.113281 583.40625 C 740.199219 583.566406 740.328125 583.625 740.503906 583.585938 C 744.765625 582.550781 748.558594 580.601562 751.878906 577.734375 C 750.136719 580.894531 748.015625 583.773438 745.511719 586.375 C 743.011719 588.976562 740.214844 591.207031 737.125 593.074219 C 736.976562 593.164062 736.925781 593.289062 736.964844 593.460938 C 737.007812 593.628906 737.117188 593.714844 737.292969 593.722656 C 741.65625 593.898438 746.046875 592.089844 750.714844 588.230469 C 748.570312 591.746094 745.785156 594.648438 742.359375 596.933594 C 742.210938 597.035156 742.167969 597.171875 742.226562 597.339844 C 742.289062 597.503906 742.410156 597.582031 742.585938 597.574219 C 744.320312 597.410156 746.011719 597.039062 747.652344 596.453125 C 743.09375 600.082031 738.070312 602.859375 732.574219 604.789062 C 732.390625 604.851562 732.3125 604.976562 732.339844 605.164062 C 732.363281 605.355469 732.472656 605.457031 732.664062 605.46875 C 733.203125 605.507812 733.773438 605.53125 734.355469 605.53125 C 737.96875 605.550781 741.4375 604.851562 744.761719 603.433594 C 742.082031 606.160156 739.042969 608.394531 735.640625 610.132812 C 735.484375 610.21875 735.421875 610.34375 735.460938 610.519531 C 735.5 610.695312 735.609375 610.785156 735.789062 610.792969 C 738.546875 610.886719 741.289062 610.707031 744.011719 610.25 C 740.273438 616.542969 735.308594 619.988281 729.960938 619.988281 C 725.078125 619.988281 720.058594 617.136719 715.734375 611.925781 C 722.128906 613.972656 728.660156 614.589844 735.324219 613.777344 C 735.511719 613.75 735.609375 613.640625 735.625 613.453125 C 735.636719 613.265625 735.554688 613.148438 735.375 613.09375 C 730.265625 611.546875 725.425781 609.394531 720.859375 606.632812 C 716.292969 603.871094 712.140625 600.585938 708.398438 596.777344 C 711.835938 597.347656 715.300781 597.574219 718.785156 597.453125 C 718.964844 597.449219 719.078125 597.359375 719.117188 597.183594 C 719.160156 597.007812 719.097656 596.875 718.9375 596.792969 C 714.414062 594.492188 710.402344 591.503906 706.898438 587.824219 C 711.269531 589.785156 715.84375 590.742188 720.632812 590.707031 C 721.375 590.707031 722.09375 590.679688 722.785156 590.628906 C 722.972656 590.613281 723.082031 590.511719 723.105469 590.328125 C 723.128906 590.140625 723.054688 590.015625 722.878906 589.953125 C 715.648438 587.425781 709.066406 583.742188 703.128906 578.90625 C 705.375 579.757812 707.695312 580.296875 710.085938 580.515625 C 710.265625 580.527344 710.386719 580.453125 710.449219 580.285156 C 710.507812 580.113281 710.460938 579.976562 710.3125 579.875 C 705.742188 576.816406 702.058594 572.914062 699.265625 568.175781 C 705.394531 573.367188 711.164062 575.792969 716.855469 575.578125 C 717.03125 575.574219 717.140625 575.484375 717.183594 575.316406 C 717.226562 575.144531 717.171875 575.015625 717.019531 574.929688 C 712.976562 572.484375 709.328125 569.550781 706.070312 566.125 C 702.816406 562.703125 700.066406 558.910156 697.824219 554.753906 C 699.957031 556.652344 702.289062 558.265625 704.820312 559.59375 C 707.347656 560.917969 710 561.917969 712.777344 562.59375 C 712.953125 562.632812 713.082031 562.574219 713.167969 562.414062 C 713.25 562.253906 713.226562 562.113281 713.089844 561.992188 C 706.398438 556.3125 700.820312 549.691406 696.363281 542.132812 C 698.355469 543.214844 700.476562 543.90625 702.722656 544.203125 C 702.890625 544.21875 703.011719 544.152344 703.089844 544.003906 C 703.160156 543.847656 703.132812 543.714844 703.007812 543.597656 C 699.636719 540.457031 696.929688 536.820312 694.882812 532.691406 C 697.832031 534.910156 701.050781 536.632812 704.535156 537.855469 C 704.703125 537.910156 704.835938 537.867188 704.933594 537.71875 C 705.035156 537.574219 705.027344 537.433594 704.914062 537.300781 C 701.058594 532.746094 697.84375 527.785156 695.261719 522.40625 C 692.679688 517.03125 690.816406 511.417969 689.675781 505.5625 C 689.652344 505.355469 689.5625 505.179688 689.40625 505.042969 C 689.253906 504.902344 689.070312 504.832031 688.859375 504.832031 C 688.660156 504.828125 688.484375 504.894531 688.339844 505.03125 C 688.191406 505.167969 688.109375 505.335938 688.097656 505.535156 C 686.957031 511.394531 685.097656 517.011719 682.515625 522.394531 C 679.9375 527.773438 676.71875 532.742188 672.863281 537.296875 C 672.753906 537.433594 672.746094 537.574219 672.84375 537.71875 C 672.945312 537.863281 673.078125 537.90625 673.242188 537.851562 C 676.726562 536.628906 679.941406 534.910156 682.890625 532.691406 C 680.84375 536.820312 678.136719 540.457031 674.765625 543.597656 C 674.640625 543.714844 674.613281 543.847656 674.683594 544.003906 C 674.761719 544.148438 674.882812 544.214844 675.046875 544.203125 C 677.296875 543.902344 679.417969 543.210938 681.410156 542.128906 C 676.949219 549.691406 671.375 556.308594 664.683594 561.988281 C 664.546875 562.109375 664.523438 562.253906 664.601562 562.414062 C 664.6875 562.574219 664.820312 562.632812 664.996094 562.589844 C 667.773438 561.917969 670.425781 560.917969 672.953125 559.589844 C 675.484375 558.265625 677.816406 556.652344 679.945312 554.75 C 677.707031 558.910156 674.957031 562.699219 671.703125 566.125 C 668.445312 569.546875 664.796875 572.480469 660.753906 574.925781 C 660.605469 575.015625 660.550781 575.144531 660.59375 575.3125 C 660.636719 575.480469 660.746094 575.570312 660.921875 575.574219 C 666.625 575.796875 672.378906 573.367188 678.503906 568.171875 C 675.714844 572.914062 672.03125 576.8125 667.460938 579.875 C 667.308594 579.976562 667.265625 580.113281 667.324219 580.28125 C 667.382812 580.457031 667.503906 580.53125 667.6875 580.511719 C 670.078125 580.292969 672.398438 579.757812 674.644531 578.902344 C 668.707031 583.738281 662.125 587.421875 654.894531 589.949219 C 654.714844 590.011719 654.636719 590.136719 654.660156 590.324219 C 654.6875 590.515625 654.792969 590.613281 654.984375 590.628906 C 655.671875 590.679688 656.398438 590.707031 657.136719 590.703125 C 661.925781 590.742188 666.5 589.78125 670.867188 587.824219 C 667.367188 591.5 663.355469 594.488281 658.832031 596.792969 C 658.671875 596.875 658.613281 597.003906 658.652344 597.179688 C 658.695312 597.359375 658.804688 597.449219 658.984375 597.453125 C 662.46875 597.574219 665.933594 597.347656 669.371094 596.777344 C 665.632812 600.585938 661.476562 603.867188 656.910156 606.628906 C 652.34375 609.394531 647.507812 611.546875 642.398438 613.09375 C 642.21875 613.144531 642.132812 613.265625 642.148438 613.453125 C 642.160156 613.640625 642.257812 613.746094 642.445312 613.773438 C 649.109375 614.585938 655.640625 613.972656 662.035156 611.925781 C 657.710938 617.132812 652.691406 619.984375 647.8125 619.984375 C 642.464844 619.984375 637.496094 616.535156 633.757812 610.25 C 636.480469 610.710938 639.222656 610.890625 641.980469 610.792969 C 642.164062 610.789062 642.273438 610.699219 642.316406 610.523438 C 642.355469 610.347656 642.296875 610.21875 642.136719 610.132812 C 638.734375 608.390625 635.695312 606.15625 633.015625 603.433594 C 636.335938 604.851562 639.804688 605.550781 643.417969 605.527344 C 644.003906 605.527344 644.570312 605.507812 645.113281 605.464844 C 645.304688 605.453125 645.410156 605.355469 645.433594 605.164062 C 645.460938 604.976562 645.382812 604.851562 645.203125 604.789062 C 639.707031 602.859375 634.679688 600.078125 630.125 596.449219 C 631.765625 597.035156 633.457031 597.410156 635.191406 597.570312 C 635.363281 597.578125 635.484375 597.5 635.550781 597.339844 C 635.609375 597.167969 635.5625 597.035156 635.414062 596.933594 C 631.992188 594.644531 629.207031 591.742188 627.0625 588.226562 C 631.539062 591.929688 635.761719 593.730469 639.9375 593.730469 C 640.117188 593.730469 640.296875 593.730469 640.484375 593.71875 C 640.65625 593.710938 640.765625 593.625 640.804688 593.457031 C 640.847656 593.289062 640.792969 593.160156 640.644531 593.070312 C 637.558594 591.207031 634.761719 588.972656 632.261719 586.371094 C 629.765625 583.769531 627.644531 580.890625 625.902344 577.730469 C 629.222656 580.601562 633.015625 582.550781 637.277344 583.582031 C 637.457031 583.625 637.585938 583.566406 637.667969 583.402344 C 637.753906 583.242188 637.726562 583.101562 637.59375 582.980469 C 632.445312 578.609375 628.140625 573.527344 624.679688 567.730469 C 626.179688 568.507812 627.765625 569.007812 629.441406 569.230469 C 629.609375 569.253906 629.730469 569.1875 629.804688 569.03125 C 629.878906 568.875 629.851562 568.738281 629.722656 568.625 C 627.175781 566.257812 625.117188 563.519531 623.542969 560.417969 C 625.78125 562.070312 628.210938 563.351562 630.835938 564.269531 C 631 564.324219 631.132812 564.28125 631.234375 564.136719 C 631.332031 563.992188 631.324219 563.851562 631.214844 563.714844 C 628.207031 560.164062 625.695312 556.292969 623.683594 552.097656 C 621.671875 547.902344 620.21875 543.523438 619.328125 538.957031 C 619.273438 538.792969 619.160156 538.710938 618.988281 538.710938 C 618.8125 538.710938 618.699219 538.792969 618.644531 538.957031 C 617.757812 543.523438 616.304688 547.902344 614.292969 552.097656 C 612.28125 556.292969 609.773438 560.164062 606.765625 563.714844 C 606.65625 563.851562 606.648438 563.988281 606.75 564.132812 C 606.847656 564.277344 606.976562 564.324219 607.144531 564.269531 C 609.769531 563.351562 612.199219 562.070312 614.433594 560.417969 C 612.863281 563.519531 610.804688 566.253906 608.257812 568.625 C 608.128906 568.738281 608.105469 568.875 608.175781 569.03125 C 608.253906 569.179688 608.375 569.246094 608.542969 569.230469 C 610.214844 569.007812 611.796875 568.507812 613.292969 567.730469 C 609.847656 573.535156 605.542969 578.621094 600.386719 582.980469 C 600.25 583.101562 600.222656 583.242188 600.304688 583.40625 C 600.390625 583.566406 600.519531 583.625 600.699219 583.582031 C 604.960938 582.550781 608.75 580.601562 612.066406 577.730469 C 610.328125 580.890625 608.207031 583.769531 605.710938 586.371094 C 603.210938 588.96875 600.417969 591.203125 597.328125 593.066406 C 597.179688 593.15625 597.125 593.285156 597.167969 593.453125 C 597.210938 593.621094 597.320312 593.707031 597.492188 593.714844 C 597.675781 593.714844 597.855469 593.726562 598.039062 593.726562 C 602.214844 593.726562 606.445312 591.921875 610.910156 588.222656 C 608.765625 591.738281 605.984375 594.640625 602.558594 596.929688 C 602.410156 597.027344 602.367188 597.164062 602.425781 597.335938 C 602.488281 597.503906 602.605469 597.582031 602.785156 597.566406 C 604.523438 597.40625 606.210938 597.03125 607.851562 596.445312 C 603.292969 600.074219 598.269531 602.855469 592.773438 604.785156 C 592.589844 604.847656 592.511719 604.972656 592.539062 605.160156 C 592.5625 605.347656 592.671875 605.449219 592.859375 605.460938 C 593.402344 605.503906 593.972656 605.523438 594.554688 605.523438 C 598.167969 605.546875 601.636719 604.847656 604.960938 603.425781 C 602.28125 606.152344 599.242188 608.386719 595.835938 610.128906 C 595.675781 610.210938 595.617188 610.34375 595.65625 610.519531 C 595.699219 610.695312 595.808594 610.785156 595.992188 610.789062 C 598.636719 610.878906 601.265625 610.714844 603.878906 610.300781 C 600.976562 613.226562 597.761719 615.75 594.234375 617.875 C 590.703125 619.996094 586.964844 621.652344 583.023438 622.84375 C 582.84375 622.898438 582.761719 623.019531 582.773438 623.207031 C 582.789062 623.394531 582.886719 623.5 583.074219 623.527344 C 588.179688 624.152344 593.1875 623.703125 598.097656 622.175781 C 596.445312 624.101562 594.671875 625.914062 592.785156 627.613281 C 592.6875 627.703125 592.652344 627.8125 592.675781 627.941406 C 592.703125 628.074219 592.777344 628.160156 592.902344 628.203125 L 636.480469 643.410156 C 636.550781 643.433594 636.621094 643.433594 636.691406 643.410156 C 637.273438 643.238281 637.859375 643.113281 638.460938 643.039062 L 651.960938 641.308594 C 653.074219 641.160156 654.179688 641.210938 655.273438 641.460938 C 656.367188 641.714844 657.382812 642.148438 658.320312 642.769531 C 658.476562 642.867188 658.617188 642.851562 658.75 642.726562 C 659.789062 641.714844 660.914062 640.816406 662.128906 640.023438 C 663.34375 639.234375 664.625 638.570312 665.96875 638.035156 C 667.316406 637.496094 668.699219 637.09375 670.125 636.828125 C 671.550781 636.566406 672.984375 636.441406 674.433594 636.457031 L 698.570312 636.457031 C 700.699219 636.441406 702.78125 636.722656 704.828125 637.308594 C 706.871094 637.894531 708.789062 638.753906 710.585938 639.894531 L 735.722656 655.574219 C 735.78125 655.609375 735.839844 655.628906 735.910156 655.628906 L 767.890625 655.628906 C 768.019531 655.625 768.117188 655.570312 768.183594 655.457031 C 768.253906 655.34375 768.257812 655.230469 768.195312 655.117188 C 767.5625 653.921875 767.089844 652.671875 766.773438 651.363281 C 766.761719 651.3125 766.742188 651.269531 766.710938 651.230469 C 766.234375 650.609375 765.78125 649.957031 765.355469 649.289062 L 765.921875 649.515625 C 766.046875 649.5625 766.160156 649.546875 766.261719 649.46875 C 766.367188 649.390625 766.414062 649.285156 766.398438 649.15625 C 766.191406 647.035156 766.390625 644.953125 767.007812 642.914062 C 767.621094 640.871094 768.605469 639.027344 769.953125 637.375 C 773.628906 632.761719 776.945312 627.902344 779.898438 622.796875 C 779.984375 622.652344 779.972656 622.515625 779.859375 622.390625 C 779.796875 622.316406 779.730469 622.242188 779.664062 622.164062 L 779.914062 622.242188 C 780.089844 622.296875 780.222656 622.246094 780.316406 622.082031 C 781.144531 620.65625 781.960938 619.21875 782.757812 617.777344 C 782.800781 617.695312 782.8125 617.609375 782.789062 617.519531 C 782.769531 617.433594 782.71875 617.363281 782.640625 617.3125 C 779.476562 615.277344 776.558594 612.9375 773.882812 610.289062 C 776.496094 610.703125 779.125 610.867188 781.769531 610.78125 C 781.949219 610.777344 782.0625 610.683594 782.101562 610.507812 C 782.144531 610.332031 782.082031 610.203125 781.921875 610.121094 C 778.519531 608.378906 775.480469 606.144531 772.804688 603.417969 C 776.125 604.839844 779.59375 605.535156 783.207031 605.515625 C 783.792969 605.515625 784.359375 605.496094 784.902344 605.453125 C 785.089844 605.441406 785.199219 605.339844 785.222656 605.152344 C 785.246094 604.960938 785.167969 604.835938 784.988281 604.777344 Z M 785.003906 604.789062 " fill-opacity="1" fill-rule="nonzero"/><g clip-path="url(#349c408b7c)"><path fill="#38b6ff" d="M 716.996094 411.867188 C 715.242188 401.867188 708.867188 382.058594 707.699219 382.261719 C 706.53125 382.46875 707.324219 403.261719 709.089844 413.261719 C 710.738281 422.609375 718.640625 421.210938 716.996094 411.867188 Z M 647.0625 435.839844 C 641.988281 427.042969 629.230469 410.605469 628.203125 411.199219 C 627.179688 411.789062 635.035156 431.058594 640.109375 439.851562 C 644.851562 448.0625 651.804688 444.054688 647.0625 435.839844 Z M 680.980469 420.792969 C 677.511719 411.25 667.800781 392.851562 666.683594 393.253906 C 665.570312 393.65625 669.964844 414 673.4375 423.542969 C 676.683594 432.453125 684.226562 429.710938 680.980469 420.792969 Z M 754.015625 409.332031 C 754.015625 399.175781 751.1875 378.5625 750 378.5625 C 748.8125 378.5625 745.984375 399.175781 745.984375 409.332031 C 745.984375 418.820312 754.015625 418.820312 754.015625 409.332031 Z M 859.890625 439.851562 C 864.96875 431.058594 872.828125 411.792969 871.796875 411.199219 C 870.765625 410.601562 858.015625 427.042969 852.9375 435.839844 C 848.195312 444.054688 855.148438 448.0625 859.890625 439.851562 Z M 889.878906 461.707031 C 896.402344 453.925781 907.492188 436.316406 906.582031 435.554688 C 905.671875 434.792969 890.253906 448.765625 883.726562 456.542969 C 877.632812 463.808594 883.78125 468.972656 889.878906 461.707031 Z M 616.273438 456.546875 C 609.746094 448.769531 594.332031 434.792969 593.417969 435.558594 C 592.507812 436.320312 603.597656 453.929688 610.121094 461.710938 C 616.21875 468.972656 622.367188 463.808594 616.273438 456.546875 Z M 790.910156 413.261719 C 792.675781 403.261719 793.46875 382.46875 792.300781 382.261719 C 791.132812 382.054688 784.769531 401.863281 783.007812 411.867188 C 781.359375 421.210938 789.261719 422.609375 790.910156 413.261719 Z M 826.5625 423.542969 C 830.039062 414 834.433594 393.660156 833.316406 393.261719 C 832.199219 392.863281 822.492188 411.253906 819.019531 420.800781 C 815.777344 429.710938 823.320312 432.453125 826.5625 423.542969 Z M 750 433.65625 C 747.066406 433.652344 744.136719 433.714844 741.207031 433.847656 C 738.277344 433.980469 735.351562 434.183594 732.429688 434.453125 C 729.511719 434.722656 726.597656 435.058594 723.691406 435.464844 C 720.789062 435.871094 717.894531 436.34375 715.011719 436.886719 C 712.128906 437.425781 709.261719 438.035156 706.40625 438.710938 C 703.554688 439.386719 700.71875 440.125 697.898438 440.933594 C 695.078125 441.742188 692.277344 442.617188 689.5 443.554688 C 686.722656 444.492188 683.964844 445.496094 681.234375 446.5625 C 678.503906 447.628906 675.796875 448.761719 673.121094 449.953125 C 670.441406 451.148438 667.789062 452.402344 665.171875 453.722656 C 662.550781 455.039062 659.960938 456.417969 657.40625 457.855469 C 654.851562 459.292969 652.332031 460.792969 649.84375 462.347656 C 647.359375 463.90625 644.910156 465.519531 642.5 467.191406 C 640.089844 468.859375 637.71875 470.585938 635.390625 472.367188 C 633.0625 474.148438 630.773438 475.984375 628.53125 477.875 C 626.285156 479.761719 624.085938 481.703125 621.933594 483.695312 C 619.78125 485.683594 617.675781 487.726562 615.617188 489.816406 C 613.558594 491.90625 611.550781 494.042969 609.59375 496.226562 C 607.636719 498.410156 605.730469 500.636719 603.878906 502.910156 C 602.023438 505.183594 600.222656 507.496094 598.476562 509.855469 C 596.734375 512.210938 595.042969 514.605469 593.410156 517.042969 C 591.777344 519.476562 590.199219 521.949219 588.683594 524.460938 C 587.164062 526.96875 585.707031 529.511719 584.304688 532.089844 C 582.90625 534.667969 581.570312 537.277344 580.292969 539.917969 C 579.015625 542.558594 577.800781 545.226562 576.648438 547.921875 C 575.496094 550.621094 574.40625 553.34375 573.382812 556.089844 C 572.355469 558.839844 571.394531 561.609375 570.5 564.402344 C 569.605469 567.195312 568.773438 570.003906 568.011719 572.835938 C 567.246094 575.667969 566.546875 578.515625 565.917969 581.378906 C 565.285156 584.246094 564.722656 587.121094 564.226562 590.011719 C 563.730469 592.902344 563.300781 595.804688 562.9375 598.714844 C 562.578125 601.625 562.285156 604.542969 562.0625 607.464844 C 562.042969 607.652344 562.0625 607.835938 562.117188 608.015625 C 562.171875 608.195312 562.261719 608.355469 562.378906 608.503906 C 562.496094 608.648438 562.636719 608.765625 562.800781 608.855469 C 562.964844 608.949219 563.140625 609.003906 563.324219 609.027344 C 563.511719 609.050781 563.695312 609.039062 563.875 608.988281 C 564.058594 608.941406 564.222656 608.859375 564.371094 608.746094 C 564.523438 608.632812 564.644531 608.496094 564.742188 608.335938 C 564.839844 608.175781 564.902344 608.003906 564.929688 607.820312 C 565.707031 603.234375 566.648438 598.683594 567.757812 594.167969 C 568.863281 589.652344 570.132812 585.179688 571.5625 580.757812 C 572.996094 576.332031 574.585938 571.964844 576.335938 567.65625 C 578.082031 563.347656 579.984375 559.109375 582.042969 554.9375 C 584.097656 550.769531 586.304688 546.679688 588.65625 542.667969 C 591.007812 538.65625 593.503906 534.738281 596.144531 530.90625 C 598.78125 527.078125 601.554688 523.347656 604.460938 519.722656 C 607.371094 516.09375 610.40625 512.574219 613.570312 509.167969 C 616.734375 505.761719 620.019531 502.472656 623.421875 499.304688 C 626.824219 496.132812 630.335938 493.09375 633.960938 490.175781 C 637.582031 487.261719 641.308594 484.484375 645.132812 481.839844 C 648.957031 479.195312 652.875 476.695312 656.882812 474.335938 C 660.886719 471.976562 664.976562 469.765625 669.144531 467.703125 C 673.308594 465.640625 677.546875 463.730469 681.851562 461.976562 C 686.160156 460.21875 690.523438 458.621094 694.945312 457.183594 C 699.367188 455.746094 703.835938 454.46875 708.347656 453.355469 C 712.863281 452.242188 717.414062 451.292969 721.996094 450.507812 C 726.578125 449.726562 731.183594 449.109375 735.8125 448.660156 C 740.441406 448.210938 745.078125 447.929688 749.726562 447.816406 C 754.378906 447.703125 759.023438 447.757812 763.667969 447.984375 C 768.3125 448.207031 772.941406 448.601562 777.558594 449.160156 C 782.175781 449.722656 786.765625 450.449219 791.328125 451.34375 C 795.890625 452.238281 800.414062 453.296875 804.902344 454.519531 C 809.386719 455.742188 813.824219 457.125 818.210938 458.667969 C 822.597656 460.214844 826.921875 461.914062 831.183594 463.773438 C 835.445312 465.632812 839.636719 467.640625 843.75 469.804688 C 847.867188 471.96875 851.902344 474.277344 855.851562 476.730469 C 859.796875 479.1875 863.652344 481.78125 867.414062 484.515625 C 871.175781 487.25 874.832031 490.121094 878.382812 493.121094 C 881.933594 496.121094 885.375 499.246094 888.699219 502.496094 C 892.023438 505.746094 895.226562 509.113281 898.308594 512.597656 C 901.390625 516.078125 904.339844 519.667969 907.160156 523.367188 C 907.273438 523.515625 907.410156 523.640625 907.570312 523.738281 C 907.730469 523.835938 907.902344 523.898438 908.089844 523.929688 C 908.273438 523.960938 908.457031 523.957031 908.640625 523.914062 C 908.824219 523.871094 908.992188 523.796875 909.148438 523.691406 C 909.300781 523.582031 909.429688 523.449219 909.535156 523.292969 C 909.636719 523.136719 909.707031 522.964844 909.742188 522.78125 C 909.777344 522.597656 909.777344 522.410156 909.742188 522.226562 C 909.707031 522.042969 909.636719 521.871094 909.535156 521.714844 C 907.425781 518.359375 905.210938 515.074219 902.890625 511.859375 C 900.574219 508.644531 898.15625 505.503906 895.640625 502.441406 C 893.125 499.378906 890.511719 496.398438 887.808594 493.5 C 885.105469 490.601562 882.3125 487.792969 879.429688 485.070312 C 876.546875 482.347656 873.582031 479.722656 870.535156 477.1875 C 867.488281 474.652344 864.363281 472.21875 861.160156 469.878906 C 857.957031 467.542969 854.6875 465.308594 851.34375 463.179688 C 848 461.046875 844.59375 459.023438 841.125 457.109375 C 837.65625 455.195312 834.128906 453.390625 830.542969 451.695312 C 826.957031 450.003906 823.324219 448.425781 819.640625 446.960938 C 815.957031 445.5 812.230469 444.152344 808.460938 442.925781 C 804.691406 441.695312 800.890625 440.589844 797.050781 439.601562 C 793.210938 438.613281 789.34375 437.746094 785.453125 437.003906 C 781.558594 436.257812 777.644531 435.636719 773.714844 435.140625 C 769.78125 434.644531 765.835938 434.273438 761.878906 434.023438 C 757.921875 433.777344 753.964844 433.652344 750 433.65625 Z M 960.960938 500.359375 C 960.375 499.335938 941.101562 507.195312 932.308594 512.269531 C 924.09375 517.015625 928.105469 523.972656 936.320312 519.222656 C 945.117188 514.144531 961.554688 501.390625 960.960938 500.359375 Z M 960.289062 589.15625 C 970.292969 587.398438 990.105469 581.03125 989.898438 579.859375 C 989.691406 578.691406 968.898438 579.484375 958.898438 581.25 C 949.558594 582.898438 950.949219 590.804688 960.289062 589.15625 Z M 978.90625 538.84375 C 978.5 537.730469 958.164062 542.121094 948.625 545.597656 C 939.714844 548.839844 942.460938 556.386719 951.371094 553.140625 C 960.910156 549.667969 979.3125 539.960938 978.90625 538.84375 Z M 962.828125 618.144531 C 953.339844 618.144531 953.339844 626.175781 962.828125 626.175781 C 972.984375 626.175781 993.597656 623.347656 993.597656 622.160156 C 993.597656 620.96875 972.984375 618.144531 962.828125 618.144531 Z M 551.382812 545.597656 C 541.835938 542.125 521.503906 537.738281 521.09375 538.84375 C 520.683594 539.953125 539.09375 549.667969 548.636719 553.140625 C 557.550781 556.386719 560.296875 548.839844 551.382812 545.597656 Z M 563.679688 519.222656 C 571.898438 523.964844 575.910156 517.015625 567.695312 512.269531 C 558.898438 507.191406 539.632812 499.335938 539.039062 500.359375 C 538.445312 501.386719 554.886719 514.144531 563.679688 519.222656 Z M 936.609375 465.578125 C 935.847656 464.667969 918.234375 475.753906 910.457031 482.28125 C 903.1875 488.378906 908.351562 494.53125 915.613281 488.425781 C 923.398438 481.90625 937.371094 466.488281 936.609375 465.578125 Z M 541.105469 581.25 C 531.105469 579.492188 510.3125 578.691406 510.109375 579.859375 C 509.902344 581.03125 529.710938 587.394531 539.710938 589.15625 C 549.054688 590.804688 550.445312 582.898438 541.105469 581.25 Z M 584.386719 488.4375 C 591.652344 494.535156 596.820312 488.382812 589.546875 482.292969 C 581.765625 475.765625 564.15625 464.679688 563.394531 465.589844 C 562.636719 466.496094 576.605469 481.90625 584.386719 488.4375 Z M 584.386719 488.4375 " fill-opacity="1" fill-rule="evenodd"/></g><path fill="#38b6ff" d="M 865.140625 534.382812 L 834.6875 504.921875 C 834.273438 504.542969 833.785156 504.335938 833.222656 504.304688 C 832.644531 504.238281 832.097656 504.34375 831.585938 504.621094 L 816.636719 512.984375 L 777.75 475.292969 C 777.503906 475.089844 777.230469 474.933594 776.925781 474.824219 C 776.625 474.714844 776.316406 474.660156 775.996094 474.660156 C 775.675781 474.660156 775.363281 474.714844 775.0625 474.824219 C 774.761719 474.933594 774.484375 475.089844 774.238281 475.292969 L 722.394531 524.796875 C 721.347656 525.792969 722.941406 526.519531 723.460938 526.070312 L 763.320312 498.386719 L 754.191406 515.0625 C 753.988281 515.425781 754.191406 515.832031 754.671875 516.023438 C 754.90625 516.121094 755.152344 516.148438 755.40625 516.109375 C 755.660156 516.070312 755.882812 515.96875 756.078125 515.804688 L 768.074219 504.242188 L 774.941406 524.742188 C 775 524.835938 775.0625 524.917969 775.140625 524.992188 C 775.21875 525.066406 775.300781 525.128906 775.394531 525.179688 C 775.488281 525.234375 775.585938 525.273438 775.6875 525.300781 C 775.792969 525.328125 775.898438 525.339844 776.003906 525.339844 C 776.109375 525.339844 776.214844 525.328125 776.316406 525.300781 C 776.421875 525.273438 776.519531 525.234375 776.613281 525.179688 C 776.703125 525.128906 776.789062 525.066406 776.867188 524.992188 C 776.941406 524.917969 777.007812 524.835938 777.0625 524.742188 L 783.929688 504.242188 L 795.925781 515.804688 C 796.121094 515.96875 796.34375 516.070312 796.597656 516.109375 C 796.847656 516.148438 797.089844 516.121094 797.328125 516.023438 C 797.808594 515.835938 798.011719 515.429688 797.8125 515.0625 L 788.683594 498.386719 L 823.792969 528.246094 C 824.148438 528.519531 824.539062 528.597656 824.972656 528.480469 C 825.160156 528.460938 825.320312 528.382812 825.460938 528.253906 C 825.597656 528.125 825.679688 527.96875 825.714844 527.785156 L 826.445312 517.417969 L 841.0625 528.492188 C 841.5 528.796875 841.960938 528.839844 842.449219 528.613281 C 842.898438 528.40625 843.0625 528.011719 842.859375 527.660156 L 836.246094 516.398438 L 863.503906 535.394531 C 863.726562 535.539062 863.972656 535.613281 864.234375 535.617188 C 864.5 535.621094 864.75 535.558594 864.976562 535.425781 C 865.074219 535.382812 865.15625 535.320312 865.222656 535.234375 C 865.285156 535.148438 865.328125 535.054688 865.34375 534.949219 C 865.359375 534.84375 865.347656 534.738281 865.3125 534.640625 C 865.277344 534.539062 865.21875 534.453125 865.140625 534.382812 Z M 865.140625 534.382812 " fill-opacity="1" fill-rule="evenodd"/><g clip-path="url(#b8ab07df8f)"><path fill="#38b6ff" d="M 584.019531 751.039062 C 585.839844 751.074219 587.675781 751.09375 589.539062 751.09375 L 730.457031 751.09375 C 729.453125 752.109375 728.480469 753.1875 727.53125 754.332031 L 706.628906 779.457031 C 700.828125 778.265625 695.183594 776.855469 689.792969 775.179688 C 689.621094 775.125 689.457031 775.136719 689.292969 775.210938 C 689.128906 775.285156 689.011719 775.40625 688.945312 775.574219 C 688.875 775.738281 688.871094 775.902344 688.929688 776.070312 C 688.984375 776.238281 689.09375 776.363281 689.246094 776.453125 C 706.691406 786.15625 727.699219 791.285156 750.003906 791.285156 C 772.308594 791.285156 793.320312 786.15625 810.761719 776.453125 C 810.917969 776.363281 811.023438 776.238281 811.082031 776.070312 C 811.140625 775.902344 811.132812 775.738281 811.066406 775.574219 C 810.996094 775.40625 810.882812 775.285156 810.71875 775.210938 C 810.554688 775.136719 810.386719 775.125 810.214844 775.179688 C 791.417969 780.796875 772.210938 783.652344 752.59375 783.753906 L 756.808594 778.691406 C 759.398438 775.652344 761.539062 772.324219 763.238281 768.710938 C 764.933594 765.097656 766.128906 761.324219 766.8125 757.390625 L 767.621094 753.050781 C 767.746094 752.394531 767.871094 751.742188 768 751.09375 L 910.46875 751.09375 C 912.328125 751.09375 914.167969 751.074219 915.984375 751.039062 C 985.34375 750.730469 1038.039062 749.191406 1038.039062 747.34375 C 1038.039062 745.988281 1009.734375 744.800781 967.3125 744.140625 C 1034.210938 725.648438 1050.195312 673.640625 1007.773438 629.890625 C 1007.5 629.609375 1007.171875 629.417969 1006.792969 629.3125 C 1006.414062 629.210938 1006.035156 629.207031 1005.65625 629.308594 C 1005.277344 629.410156 1004.949219 629.601562 1004.675781 629.878906 C 1004.398438 630.160156 1004.210938 630.488281 1004.117188 630.871094 C 998.996094 651.195312 962.589844 663.929688 923.667969 663.929688 L 866.855469 663.929688 C 870.066406 650.628906 871.773438 637.136719 871.976562 623.453125 C 888.929688 621.402344 904.332031 630.035156 908.8125 615.605469 C 913.113281 601.441406 915.441406 586.960938 915.800781 572.160156 C 915.980469 569.585938 915.832031 567.027344 915.359375 564.488281 L 915.261719 564.050781 L 927.664062 549.148438 C 927.949219 549.195312 928.238281 549.195312 928.523438 549.148438 C 928.8125 549.101562 929.085938 549.011719 929.339844 548.875 C 929.597656 548.738281 929.828125 548.566406 930.027344 548.351562 C 930.226562 548.140625 930.386719 547.902344 930.507812 547.640625 C 930.628906 547.375 930.707031 547.097656 930.734375 546.808594 C 930.765625 546.515625 930.75 546.230469 930.683594 545.945312 C 930.617188 545.664062 930.511719 545.398438 930.359375 545.148438 C 930.203125 544.902344 930.015625 544.683594 929.792969 544.496094 L 926.328125 541.613281 C 926.105469 541.429688 925.855469 541.285156 925.585938 541.179688 C 925.3125 541.074219 925.035156 541.019531 924.742188 541.007812 C 924.453125 540.996094 924.167969 541.03125 923.886719 541.113281 C 923.609375 541.195312 923.351562 541.320312 923.113281 541.488281 C 922.875 541.65625 922.671875 541.855469 922.5 542.089844 C 922.328125 542.324219 922.199219 542.582031 922.113281 542.859375 C 922.023438 543.136719 921.984375 543.421875 921.992188 543.710938 C 921.996094 544 922.050781 544.285156 922.148438 544.554688 L 911.78125 557.019531 C 910.589844 556.835938 909.402344 556.851562 908.214844 557.0625 C 905.132812 557.476562 901.839844 558.140625 900.203125 560.023438 C 898.789062 561.648438 899.417969 561.925781 898.835938 563.601562 C 897.503906 567.433594 895.527344 565.738281 896.558594 569.199219 C 896.949219 570.613281 897.546875 571.9375 898.351562 573.164062 L 877.9375 597.714844 C 876.777344 597.386719 875.597656 597.085938 874.40625 596.804688 C 865.019531 592.054688 855.371094 585.464844 844.953125 588.867188 C 843.910156 587.949219 842.734375 587.253906 841.425781 586.773438 C 840.121094 586.296875 838.773438 586.070312 837.382812 586.097656 C 834.382812 581.089844 833.390625 578.460938 833.164062 573.902344 C 833.605469 567.976562 836.183594 562.816406 836.195312 556.414062 C 836.046875 554.507812 835.582031 552.679688 834.800781 550.933594 C 834.019531 549.1875 832.96875 547.625 831.644531 546.246094 C 826.644531 541 811.839844 539.917969 805.789062 544.125 C 804.695312 544.941406 803.777344 545.921875 803.035156 547.066406 C 802.289062 548.214844 801.769531 549.453125 801.472656 550.785156 L 799.625 557.324219 C 796.140625 558.964844 792.480469 559.96875 788.644531 560.328125 C 780.578125 561.078125 790.964844 562.597656 792.691406 562.796875 C 798.617188 563.382812 804.550781 563.492188 810.488281 563.132812 C 806.988281 564.554688 803.347656 565.242188 799.570312 565.191406 C 800.4375 576.65625 801.824219 578.042969 806.347656 586.355469 C 809.417969 591.988281 814.832031 590.0625 819.972656 587.15625 C 821.679688 586.195312 823.25 585.046875 824.6875 583.71875 C 822.574219 587.960938 819.503906 589.90625 814.96875 591.9375 C 815.855469 597.480469 810.652344 599.601562 805.152344 601.652344 C 794.136719 605.757812 797.289062 608.074219 793.609375 615.117188 C 787.960938 625.925781 782.640625 634.921875 776.421875 642.601562 C 775.886719 643.246094 775.46875 643.960938 775.164062 644.738281 C 774.859375 645.519531 774.6875 646.328125 774.640625 647.164062 C 774.59375 648 774.683594 648.820312 774.902344 649.628906 C 775.121094 650.4375 775.460938 651.191406 775.921875 651.890625 C 778.628906 656.089844 781.589844 660.105469 784.808594 663.933594 L 733.449219 663.933594 L 706.210938 646.945312 C 703.886719 645.453125 701.347656 644.726562 698.585938 644.761719 L 674.449219 644.761719 C 673.332031 644.742188 672.226562 644.859375 671.136719 645.109375 C 670.046875 645.355469 669 645.730469 668 646.226562 C 667 646.726562 666.074219 647.335938 665.21875 648.058594 C 664.363281 648.78125 663.605469 649.589844 662.949219 650.496094 L 659.488281 655.082031 C 658.199219 653.847656 654.464844 649.355469 653.027344 649.542969 L 639.527344 651.269531 C 638.648438 651.386719 637.949219 651.804688 637.433594 652.523438 L 501.554688 605.109375 C 501.320312 605.007812 500.832031 605.703125 501.148438 605.847656 L 508.417969 609.257812 C 529.390625 635.746094 550.320312 645.082031 577.089844 658.019531 C 581.601562 660.203125 586.195312 662.171875 590.878906 663.933594 L 576.34375 663.933594 C 537.433594 663.933594 501.023438 651.195312 495.898438 630.875 C 495.800781 630.492188 495.613281 630.164062 495.339844 629.886719 C 495.0625 629.605469 494.734375 629.414062 494.355469 629.3125 C 493.976562 629.210938 493.597656 629.214844 493.21875 629.316406 C 492.839844 629.421875 492.515625 629.613281 492.242188 629.894531 C 449.816406 673.644531 465.800781 725.648438 532.699219 744.144531 C 490.277344 744.804688 461.972656 745.992188 461.972656 747.347656 C 461.964844 749.191406 514.664062 750.726562 584.019531 751.039062 Z M 1014.738281 691.773438 C 1017.40625 675.863281 1012.292969 660.589844 1004.167969 647.65625 C 1005.519531 646.226562 1006.753906 644.703125 1007.867188 643.082031 C 1017.988281 655.808594 1024.960938 671.472656 1021.886719 687.875 C 1019.507812 700.570312 1011.660156 710.710938 1001.765625 718.410156 C 1005.136719 714.667969 1007.921875 710.53125 1010.125 706.003906 C 1012.332031 701.476562 1013.867188 696.734375 1014.738281 691.773438 Z M 924.605469 544.996094 L 926.042969 546.171875 L 914.425781 560.171875 C 914.273438 559.476562 914.007812 558.828125 913.636719 558.21875 Z M 478.113281 687.878906 C 475.042969 671.480469 482.015625 655.808594 492.132812 643.085938 C 493.25 644.707031 494.484375 646.230469 495.832031 647.660156 C 487.710938 660.59375 482.589844 675.867188 485.261719 691.773438 C 486.132812 696.734375 487.667969 701.476562 489.875 706.003906 C 492.078125 710.53125 494.867188 714.667969 498.234375 718.410156 C 488.34375 710.714844 480.492188 700.574219 478.113281 687.878906 Z M 774.285156 728.578125 C 768.660156 735.339844 761.214844 738.910156 753.164062 742.003906 L 749.042969 743.589844 C 745.476562 744.917969 742.144531 746.691406 739.050781 748.910156 C 735.957031 751.128906 733.207031 753.714844 730.808594 756.667969 L 711.097656 780.359375 C 710.398438 780.234375 709.722656 780.078125 709.03125 779.945312 L 729.1875 755.714844 C 731.589844 752.761719 734.335938 750.171875 737.429688 747.953125 C 740.523438 745.738281 743.855469 743.964844 747.425781 742.636719 L 751.546875 741.050781 C 759.59375 737.957031 767.039062 734.390625 772.664062 727.628906 L 805.898438 687.679688 C 806.371094 688.070312 806.863281 688.429688 807.375 688.761719 L 807.398438 688.777344 Z M 923.660156 672.578125 C 942.214844 672.578125 962.53125 669.835938 979.871094 663.007812 C 981.136719 662.511719 982.410156 661.976562 983.691406 661.410156 C 979.808594 663.808594 975.753906 665.859375 971.523438 667.570312 C 954.847656 674.402344 935.292969 677.140625 917.4375 677.140625 L 821.183594 677.140625 L 824.976562 672.578125 Z M 905.8125 583.019531 C 902.636719 592.539062 893.214844 600.921875 893.222656 612.648438 C 892.34375 611.691406 891.667969 606.3125 892.371094 604.425781 C 890.164062 602.703125 887.765625 601.304688 885.179688 600.226562 L 904.667969 576.792969 C 906.507812 577.316406 907.421875 578.171875 905.8125 583.019531 Z M 823.542969 666.472656 L 871.039062 609.390625 L 876.277344 603.089844 L 883.8125 594.03125 L 886.003906 591.398438 L 899.855469 574.753906 C 900.339844 575.152344 900.863281 575.492188 901.421875 575.777344 L 890.988281 588.316406 L 883.820312 596.933594 L 872.46875 610.578125 L 825.984375 666.4375 L 819.472656 674.261719 C 819.023438 673.835938 818.554688 673.4375 818.058594 673.066406 Z M 798.113281 644.605469 C 800.585938 642.851562 802.609375 639.339844 804.191406 635.046875 C 802.941406 631.515625 801.796875 628.1875 802.707031 624.410156 C 804.464844 630.308594 807.097656 635.855469 811.875 639.363281 C 815.398438 641.945312 815.222656 641.96875 815.628906 646.617188 C 816.148438 652.46875 815.070312 658.109375 814.019531 663.933594 L 806.925781 663.933594 C 807.722656 665.808594 808.613281 667.628906 809.527344 669.339844 C 812.472656 669.015625 815.339844 670.070312 816.316406 671.796875 C 810.058594 669.746094 807.214844 672.003906 804.761719 675.597656 C 805.101562 673.664062 805.945312 671.984375 807.285156 670.550781 C 804.371094 665.492188 802.734375 659.941406 799.886719 654.839844 C 798.757812 652.726562 797.359375 650.804688 795.691406 649.078125 C 792.007812 648.695312 788.449219 649.203125 785.023438 650.605469 C 788.425781 647.039062 793.316406 647.988281 798.113281 644.605469 Z M 577.730469 656.6875 C 551.960938 644.234375 531.820312 635.855469 511.453125 610.679688 L 634.085938 655.3125 C 631.066406 655.625 628.800781 661.308594 628.742188 663.933594 L 595.230469 663.933594 C 589.257812 661.855469 583.421875 659.441406 577.730469 656.6875 Z M 528.476562 667.570312 C 524.25 665.859375 520.195312 663.808594 516.316406 661.410156 C 517.59375 661.976562 518.863281 662.511719 520.128906 663.007812 C 537.46875 669.835938 557.785156 672.578125 576.339844 672.578125 L 792.808594 672.578125 C 794.398438 674.144531 796.027344 675.667969 797.691406 677.140625 L 582.5625 677.140625 C 564.707031 677.144531 545.160156 674.402344 528.476562 667.570312 Z M 894.605469 802.804688 C 887.238281 804.957031 879.753906 806.574219 872.152344 807.664062 C 864.554688 808.75 856.917969 809.292969 849.238281 809.292969 C 841.5625 809.292969 833.925781 808.75 826.328125 807.664062 C 818.726562 806.574219 811.242188 804.957031 803.875 802.804688 C 803.703125 802.75 803.535156 802.757812 803.375 802.835938 C 803.210938 802.910156 803.09375 803.03125 803.023438 803.195312 C 802.953125 803.359375 802.949219 803.527344 803.007812 803.695312 C 803.066406 803.867188 803.171875 803.996094 803.328125 804.082031 C 806.859375 805.914062 810.492188 807.53125 814.21875 808.933594 C 817.945312 810.332031 821.742188 811.503906 825.609375 812.449219 C 829.476562 813.390625 833.386719 814.101562 837.339844 814.578125 C 841.292969 815.050781 845.257812 815.289062 849.238281 815.289062 C 853.222656 815.289062 857.1875 815.050781 861.140625 814.578125 C 865.09375 814.101562 869.003906 813.390625 872.871094 812.449219 C 876.738281 811.503906 880.535156 810.332031 884.261719 808.933594 C 887.988281 807.53125 891.621094 805.914062 895.152344 804.082031 C 895.308594 803.996094 895.417969 803.867188 895.476562 803.699219 C 895.535156 803.527344 895.53125 803.359375 895.460938 803.195312 C 895.390625 803.027344 895.269531 802.910156 895.109375 802.835938 C 894.945312 802.757812 894.777344 802.75 894.605469 802.804688 Z M 1048.765625 768.328125 C 1048.699219 768.164062 1048.582031 768.042969 1048.417969 767.964844 C 1048.257812 767.890625 1048.089844 767.878906 1047.917969 767.9375 C 1040.589844 770.074219 1033.148438 771.6875 1025.59375 772.765625 C 1018.039062 773.847656 1010.445312 774.386719 1002.8125 774.386719 C 995.179688 774.386719 987.585938 773.847656 980.03125 772.765625 C 972.476562 771.6875 965.035156 770.074219 957.707031 767.9375 C 957.535156 767.878906 957.371094 767.890625 957.207031 767.964844 C 957.042969 768.042969 956.925781 768.164062 956.859375 768.328125 C 956.789062 768.492188 956.785156 768.660156 956.84375 768.824219 C 956.898438 768.992188 957.007812 769.121094 957.160156 769.207031 C 960.675781 771.03125 964.285156 772.640625 967.988281 774.03125 C 971.695312 775.421875 975.472656 776.585938 979.316406 777.527344 C 983.160156 778.464844 987.050781 779.171875 990.980469 779.644531 C 994.910156 780.117188 998.855469 780.351562 1002.8125 780.351562 C 1006.769531 780.351562 1010.714844 780.117188 1014.644531 779.644531 C 1018.574219 779.171875 1022.464844 778.464844 1026.308594 777.527344 C 1030.15625 776.585938 1033.929688 775.421875 1037.636719 774.03125 C 1041.34375 772.640625 1044.953125 771.03125 1048.464844 769.207031 C 1048.621094 769.121094 1048.726562 768.992188 1048.785156 768.824219 C 1048.84375 768.65625 1048.835938 768.488281 1048.765625 768.324219 Z M 784.863281 822.453125 C 779.199219 824.109375 773.449219 825.355469 767.609375 826.191406 C 761.769531 827.027344 755.898438 827.445312 750 827.445312 C 744.101562 827.445312 738.230469 827.027344 732.390625 826.191406 C 726.550781 825.355469 720.800781 824.109375 715.136719 822.453125 C 714.964844 822.398438 714.800781 822.410156 714.636719 822.484375 C 714.472656 822.5625 714.355469 822.683594 714.289062 822.847656 C 714.21875 823.011719 714.214844 823.175781 714.273438 823.34375 C 714.332031 823.511719 714.4375 823.640625 714.589844 823.726562 C 717.316406 825.140625 720.113281 826.386719 722.988281 827.46875 C 725.863281 828.546875 728.792969 829.449219 731.773438 830.179688 C 734.757812 830.90625 737.773438 831.453125 740.820312 831.820312 C 743.871094 832.1875 746.929688 832.371094 750 832.371094 C 753.070312 832.371094 756.128906 832.1875 759.179688 831.820312 C 762.226562 831.453125 765.242188 830.90625 768.226562 830.179688 C 771.207031 829.449219 774.136719 828.546875 777.011719 827.46875 C 779.886719 826.386719 782.683594 825.140625 785.410156 823.726562 C 785.566406 823.640625 785.675781 823.511719 785.734375 823.34375 C 785.792969 823.171875 785.789062 823.003906 785.714844 822.839844 C 785.644531 822.671875 785.527344 822.554688 785.363281 822.480469 C 785.203125 822.402344 785.035156 822.394531 784.863281 822.449219 Z M 987.621094 792.851562 C 981.570312 794.621094 975.425781 795.949219 969.1875 796.839844 C 962.949219 797.734375 956.679688 798.179688 950.378906 798.179688 C 944.074219 798.179688 937.804688 797.734375 931.566406 796.839844 C 925.328125 795.949219 919.183594 794.621094 913.136719 792.851562 C 912.964844 792.796875 912.796875 792.808594 912.632812 792.882812 C 912.46875 792.957031 912.351562 793.078125 912.28125 793.242188 C 912.210938 793.40625 912.203125 793.574219 912.261719 793.746094 C 912.320312 793.914062 912.429688 794.042969 912.589844 794.128906 C 915.496094 795.640625 918.484375 796.96875 921.550781 798.121094 C 924.621094 799.273438 927.746094 800.238281 930.929688 801.015625 C 934.109375 801.792969 937.328125 802.378906 940.582031 802.769531 C 943.835938 803.160156 947.101562 803.355469 950.378906 803.355469 C 953.65625 803.355469 956.917969 803.160156 960.171875 802.769531 C 963.425781 802.378906 966.644531 801.792969 969.828125 801.015625 C 973.011719 800.238281 976.136719 799.273438 979.203125 798.121094 C 982.273438 796.96875 985.257812 795.640625 988.167969 794.128906 C 988.324219 794.042969 988.433594 793.914062 988.492188 793.746094 C 988.550781 793.574219 988.546875 793.40625 988.476562 793.242188 C 988.402344 793.078125 988.285156 792.957031 988.121094 792.882812 C 987.960938 792.808594 987.792969 792.796875 987.621094 792.851562 Z M 935.589844 766.347656 C 926.488281 769.003906 917.246094 771.007812 907.863281 772.347656 C 898.476562 773.691406 889.042969 774.363281 879.5625 774.363281 C 870.082031 774.363281 860.648438 773.691406 851.265625 772.347656 C 841.878906 771.007812 832.636719 769.003906 823.535156 766.347656 C 823.363281 766.292969 823.195312 766.300781 823.035156 766.378906 C 822.871094 766.453125 822.753906 766.574219 822.6875 766.742188 C 822.617188 766.90625 822.613281 767.070312 822.667969 767.238281 C 822.726562 767.40625 822.832031 767.53125 822.988281 767.617188 C 839.234375 776.652344 858.796875 781.429688 879.5625 781.429688 C 900.332031 781.429688 919.894531 776.652344 936.136719 767.617188 C 936.292969 767.53125 936.402344 767.40625 936.460938 767.234375 C 936.519531 767.0625 936.515625 766.898438 936.445312 766.730469 C 936.375 766.566406 936.257812 766.445312 936.09375 766.371094 C 935.929688 766.296875 935.761719 766.285156 935.589844 766.339844 Z M 696.125 802.804688 C 688.757812 804.957031 681.273438 806.574219 673.671875 807.664062 C 666.074219 808.75 658.4375 809.292969 650.761719 809.292969 C 643.085938 809.292969 635.445312 808.75 627.847656 807.664062 C 620.25 806.574219 612.765625 804.957031 605.394531 802.804688 C 605.226562 802.75 605.058594 802.757812 604.894531 802.835938 C 604.730469 802.910156 604.617188 803.03125 604.546875 803.195312 C 604.476562 803.359375 604.46875 803.527344 604.527344 803.695312 C 604.585938 803.867188 604.691406 803.996094 604.847656 804.082031 C 608.382812 805.914062 612.011719 807.53125 615.738281 808.933594 C 619.464844 810.332031 623.261719 811.503906 627.128906 812.449219 C 630.996094 813.390625 634.90625 814.101562 638.859375 814.578125 C 642.8125 815.050781 646.78125 815.289062 650.761719 815.289062 C 654.742188 815.289062 658.707031 815.050781 662.660156 814.578125 C 666.613281 814.101562 670.523438 813.390625 674.390625 812.449219 C 678.257812 811.503906 682.054688 810.332031 685.78125 808.933594 C 689.507812 807.53125 693.140625 805.914062 696.671875 804.082031 C 696.828125 803.996094 696.9375 803.867188 696.996094 803.695312 C 697.054688 803.527344 697.050781 803.359375 696.980469 803.195312 C 696.910156 803.027344 696.789062 802.910156 696.628906 802.835938 C 696.464844 802.757812 696.296875 802.75 696.125 802.804688 Z M 676.464844 766.347656 C 667.363281 769.003906 658.121094 771.003906 648.734375 772.347656 C 639.351562 773.691406 629.917969 774.359375 620.4375 774.359375 C 610.957031 774.359375 601.523438 773.691406 592.136719 772.347656 C 582.753906 771.003906 573.511719 769.003906 564.410156 766.347656 C 564.238281 766.289062 564.070312 766.300781 563.910156 766.375 C 563.746094 766.453125 563.628906 766.574219 563.5625 766.738281 C 563.492188 766.902344 563.484375 767.066406 563.542969 767.234375 C 563.601562 767.402344 563.707031 767.53125 563.863281 767.617188 C 580.109375 776.652344 599.671875 781.425781 620.4375 781.425781 C 641.203125 781.425781 660.769531 776.652344 677.011719 767.617188 C 677.167969 767.53125 677.277344 767.402344 677.335938 767.234375 C 677.394531 767.0625 677.386719 766.894531 677.316406 766.730469 C 677.246094 766.5625 677.128906 766.445312 676.964844 766.371094 C 676.800781 766.296875 676.632812 766.285156 676.460938 766.339844 Z M 543.144531 768.328125 C 543.074219 768.164062 542.957031 768.042969 542.796875 767.964844 C 542.632812 767.890625 542.464844 767.878906 542.292969 767.9375 C 527.578125 772.332031 512.542969 774.480469 497.1875 774.386719 C 481.832031 774.480469 466.796875 772.332031 452.082031 767.9375 C 451.910156 767.878906 451.742188 767.890625 451.582031 767.964844 C 451.417969 768.042969 451.300781 768.164062 451.234375 768.328125 C 451.164062 768.492188 451.160156 768.660156 451.21875 768.824219 C 451.273438 768.992188 451.378906 769.121094 451.535156 769.207031 C 458.550781 772.96875 465.921875 775.789062 473.652344 777.679688 C 481.382812 779.566406 489.230469 780.457031 497.1875 780.351562 C 505.144531 780.457031 512.988281 779.566406 520.722656 777.679688 C 528.453125 775.792969 535.824219 772.96875 542.839844 769.207031 C 542.996094 769.121094 543.101562 768.992188 543.160156 768.824219 C 543.21875 768.65625 543.214844 768.488281 543.144531 768.324219 Z M 586.863281 792.851562 C 580.816406 794.617188 574.671875 795.949219 568.433594 796.839844 C 562.195312 797.734375 555.925781 798.179688 549.621094 798.179688 C 543.320312 798.179688 537.050781 797.734375 530.8125 796.839844 C 524.574219 795.949219 518.429688 794.617188 512.382812 792.851562 C 512.210938 792.796875 512.042969 792.804688 511.878906 792.882812 C 511.714844 792.957031 511.597656 793.074219 511.527344 793.242188 C 511.457031 793.40625 511.449219 793.574219 511.507812 793.742188 C 511.566406 793.914062 511.675781 794.042969 511.832031 794.128906 C 517.640625 797.242188 523.742188 799.578125 530.144531 801.140625 C 536.542969 802.703125 543.039062 803.441406 549.625 803.355469 C 556.210938 803.441406 562.707031 802.703125 569.105469 801.140625 C 575.503906 799.578125 581.605469 797.242188 587.410156 794.128906 C 587.570312 794.042969 587.679688 793.914062 587.738281 793.742188 C 587.796875 793.574219 587.789062 793.40625 587.71875 793.242188 C 587.648438 793.074219 587.53125 792.957031 587.367188 792.882812 C 587.203125 792.804688 587.035156 792.796875 586.863281 792.851562 Z M 586.863281 792.851562 " fill-opacity="1" fill-rule="nonzero"/></g><g fill="#38b6ff" fill-opacity="1"><g transform="translate(242.473446, 974.40676)"><g><path d="M 103.234375 -7.671875 L 103.09375 0 L 70.65625 0 L 51.546875 -36.484375 L 41.984375 -36.34375 L 41.984375 -9.5625 L 54.015625 -7.671875 L 53.859375 0 L 4.34375 0 L 3.46875 -4.640625 C 7.144531 -7.140625 11.25 -9.40625 15.78125 -11.4375 L 15.78125 -86.59375 L 4.921875 -88.1875 L 5.0625 -95.859375 L 54.15625 -97.015625 C 65.738281 -97.015625 75.269531 -94.140625 82.75 -88.390625 C 90.226562 -82.648438 93.96875 -75.4375 93.96875 -66.75 C 93.96875 -61.15625 92.28125 -55.96875 88.90625 -51.1875 C 85.53125 -46.40625 80.945312 -42.710938 75.15625 -40.109375 L 94.40625 -8.984375 Z M 41.984375 -49.8125 C 44.691406 -49.132812 47.394531 -48.796875 50.09375 -48.796875 C 61.488281 -48.796875 67.1875 -54.632812 67.1875 -66.3125 C 67.1875 -74.226562 64.722656 -80.265625 59.796875 -84.421875 L 41.984375 -82.25 Z M 41.984375 -49.8125 "/></g></g></g><g fill="#38b6ff" fill-opacity="1"><g transform="translate(363.669892, 974.40676)"><g><path d="M 55.171875 -7.671875 L 55.015625 0 L 4.34375 0 L 3.46875 -4.640625 C 7.144531 -7.140625 11.25 -9.40625 15.78125 -11.4375 L 15.78125 -86.4375 L 4.640625 -88.1875 L 4.78125 -95.859375 L 53.4375 -95.859375 L 54.296875 -91.21875 C 50.828125 -88.707031 46.722656 -86.441406 41.984375 -84.421875 L 41.984375 -9.84375 Z M 55.171875 -7.671875 "/></g></g></g><g fill="#38b6ff" fill-opacity="1"><g transform="translate(439.40011, 974.40676)"><g><path d="M 64.71875 -0.296875 L 64.875 -0.140625 C 58.019531 1.015625 50.195312 1.832031 41.40625 2.3125 L 9.984375 -86.59375 L -0.4375 -88.1875 L -0.296875 -95.859375 L 47.640625 -95.859375 L 48.5 -91.21875 C 45.03125 -88.8125 41.171875 -86.6875 36.921875 -84.84375 L 51.84375 -37.640625 L 53.71875 -17.8125 L 54.875 -17.8125 L 77.46875 -86.15625 L 64.71875 -88.1875 L 64.875 -95.859375 L 104.25 -95.859375 L 105.125 -91.21875 C 102.226562 -89.09375 98.507812 -87.019531 93.96875 -85 Z M 64.71875 -0.296875 "/></g></g></g><g fill="#38b6ff" fill-opacity="1"><g transform="translate(561.320556, 974.40676)"><g><path d="M 85.859375 -30.125 C 86.054688 -20.65625 85.476562 -10.613281 84.125 0 L 4.34375 0 L 3.46875 -4.640625 C 7.144531 -7.140625 11.25 -9.40625 15.78125 -11.4375 L 15.78125 -86.59375 L 4.921875 -88.1875 L 5.0625 -95.859375 L 85.140625 -95.859375 L 85.28125 -92.53125 C 85.28125 -83.644531 84.363281 -75.003906 82.53125 -66.609375 L 68.046875 -66.609375 L 65.453125 -81.375 L 41.984375 -82.96875 L 41.984375 -53.71875 L 72.25 -56.1875 L 72.25 -40.546875 L 41.984375 -41.84375 L 41.984375 -13.46875 L 66.3125 -15.34375 L 71.53125 -31.28125 Z M 85.859375 -30.125 "/></g></g></g><g fill="#38b6ff" fill-opacity="1"><g transform="translate(671.51241, 974.40676)"><g><path d="M 103.234375 -7.671875 L 103.09375 0 L 70.65625 0 L 51.546875 -36.484375 L 41.984375 -36.34375 L 41.984375 -9.5625 L 54.015625 -7.671875 L 53.859375 0 L 4.34375 0 L 3.46875 -4.640625 C 7.144531 -7.140625 11.25 -9.40625 15.78125 -11.4375 L 15.78125 -86.59375 L 4.921875 -88.1875 L 5.0625 -95.859375 L 54.15625 -97.015625 C 65.738281 -97.015625 75.269531 -94.140625 82.75 -88.390625 C 90.226562 -82.648438 93.96875 -75.4375 93.96875 -66.75 C 93.96875 -61.15625 92.28125 -55.96875 88.90625 -51.1875 C 85.53125 -46.40625 80.945312 -42.710938 75.15625 -40.109375 L 94.40625 -8.984375 Z M 41.984375 -49.8125 C 44.691406 -49.132812 47.394531 -48.796875 50.09375 -48.796875 C 61.488281 -48.796875 67.1875 -54.632812 67.1875 -66.3125 C 67.1875 -74.226562 64.722656 -80.265625 59.796875 -84.421875 L 41.984375 -82.25 Z M 41.984375 -49.8125 "/></g></g></g><g fill="#38b6ff" fill-opacity="1"><g transform="translate(792.708902, 974.40676)"><g><path d="M 73.703125 -50.671875 C 80.742188 -49.222656 86.195312 -46.300781 90.0625 -41.90625 C 93.925781 -37.519531 95.859375 -32.429688 95.859375 -26.640625 C 95.859375 -18.722656 92.453125 -12.375 85.640625 -7.59375 C 78.835938 -2.820312 69.597656 -0.289062 57.921875 0 L 4.34375 0 L 3.46875 -4.640625 C 7.144531 -7.140625 11.25 -9.40625 15.78125 -11.4375 L 15.78125 -86.734375 L 5.5 -88.1875 L 5.640625 -95.859375 C 18.578125 -96.628906 34.894531 -97.015625 54.59375 -97.015625 C 65.59375 -97.015625 74.519531 -94.695312 81.375 -90.0625 C 88.226562 -85.425781 91.65625 -79.488281 91.65625 -72.25 C 91.65625 -67.519531 90.109375 -63.054688 87.015625 -58.859375 C 83.929688 -54.660156 79.492188 -51.929688 73.703125 -50.671875 Z M 41.984375 -82.25 L 41.984375 -55.015625 L 48.5 -55.015625 C 54.195312 -55.015625 58.46875 -56.390625 61.3125 -59.140625 C 64.164062 -61.898438 65.59375 -65.257812 65.59375 -69.21875 C 65.59375 -72.5 64.695312 -75.632812 62.90625 -78.625 C 61.125 -81.613281 58.785156 -83.546875 55.890625 -84.421875 Z M 52.125 -12.3125 L 54.296875 -12.15625 C 59.023438 -12.15625 62.644531 -13.648438 65.15625 -16.640625 C 67.664062 -19.640625 68.921875 -23.164062 68.921875 -27.21875 C 68.921875 -31.757812 67.398438 -35.765625 64.359375 -39.234375 C 61.316406 -42.710938 57.53125 -44.5 53 -44.59375 L 41.984375 -44.59375 L 41.984375 -13.46875 Z M 52.125 -12.3125 "/></g></g></g><g fill="#38b6ff" fill-opacity="1"><g transform="translate(910.14061, 974.40676)"><g><path d="M 85.859375 -30.125 C 86.054688 -20.65625 85.476562 -10.613281 84.125 0 L 4.34375 0 L 3.46875 -4.640625 C 7.144531 -7.140625 11.25 -9.40625 15.78125 -11.4375 L 15.78125 -86.59375 L 4.921875 -88.1875 L 5.0625 -95.859375 L 85.140625 -95.859375 L 85.28125 -92.53125 C 85.28125 -83.644531 84.363281 -75.003906 82.53125 -66.609375 L 68.046875 -66.609375 L 65.453125 -81.375 L 41.984375 -82.96875 L 41.984375 -53.71875 L 72.25 -56.1875 L 72.25 -40.546875 L 41.984375 -41.84375 L 41.984375 -13.46875 L 66.3125 -15.34375 L 71.53125 -31.28125 Z M 85.859375 -30.125 "/></g></g></g><g fill="#38b6ff" fill-opacity="1"><g transform="translate(1020.33251, 974.40676)"><g><path d="M 110.625 -91.21875 C 107.144531 -88.8125 103.285156 -86.6875 99.046875 -84.84375 L 98.3125 0 L 75.15625 1.875 L 31.859375 -63.125 L 33.875 -45.609375 L 33.875 -9.703125 L 46.625 -7.671875 L 46.484375 0 L 4.34375 0 L 3.46875 -4.640625 C 7.144531 -7.140625 11.25 -9.40625 15.78125 -11.4375 L 15.78125 -86.296875 L 5.21875 -88.1875 L 5.359375 -95.859375 L 40.828125 -95.859375 L 40.6875 -95.703125 L 83.109375 -30.546875 L 81.09375 -48.65625 L 81.09375 -85.859375 L 66.75 -88.1875 L 66.890625 -95.859375 L 109.75 -95.859375 Z M 110.625 -91.21875 "/></g></g></g><g fill="#38b6ff" fill-opacity="1"><g transform="translate(1151.519971, 974.40676)"><g><path d="M 53.859375 -97.015625 C 64.484375 -97.015625 73.609375 -94.695312 81.234375 -90.0625 C 88.859375 -85.425781 94.625 -79.414062 98.53125 -72.03125 C 102.445312 -64.644531 104.40625 -56.898438 104.40625 -48.796875 C 104.40625 -34.609375 99.863281 -23 90.78125 -13.96875 C 81.707031 -4.945312 69.738281 -0.289062 54.875 0 L 4.34375 0 L 3.46875 -4.640625 C 7.144531 -7.140625 11.25 -9.40625 15.78125 -11.4375 L 15.78125 -86.734375 L 5.5 -88.1875 L 5.640625 -95.859375 C 20.222656 -96.628906 36.296875 -97.015625 53.859375 -97.015625 Z M 51.6875 -13.328125 C 59.3125 -13.328125 65.441406 -16.535156 70.078125 -22.953125 C 74.710938 -29.367188 77.03125 -37.550781 77.03125 -47.5 C 77.03125 -55.125 75.507812 -62.363281 72.46875 -69.21875 C 69.425781 -76.070312 65.347656 -81.140625 60.234375 -84.421875 L 41.984375 -82.25 L 41.984375 -14.765625 C 45.273438 -13.804688 48.507812 -13.328125 51.6875 -13.328125 Z M 51.6875 -13.328125 "/></g></g></g><g transform="matrix(1, 0, 0, 1, 547, 1023)"><g clip-path="url(#8ea61aae48)"><g fill="#38b6ff" fill-opacity="1"><g transform="translate(1.649814, 43.561374)"><g><path d="M 25.6875 0 L 14 -14.9375 L 9.984375 -11.875 L 9.984375 0 L 3.15625 0 L 3.15625 -32.546875 L 9.984375 -32.546875 L 9.984375 -17.78125 L 24.640625 -32.546875 L 32.578125 -32.546875 L 18.6875 -18.78125 L 33.71875 0 Z M 25.6875 0 "/></g></g></g><g fill="#38b6ff" fill-opacity="1"><g transform="translate(41.387459, 43.561374)"><g><path d="M 26.171875 0 L 23.28125 -8.3125 L 10.875 -8.3125 L 7.984375 0 L 1.171875 0 L 13.046875 -32.546875 L 21.078125 -32.546875 L 32.90625 0 Z M 17.0625 -27.53125 L 16.921875 -27.015625 C 16.773438 -26.460938 16.59375 -25.832031 16.375 -25.125 C 16.15625 -24.414062 14.832031 -20.519531 12.40625 -13.4375 L 21.75 -13.4375 L 18.546875 -22.796875 L 17.546875 -25.9375 Z M 17.0625 -27.53125 "/></g></g></g><g fill="#38b6ff" fill-opacity="1"><g transform="translate(81.125103, 43.561374)"><g><path d="M 19.1875 -13.34375 L 19.1875 0 L 12.40625 0 L 12.40625 -13.34375 L 0.8125 -32.546875 L 7.9375 -32.546875 L 15.75 -18.78125 L 23.65625 -32.546875 L 30.78125 -32.546875 Z M 19.1875 -13.34375 "/></g></g></g><g fill="#38b6ff" fill-opacity="1"><g transform="translate(118.253161, 43.561374)"><g><path d="M 26.171875 0 L 23.28125 -8.3125 L 10.875 -8.3125 L 7.984375 0 L 1.171875 0 L 13.046875 -32.546875 L 21.078125 -32.546875 L 32.90625 0 Z M 17.0625 -27.53125 L 16.921875 -27.015625 C 16.773438 -26.460938 16.59375 -25.832031 16.375 -25.125 C 16.15625 -24.414062 14.832031 -20.519531 12.40625 -13.4375 L 21.75 -13.4375 L 18.546875 -22.796875 L 17.546875 -25.9375 Z M 17.0625 -27.53125 "/></g></g></g><g fill="#38b6ff" fill-opacity="1"><g transform="translate(157.990805, 43.561374)"><g><path d="M 25.6875 0 L 14 -14.9375 L 9.984375 -11.875 L 9.984375 0 L 3.15625 0 L 3.15625 -32.546875 L 9.984375 -32.546875 L 9.984375 -17.78125 L 24.640625 -32.546875 L 32.578125 -32.546875 L 18.6875 -18.78125 L 33.71875 0 Z M 25.6875 0 "/></g></g></g><g fill="#38b6ff" fill-opacity="1"><g transform="translate(197.72845, 43.561374)"><g/></g></g><g fill="#38b6ff" fill-opacity="1"><g transform="translate(216.450829, 43.561374)"><g><path d="M 17.859375 -27.28125 L 17.859375 0 L 11.03125 0 L 11.03125 -27.28125 L 0.53125 -27.28125 L 0.53125 -32.546875 L 28.375 -32.546875 L 28.375 -27.28125 Z M 17.859375 -27.28125 "/></g></g></g><g fill="#38b6ff" fill-opacity="1"><g transform="translate(250.923111, 43.561374)"><g><path d="M 34.796875 -16.421875 C 34.796875 -13.035156 34.125 -10.054688 32.78125 -7.484375 C 31.445312 -4.910156 29.53125 -2.941406 27.03125 -1.578125 C 24.539062 -0.210938 21.632812 0.46875 18.3125 0.46875 C 13.195312 0.46875 9.1875 -1.035156 6.28125 -4.046875 C 3.382812 -7.054688 1.9375 -11.179688 1.9375 -16.421875 C 1.9375 -21.640625 3.382812 -25.710938 6.28125 -28.640625 C 9.175781 -31.566406 13.203125 -33.03125 18.359375 -33.03125 C 23.515625 -33.03125 27.539062 -31.550781 30.4375 -28.59375 C 33.34375 -25.632812 34.796875 -21.578125 34.796875 -16.421875 Z M 27.859375 -16.421875 C 27.859375 -19.929688 27.023438 -22.679688 25.359375 -24.671875 C 23.691406 -26.671875 21.359375 -27.671875 18.359375 -27.671875 C 15.304688 -27.671875 12.945312 -26.679688 11.28125 -24.703125 C 9.625 -22.722656 8.796875 -19.960938 8.796875 -16.421875 C 8.796875 -12.847656 9.644531 -10.03125 11.34375 -7.96875 C 13.050781 -5.914062 15.375 -4.890625 18.3125 -4.890625 C 21.363281 -4.890625 23.71875 -5.890625 25.375 -7.890625 C 27.03125 -9.898438 27.859375 -12.742188 27.859375 -16.421875 Z M 27.859375 -16.421875 "/></g></g></g><g fill="#38b6ff" fill-opacity="1"><g transform="translate(293.293452, 43.561374)"><g><path d="M 16.703125 0.46875 C 12.222656 0.46875 8.789062 -0.625 6.40625 -2.8125 C 4.03125 -5 2.84375 -8.125 2.84375 -12.1875 L 2.84375 -32.546875 L 9.65625 -32.546875 L 9.65625 -12.71875 C 9.65625 -10.15625 10.265625 -8.207031 11.484375 -6.875 C 12.710938 -5.539062 14.507812 -4.875 16.875 -4.875 C 19.3125 -4.875 21.179688 -5.566406 22.484375 -6.953125 C 23.796875 -8.347656 24.453125 -10.347656 24.453125 -12.953125 L 24.453125 -32.546875 L 31.265625 -32.546875 L 31.265625 -12.546875 C 31.265625 -8.410156 29.988281 -5.207031 27.4375 -2.9375 C 24.894531 -0.664062 21.316406 0.46875 16.703125 0.46875 Z M 16.703125 0.46875 "/></g></g></g><g fill="#38b6ff" fill-opacity="1"><g transform="translate(333.031083, 43.561374)"><g><path d="M 25.515625 0 L 17.96875 -12.359375 L 9.984375 -12.359375 L 9.984375 0 L 3.15625 0 L 3.15625 -32.546875 L 19.421875 -32.546875 C 23.296875 -32.546875 26.285156 -31.707031 28.390625 -30.03125 C 30.503906 -28.363281 31.5625 -25.96875 31.5625 -22.84375 C 31.5625 -20.5625 30.914062 -18.59375 29.625 -16.9375 C 28.332031 -15.28125 26.585938 -14.191406 24.390625 -13.671875 L 33.1875 0 Z M 24.703125 -22.5625 C 24.703125 -25.6875 22.703125 -27.25 18.703125 -27.25 L 9.984375 -27.25 L 9.984375 -17.640625 L 18.890625 -17.640625 C 20.796875 -17.640625 22.238281 -18.070312 23.21875 -18.9375 C 24.207031 -19.800781 24.703125 -21.007812 24.703125 -22.5625 Z M 24.703125 -22.5625 "/></g></g></g><g fill="#38b6ff" fill-opacity="1"><g transform="translate(372.768714, 43.561374)"><g><path d="M 29.703125 -9.375 C 29.703125 -6.1875 28.519531 -3.75 26.15625 -2.0625 C 23.789062 -0.375 20.320312 0.46875 15.75 0.46875 C 11.570312 0.46875 8.296875 -0.269531 5.921875 -1.75 C 3.554688 -3.226562 2.035156 -5.46875 1.359375 -8.46875 L 7.9375 -9.5625 C 8.382812 -7.832031 9.253906 -6.578125 10.546875 -5.796875 C 11.847656 -5.023438 13.644531 -4.640625 15.9375 -4.640625 C 20.695312 -4.640625 23.078125 -6.085938 23.078125 -8.984375 C 23.078125 -9.910156 22.800781 -10.671875 22.25 -11.265625 C 21.707031 -11.867188 20.9375 -12.367188 19.9375 -12.765625 C 18.945312 -13.171875 17.039062 -13.65625 14.21875 -14.21875 C 11.789062 -14.789062 10.097656 -15.25 9.140625 -15.59375 C 8.191406 -15.945312 7.332031 -16.359375 6.5625 -16.828125 C 5.789062 -17.296875 5.132812 -17.859375 4.59375 -18.515625 C 4.050781 -19.179688 3.628906 -19.957031 3.328125 -20.84375 C 3.035156 -21.738281 2.890625 -22.765625 2.890625 -23.921875 C 2.890625 -26.867188 3.992188 -29.125 6.203125 -30.6875 C 8.410156 -32.25 11.625 -33.03125 15.84375 -33.03125 C 19.875 -33.03125 22.898438 -32.394531 24.921875 -31.125 C 26.953125 -29.863281 28.257812 -27.78125 28.84375 -24.875 L 22.234375 -23.96875 C 21.898438 -25.375 21.210938 -26.429688 20.171875 -27.140625 C 19.128906 -27.847656 17.640625 -28.203125 15.703125 -28.203125 C 11.578125 -28.203125 9.515625 -26.90625 9.515625 -24.3125 C 9.515625 -23.46875 9.734375 -22.773438 10.171875 -22.234375 C 10.609375 -21.703125 11.257812 -21.242188 12.125 -20.859375 C 12.988281 -20.484375 14.734375 -20.007812 17.359375 -19.4375 C 20.492188 -18.78125 22.734375 -18.171875 24.078125 -17.609375 C 25.421875 -17.046875 26.484375 -16.390625 27.265625 -15.640625 C 28.054688 -14.898438 28.660156 -14.007812 29.078125 -12.96875 C 29.492188 -11.925781 29.703125 -10.726562 29.703125 -9.375 Z M 29.703125 -9.375 "/></g></g></g></g></g></svg>